<svg width="97" height="40" viewBox="0 0 97 40" fill="none" xmlns="http://www.w3.org/2000/svg">
<g clip-path="url(#clip0_3963_11822)">
<path d="M0.721436 23.7196V3.36374C0.721436 2.4787 0.965238 1.79405 1.45618 1.30311C1.94713 0.812162 2.58502 0.568359 3.3732 0.568359C3.73056 0.568359 4.13801 0.675232 4.59222 0.892316C5.04642 1.10606 5.40378 1.38326 5.66762 1.71724L16.9927 16.9131L17.0629 3.36708C17.0629 2.48204 17.3067 1.79739 17.7976 1.30645C18.2886 0.815502 18.9498 0.571699 19.7881 0.571699C20.5763 0.571699 21.2142 0.815502 21.7051 1.30645C22.1961 1.79739 22.4399 2.48204 22.4399 3.36708V23.7229C22.4399 24.6079 22.1961 25.2926 21.7051 25.7835C21.2142 26.2745 20.5763 26.5183 19.7881 26.5183C19.4308 26.5183 19.0233 26.3981 18.5691 26.1609C18.1149 25.9238 17.7575 25.6366 17.4937 25.2993L6.16858 10.3171L6.09845 23.7196C6.09845 24.6046 5.85464 25.2893 5.3637 25.7802C4.87276 26.2711 4.21148 26.5149 3.3732 26.5149C2.58502 26.5149 1.94379 26.2711 1.45618 25.7802C0.965238 25.2893 0.721436 24.6046 0.721436 23.7196Z" fill="url(#paint0_linear_3963_11822)"/>
<path d="M40.508 18.4852H29.5402C29.7072 19.6808 30.2382 20.5993 31.1366 21.2438C32.0317 21.8884 33.1238 22.2124 34.4162 22.2124C35.2512 22.2124 36.1229 21.9986 37.0313 21.5678C39.0619 20.6126 40.1239 20.135 40.2207 20.135C40.7952 20.135 41.2962 20.3622 41.727 20.8164C42.1578 21.2706 42.3716 21.7849 42.3716 22.356C42.3716 23.4314 41.4565 24.43 39.6296 25.3484C37.8028 26.2702 35.8958 26.7277 33.9119 26.7277C31.0464 26.7277 28.7153 25.7959 26.9252 23.9324C25.1317 22.0688 24.2367 19.6808 24.2367 16.7652C24.2367 14.0667 25.1083 11.7289 26.8517 9.75842C28.595 7.78796 30.806 6.80273 33.4811 6.80273C36.1563 6.80273 38.3772 7.83138 40.2174 9.88533C41.9374 11.7957 42.799 13.8997 42.799 16.1941C42.799 17.7237 42.0342 18.4885 40.5046 18.4885L40.508 18.4852ZM29.3966 15.0453H37.6391C37.4955 13.8496 37.0647 12.8945 36.35 12.1797C35.6319 11.4617 34.6767 11.1043 33.4845 11.1043C32.3623 11.1043 31.4338 11.4684 30.7058 12.1964C29.9777 12.9245 29.5402 13.8763 29.3966 15.0453Z" fill="url(#paint1_linear_3963_11822)"/>
<path d="M46.239 22.214L51.4724 16.2659L47.1007 11.3932C46.8869 11.1294 46.6999 10.8255 46.5463 10.4781C46.3893 10.1308 46.3125 9.81352 46.3125 9.52964C46.3125 8.86169 46.5863 8.27389 47.1374 7.77293C47.6885 7.27197 48.2963 7.02148 48.9643 7.02148C49.3717 7.02148 49.709 7.0983 49.9862 7.25527C50.2601 7.41224 50.564 7.66606 50.9013 8.02675L54.4849 12.5421L58.1419 8.02675C58.6663 7.3588 59.2875 7.02482 60.0055 7.02482C60.7235 7.02482 61.3147 7.26863 61.8524 7.75957C62.3901 8.25052 62.6573 8.84165 62.6573 9.53298C62.6573 9.84358 62.5871 10.1609 62.4435 10.4815C62.2999 10.8054 62.1095 11.1093 61.8691 11.3966L57.4973 16.2693L62.7307 22.2174C63.2083 22.695 63.4488 23.2928 63.4488 24.0108C63.4488 24.7756 63.2217 25.3835 62.7675 25.8377C62.3133 26.2919 61.7054 26.519 60.9406 26.519C60.4163 26.519 60.0022 26.4288 59.7049 26.2518C59.4043 26.0715 59.1004 25.7809 58.7898 25.3735L54.4882 20.1401L50.2601 25.3735C49.8293 25.8744 49.4652 26.1917 49.168 26.322C48.8707 26.4522 48.5167 26.519 48.1093 26.519C47.3445 26.519 46.7233 26.2919 46.2457 25.8377C45.7681 25.3835 45.5276 24.7756 45.5276 24.0108C45.5276 23.747 45.5978 23.4431 45.7414 23.0957C45.885 22.7484 46.052 22.4578 46.2424 22.2174L46.239 22.214Z" fill="url(#paint2_linear_3963_11822)"/>
<path d="M67.5834 23.6501V11.7506H66.4379C65.7699 11.7506 65.2188 11.5468 64.788 11.1427C64.3572 10.7353 64.1434 10.1742 64.1434 9.4595C64.1434 8.81493 64.3639 8.2839 64.808 7.86309C65.2489 7.44562 65.7933 7.23522 66.4379 7.23522H67.5834V4.15262C67.5834 3.29096 67.8205 2.59963 68.3014 2.07529C68.779 1.55095 69.4002 1.28711 70.165 1.28711C70.9298 1.28711 71.551 1.55095 72.0286 2.07529C72.5062 2.59963 72.7467 3.2943 72.7467 4.15262V7.23522H74.2529C74.9709 7.23522 75.5554 7.40889 76.0096 7.75622C76.4638 8.10356 76.6909 8.67132 76.6909 9.4595C76.6909 10.2477 76.4638 10.7987 76.0096 11.1795C75.5554 11.5635 74.9709 11.7539 74.2529 11.7539H72.7467V23.6535C72.7467 24.5151 72.5062 25.2065 72.0286 25.7308C71.551 26.2551 70.9298 26.519 70.165 26.519C69.4002 26.519 68.779 26.2551 68.3014 25.7308C67.8239 25.2065 67.5834 24.5118 67.5834 23.6535V23.6501Z" fill="url(#paint3_linear_3963_11822)"/>
<path d="M97 10.3869V23.1447C97 24.1467 96.9031 24.8647 96.7128 25.2955C96.3287 26.1071 95.5906 26.5146 94.4918 26.5146C93.7738 26.5146 93.2361 26.3342 92.8787 25.9769C92.5214 25.6195 92.2442 25.0584 92.0538 24.2936C91.3591 25.0818 90.6077 25.6863 89.7961 26.1038C88.9846 26.5212 88.0862 26.7316 87.1076 26.7316C84.693 26.7316 82.6691 25.7932 81.0326 23.9196C79.3961 22.046 78.5779 19.6614 78.5779 16.7691C78.5779 13.8769 79.4028 11.5858 81.0493 9.67215C82.6991 7.76181 84.7164 6.80664 87.1076 6.80664C88.1329 6.80664 89.0714 6.99701 89.9197 7.38108C90.768 7.76515 91.4794 8.35963 92.0538 9.17453C92.1239 8.52996 92.3945 8.00895 92.8587 7.61486C93.3229 7.22077 93.8673 7.02372 94.4885 7.02372C95.5873 7.02372 96.3153 7.4078 96.676 8.16926C96.8898 8.62347 97 9.3649 97 10.3902V10.3869ZM83.7412 16.7658C83.7412 18.1752 84.0651 19.3575 84.7097 20.3126C85.4745 21.4348 86.5132 21.9959 87.829 21.9959C89.1449 21.9959 90.1 21.4481 90.8381 20.346C91.5061 19.3408 91.8401 18.1485 91.8401 16.7625C91.8401 15.3765 91.5161 14.2309 90.8715 13.249C90.1067 12.1035 89.0914 11.5291 87.8257 11.5291C86.5599 11.5291 85.5079 12.0901 84.7431 13.2123C84.0751 14.2176 83.7412 15.3998 83.7412 16.7591V16.7658Z" fill="url(#paint4_linear_3963_11822)"/>
<path d="M0.721436 29.7012H1.14892V37.1121H0.721436V29.7012Z" fill="url(#paint5_linear_3963_11822)"/>
<path d="M7.20388 33.7595V37.1126H6.76637V33.8029C6.76637 33.2485 6.65282 32.8411 6.42906 32.5873C6.20529 32.3334 5.8446 32.2032 5.35031 32.2032C4.78924 32.2032 4.33837 32.3735 4.00439 32.7142C3.66708 33.0548 3.50009 33.5124 3.50009 34.0868V37.116H3.0726V33.3487C3.0726 32.8077 3.04588 32.3301 2.98911 31.9126H3.40658L3.48005 32.9012C3.627 32.5405 3.86078 32.2666 4.18808 32.0729C4.51538 31.8826 4.88943 31.7891 5.31358 31.7891C6.57601 31.7891 7.20722 32.447 7.20722 33.7662L7.20388 33.7595Z" fill="url(#paint6_linear_3963_11822)"/>
<path d="M13.1387 33.7595V37.1126H12.7012V33.8029C12.7012 33.2485 12.5876 32.8411 12.3639 32.5873C12.1401 32.3334 11.7794 32.2032 11.2851 32.2032C10.724 32.2032 10.2732 32.3735 9.93921 32.7142C9.60189 33.0548 9.4349 33.5124 9.4349 34.0868V37.116H9.00741V33.3487C9.00741 32.8077 8.9807 32.3301 8.92392 31.9126H9.34139L9.41486 32.9012C9.56181 32.5405 9.7956 32.2666 10.1229 32.0729C10.4502 31.8826 10.8242 31.7891 11.2484 31.7891C12.5108 31.7891 13.142 32.447 13.142 33.7662L13.1387 33.7595Z" fill="url(#paint7_linear_3963_11822)"/>
<path d="M15.6869 36.853C15.3329 36.6325 15.0624 36.3153 14.8687 35.9045C14.6783 35.4937 14.5848 35.0194 14.5848 34.4784C14.5848 33.9373 14.6783 33.4631 14.8687 33.059C15.0591 32.6549 15.3329 32.3376 15.6869 32.1172C16.0409 31.8968 16.4451 31.7832 16.9059 31.7832C17.3668 31.7832 17.7676 31.8934 18.1183 32.1172C18.4689 32.3376 18.7395 32.6549 18.9298 33.059C19.1202 33.4631 19.2171 33.9373 19.2171 34.4784C19.2171 35.0194 19.1202 35.4937 18.9298 35.9045C18.7395 36.3119 18.4689 36.6292 18.1183 36.853C17.7676 37.0734 17.3635 37.1869 16.9059 37.1869C16.4484 37.1869 16.0409 37.0767 15.6869 36.853ZM18.2619 36.165C18.5858 35.7709 18.7461 35.2065 18.7461 34.4784C18.7461 33.7503 18.5825 33.216 18.2552 32.8118C17.9279 32.4077 17.477 32.2074 16.9026 32.2074C16.3282 32.2074 15.874 32.4077 15.5433 32.8052C15.2127 33.2026 15.049 33.7603 15.049 34.475C15.049 35.1898 15.2093 35.7742 15.5266 36.165C15.8439 36.5557 16.3014 36.7528 16.8892 36.7528C17.477 36.7528 17.9346 36.5557 18.2585 36.1583L18.2619 36.165Z" fill="url(#paint8_linear_3963_11822)"/>
<path d="M24.908 31.9102L22.6904 37.1135H22.1794L19.9818 31.9102H20.4494L22.4466 36.7194L24.4571 31.9102H24.9046H24.908Z" fill="url(#paint9_linear_3963_11822)"/>
<path d="M30.2583 31.9093V37.1126H29.8208V36.0706C29.6671 36.4313 29.4334 36.7085 29.1194 36.8989C28.8021 37.0893 28.4281 37.1861 27.9906 37.1861C27.5264 37.1861 27.1189 37.0759 26.7682 36.8588C26.4176 36.6417 26.147 36.3278 25.9567 35.9237C25.7663 35.5196 25.6728 35.0453 25.6728 34.5043C25.6728 33.9632 25.7696 33.489 25.9634 33.0782C26.1571 32.6708 26.4276 32.3501 26.7782 32.1264C27.1289 31.9026 27.533 31.7891 27.9906 31.7891C28.4481 31.7891 28.8021 31.8826 29.1194 32.0696C29.4367 32.2566 29.6705 32.5305 29.8208 32.8912V31.9126H30.2583V31.9093ZM29.3432 36.1608C29.6638 35.7634 29.8208 35.2023 29.8208 34.4809C29.8208 33.7595 29.6605 33.1918 29.3432 32.801C29.0226 32.4103 28.5717 32.2132 27.9906 32.2132C27.4095 32.2132 26.9519 32.4136 26.628 32.8177C26.3007 33.2185 26.1404 33.7829 26.1404 34.5043C26.1404 35.2257 26.304 35.7734 26.6346 36.1708C26.9653 36.5649 27.4195 36.7653 28.0039 36.7653C28.5884 36.7653 29.0259 36.5649 29.3465 36.1675L29.3432 36.1608Z" fill="url(#paint10_linear_3963_11822)"/>
<path d="M32.733 32.2838V35.6035C32.733 36.0477 32.8132 36.3516 32.9768 36.5153C33.1405 36.6789 33.3809 36.7591 33.7016 36.7591C33.9086 36.7591 34.1023 36.729 34.2827 36.6655V37.093C34.0756 37.1498 33.8652 37.1765 33.6581 37.1765C33.2407 37.1765 32.91 37.0596 32.6629 36.8292C32.4158 36.5987 32.2922 36.2381 32.2922 35.7504V32.2838H31.2502V31.9097H32.2922V30.4937L32.7297 30.3066V31.9097H34.3127V32.2838H32.7297H32.733Z" fill="url(#paint11_linear_3963_11822)"/>
<path d="M36.0227 29.8262V30.4941H35.3447V29.8262H36.0227ZM35.4616 31.9102H35.8891V37.1135H35.4616V31.9102Z" fill="url(#paint12_linear_3963_11822)"/>
<path d="M41.8639 33.7595V37.1126H41.4264V33.8029C41.4264 33.2485 41.3129 32.8411 41.0891 32.5873C40.8653 32.3334 40.5046 32.2032 40.0103 32.2032C39.4493 32.2032 38.9984 32.3735 38.6644 32.7142C38.3271 33.0548 38.1601 33.5124 38.1601 34.0868V37.116H37.7326V33.3487C37.7326 32.8077 37.7059 32.3301 37.6491 31.9126H38.0666L38.1401 32.9012C38.287 32.5405 38.5208 32.2666 38.8481 32.0729C39.1754 31.8826 39.5495 31.7891 39.9736 31.7891C41.236 31.7891 41.8673 32.447 41.8673 33.7662L41.8639 33.7595Z" fill="url(#paint13_linear_3963_11822)"/>
<path d="M47.939 31.9099V37.1867C47.939 37.9281 47.7653 38.4892 47.4146 38.8666C47.064 39.244 46.5463 39.4343 45.8583 39.4343C45.0801 39.4343 44.4155 39.2406 43.8611 38.8532L43.9546 38.4357C44.302 38.6428 44.6159 38.7898 44.8898 38.8766C45.167 38.9634 45.4976 39.0068 45.8783 39.0068C46.4127 39.0068 46.8202 38.8566 47.094 38.556C47.3712 38.2554 47.5115 37.8146 47.5115 37.2401V35.814C47.3579 36.1881 47.1241 36.472 46.8035 36.669C46.4828 36.8627 46.0988 36.9596 45.6479 36.9596C45.197 36.9596 44.7829 36.8494 44.4322 36.6323C44.0782 36.4152 43.801 36.1079 43.604 35.7172C43.4069 35.3264 43.3067 34.8756 43.3067 34.3713C43.3067 33.867 43.4036 33.4161 43.604 33.0253C43.801 32.6346 44.0782 32.3307 44.4322 32.1136C44.7862 31.8998 45.1904 31.793 45.6479 31.793C46.1055 31.793 46.4728 31.8865 46.7868 32.0735C47.104 32.2605 47.3412 32.5344 47.5015 32.8951V31.9165H47.939V31.9099ZM47.0072 35.941C47.3378 35.5569 47.5015 35.0292 47.5015 34.3646C47.5015 33.7 47.3378 33.1656 47.0072 32.7815C46.6765 32.4008 46.2257 32.2104 45.6479 32.2104C45.0701 32.2104 44.6092 32.4008 44.2753 32.7815C43.9413 33.1623 43.7776 33.69 43.7776 34.3646C43.7776 35.0392 43.9446 35.5636 44.2753 35.9476C44.6092 36.3284 45.0668 36.5187 45.6479 36.5187C46.229 36.5187 46.6765 36.325 47.0072 35.941Z" fill="url(#paint14_linear_3963_11822)"/>
<path d="M52.4677 29.7026H56.9229V30.1067H52.9052V33.1458H56.7125V33.5633H52.9052V36.706H56.9229V37.1101H52.4677V29.6992V29.7026Z" fill="url(#paint15_linear_3963_11822)"/>
<path d="M62.6673 29.4512V37.1126H62.2298V36.0706C62.0762 36.4313 61.8424 36.7085 61.5285 36.8988C61.2112 37.0892 60.8371 37.1861 60.3996 37.1861C59.9621 37.1861 59.538 37.0725 59.1873 36.8487C58.8366 36.625 58.5661 36.3044 58.3724 35.8902C58.1787 35.4761 58.0818 35.0019 58.0818 34.4608C58.0818 33.9198 58.1753 33.4555 58.3657 33.0514C58.5561 32.644 58.8266 32.3334 59.1773 32.1163C59.5279 31.8992 59.9354 31.789 60.3996 31.789C60.8371 31.789 61.2112 31.8825 61.5285 32.0695C61.8457 32.2566 62.0795 32.5304 62.2298 32.8911V29.4579H62.6673V29.4512ZM61.7489 36.1607C62.0695 35.7633 62.2265 35.2022 62.2265 34.4808C62.2265 33.7595 62.0661 33.2017 61.7489 32.8043C61.4316 32.4069 60.9807 32.2098 60.4063 32.2098C59.8319 32.2098 59.3676 32.4069 59.037 32.7976C58.7064 33.1884 58.5427 33.7428 58.5427 34.4575C58.5427 35.1722 58.7064 35.7433 59.037 36.1474C59.3676 36.5548 59.8185 36.7552 60.3963 36.7552C60.974 36.7552 61.4283 36.5548 61.7489 36.1574V36.1607Z" fill="url(#paint16_linear_3963_11822)"/>
<path d="M68.5052 31.9102V37.1135H68.0877V36.1249C67.9207 36.4656 67.6803 36.7261 67.363 36.9098C67.0457 37.0935 66.6917 37.187 66.2943 37.187C65.6965 37.187 65.2422 37.02 64.9316 36.6827C64.621 36.3454 64.4641 35.8511 64.4641 35.1998V31.9102H64.8916V35.1564C64.8916 35.7041 65.0051 36.1082 65.2289 36.3687C65.4526 36.6292 65.8 36.7595 66.2642 36.7595C66.8119 36.7595 67.2528 36.5892 67.5801 36.2452C67.9107 35.9012 68.0744 35.447 68.0744 34.8759V31.9102H68.5018H68.5052Z" fill="url(#paint17_linear_3963_11822)"/>
<path d="M71.1136 36.853C70.7562 36.6325 70.479 36.3153 70.2819 35.9111C70.0849 35.507 69.9847 35.0361 69.9847 34.5018C69.9847 33.9674 70.0816 33.4932 70.2819 33.079C70.479 32.6649 70.7595 32.3476 71.1202 32.1205C71.4809 31.8934 71.9017 31.7832 72.3793 31.7832C72.7267 31.7832 73.0573 31.8467 73.3679 31.9702C73.6818 32.0938 73.939 32.2641 74.1494 32.4812L73.9423 32.8553C73.6584 32.6282 73.3946 32.4612 73.1508 32.3543C72.907 32.2508 72.6498 32.1973 72.3793 32.1973C71.7815 32.1973 71.3106 32.4044 70.9699 32.8152C70.6259 33.2293 70.4556 33.7904 70.4556 34.5051C70.4556 35.2198 70.6259 35.7642 70.9666 36.1616C71.3073 36.5557 71.7748 36.7561 72.3726 36.7561C72.6432 36.7561 72.9003 36.706 73.1475 36.6058C73.3946 36.5056 73.6584 36.342 73.9423 36.1115L74.1494 36.4756C73.9256 36.6993 73.6584 36.8697 73.3412 36.9966C73.0272 37.1201 72.7033 37.1836 72.3693 37.1836C71.8884 37.1836 71.4709 37.0734 71.1136 36.8496V36.853Z" fill="url(#paint18_linear_3963_11822)"/>
<path d="M79.6433 31.9093V37.1126H79.2058V36.0706C79.0522 36.4313 78.8184 36.7085 78.5044 36.8989C78.1872 37.0893 77.8131 37.1861 77.3756 37.1861C76.9114 37.1861 76.5039 37.0759 76.1532 36.8588C75.8026 36.6417 75.532 36.3278 75.3417 35.9237C75.1513 35.5196 75.0578 35.0453 75.0578 34.5043C75.0578 33.9632 75.1547 33.489 75.3484 33.0782C75.5421 32.6708 75.8126 32.3501 76.1633 32.1264C76.5139 31.9026 76.918 31.7891 77.3756 31.7891C77.8331 31.7891 78.1872 31.8826 78.5044 32.0696C78.8217 32.2566 79.0555 32.5305 79.2058 32.8912V31.9126H79.6433V31.9093ZM78.7249 36.1608C79.0455 35.7634 79.2024 35.2023 79.2024 34.4809C79.2024 33.7595 79.0421 33.1918 78.7249 32.801C78.4076 32.4103 77.9534 32.2132 77.3723 32.2132C76.7911 32.2132 76.3336 32.4136 76.0096 32.8177C75.6857 33.2218 75.522 33.7829 75.522 34.5043C75.522 35.2257 75.6857 35.7734 76.0163 36.1708C76.3469 36.5649 76.8012 36.7653 77.3856 36.7653C77.9701 36.7653 78.4076 36.5649 78.7282 36.1675L78.7249 36.1608Z" fill="url(#paint19_linear_3963_11822)"/>
<path d="M82.118 32.2838V35.6035C82.118 36.0477 82.1982 36.3516 82.3618 36.5153C82.5255 36.6789 82.766 36.7591 83.0866 36.7591C83.2936 36.7591 83.4873 36.729 83.6677 36.6655V37.093C83.4606 37.1498 83.2502 37.1765 83.0432 37.1765C82.6257 37.1765 82.2951 37.0596 82.0479 36.8292C81.8008 36.5987 81.6772 36.2381 81.6772 35.7504V32.2838H80.6352V31.9097H81.6772V30.4937L82.1147 30.3066V31.9097H83.6978V32.2838H82.1147H82.118Z" fill="url(#paint20_linear_3963_11822)"/>
<path d="M85.4077 29.8262V30.4941H84.7297V29.8262H85.4077ZM84.8433 31.9102H85.2708V37.1135H84.8433V31.9102Z" fill="url(#paint21_linear_3963_11822)"/>
<path d="M87.8624 36.853C87.5084 36.6325 87.2379 36.3153 87.0442 35.9045C86.8538 35.4937 86.7603 35.0194 86.7603 34.4784C86.7603 33.9373 86.8538 33.4631 87.0442 33.059C87.2346 32.6549 87.5084 32.3376 87.8624 32.1172C88.2165 31.8968 88.6206 31.7832 89.0815 31.7832C89.5423 31.7832 89.9431 31.8934 90.2938 32.1172C90.6445 32.3376 90.915 32.6549 91.1053 33.059C91.2957 33.4631 91.3926 33.9373 91.3926 34.4784C91.3926 35.0194 91.2957 35.4937 91.1053 35.9045C90.915 36.3119 90.6445 36.6292 90.2938 36.853C89.9431 37.0734 89.539 37.1869 89.0815 37.1869C88.6239 37.1869 88.2165 37.0767 87.8624 36.853ZM90.4374 36.165C90.7613 35.7709 90.9217 35.2065 90.9217 34.4784C90.9217 33.7503 90.758 33.216 90.4307 32.8118C90.1034 32.4077 89.6525 32.2074 89.0781 32.2074C88.5037 32.2074 88.0495 32.4077 87.7188 32.8052C87.3882 33.2026 87.2245 33.7603 87.2245 34.475C87.2245 35.1898 87.3849 35.7742 87.7021 36.165C88.0194 36.5557 88.4769 36.7528 89.0647 36.7528C89.6525 36.7528 90.1101 36.5557 90.4341 36.1583L90.4374 36.165Z" fill="url(#paint22_linear_3963_11822)"/>
<path d="M97 33.7595V37.1126H96.5625V33.8029C96.5625 33.2485 96.4489 32.8411 96.2252 32.5873C96.0014 32.3334 95.6407 32.2032 95.1464 32.2032C94.5853 32.2032 94.1345 32.3735 93.8005 32.7142C93.4632 33.0548 93.2962 33.5124 93.2962 34.0868V37.116H92.8687V33.3487C92.8687 32.8077 92.842 32.3301 92.7852 31.9126H93.2027L93.2762 32.9012C93.4231 32.5405 93.6569 32.2666 93.9842 32.0729C94.3115 31.8826 94.6855 31.7891 95.1097 31.7891C96.3721 31.7891 97.0033 32.447 97.0033 33.7662L97 33.7595Z" fill="url(#paint23_linear_3963_11822)"/>
</g>
<defs>
<linearGradient id="paint0_linear_3963_11822" x1="11.579" y1="23.7062" x2="11.579" y2="7.17774" gradientUnits="userSpaceOnUse">
<stop stop-color="#2B54A5"/>
<stop offset="1" stop-color="#22AAE1"/>
</linearGradient>
<linearGradient id="paint1_linear_3963_11822" x1="33.5179" y1="26.2067" x2="33.5179" y2="8.77987" gradientUnits="userSpaceOnUse">
<stop stop-color="#2B54A5"/>
<stop offset="1" stop-color="#22AAE1"/>
</linearGradient>
<linearGradient id="paint2_linear_3963_11822" x1="54.4815" y1="33.3254" x2="54.4815" y2="7.86978" gradientUnits="userSpaceOnUse">
<stop stop-color="#2B54A5"/>
<stop offset="1" stop-color="#22AAE1"/>
</linearGradient>
<linearGradient id="paint3_linear_3963_11822" x1="70.4155" y1="29.4379" x2="70.4155" y2="11.9877" gradientUnits="userSpaceOnUse">
<stop stop-color="#2B54A5"/>
<stop offset="1" stop-color="#22AAE1"/>
</linearGradient>
<linearGradient id="paint4_linear_3963_11822" x1="87.7923" y1="30.8128" x2="87.7923" y2="13.76" gradientUnits="userSpaceOnUse">
<stop stop-color="#2B54A5"/>
<stop offset="1" stop-color="#22AAE1"/>
</linearGradient>
<linearGradient id="paint5_linear_3963_11822" x1="0.93518" y1="37.1121" x2="0.93518" y2="29.7012" gradientUnits="userSpaceOnUse">
<stop stop-color="#22AAE1"/>
<stop offset="1" stop-color="#2B54A5"/>
</linearGradient>
<linearGradient id="paint6_linear_3963_11822" x1="5.09649" y1="0.569003" x2="5.09649" y2="31.7824" gradientUnits="userSpaceOnUse">
<stop stop-color="#22AAE1"/>
<stop offset="1" stop-color="#2B54A5"/>
</linearGradient>
<linearGradient id="paint7_linear_3963_11822" x1="11.0313" y1="0.569003" x2="11.0313" y2="31.7824" gradientUnits="userSpaceOnUse">
<stop stop-color="#22AAE1"/>
<stop offset="1" stop-color="#2B54A5"/>
</linearGradient>
<linearGradient id="paint8_linear_3963_11822" x1="16.8993" y1="37.1836" x2="16.8993" y2="31.7832" gradientUnits="userSpaceOnUse">
<stop stop-color="#22AAE1"/>
<stop offset="1" stop-color="#2B54A5"/>
</linearGradient>
<linearGradient id="paint9_linear_3963_11822" x1="22.4466" y1="0.569855" x2="22.4466" y2="31.9102" gradientUnits="userSpaceOnUse">
<stop stop-color="#22AAE1"/>
<stop offset="1" stop-color="#2B54A5"/>
</linearGradient>
<linearGradient id="paint10_linear_3963_11822" x1="27.9639" y1="37.1828" x2="27.9639" y2="31.7824" gradientUnits="userSpaceOnUse">
<stop stop-color="#22AAE1"/>
<stop offset="1" stop-color="#2B54A5"/>
</linearGradient>
<linearGradient id="paint11_linear_3963_11822" x1="32.7865" y1="37.1732" x2="32.7865" y2="30.3066" gradientUnits="userSpaceOnUse">
<stop stop-color="#22AAE1"/>
<stop offset="1" stop-color="#2B54A5"/>
</linearGradient>
<linearGradient id="paint12_linear_3963_11822" x1="35.6854" y1="0.569885" x2="35.6854" y2="29.8262" gradientUnits="userSpaceOnUse">
<stop stop-color="#22AAE1"/>
<stop offset="1" stop-color="#2B54A5"/>
</linearGradient>
<linearGradient id="paint13_linear_3963_11822" x1="39.7532" y1="0.569003" x2="39.7532" y2="31.7824" gradientUnits="userSpaceOnUse">
<stop stop-color="#22AAE1"/>
<stop offset="1" stop-color="#2B54A5"/>
</linearGradient>
<linearGradient id="paint14_linear_3963_11822" x1="45.6245" y1="39.4343" x2="45.6245" y2="31.7829" gradientUnits="userSpaceOnUse">
<stop stop-color="#22AAE1"/>
<stop offset="1" stop-color="#2B54A5"/>
</linearGradient>
<linearGradient id="paint15_linear_3963_11822" x1="54.6953" y1="0.569838" x2="54.6953" y2="0.569838" gradientUnits="userSpaceOnUse">
<stop stop-color="#22AAE1"/>
<stop offset="1" stop-color="#2B54A5"/>
</linearGradient>
<linearGradient id="paint16_linear_3963_11822" x1="60.3729" y1="37.1827" x2="60.3729" y2="29.4512" gradientUnits="userSpaceOnUse">
<stop stop-color="#22AAE1"/>
<stop offset="1" stop-color="#2B54A5"/>
</linearGradient>
<linearGradient id="paint17_linear_3963_11822" x1="66.4846" y1="37.1836" x2="66.4846" y2="31.9102" gradientUnits="userSpaceOnUse">
<stop stop-color="#22AAE1"/>
<stop offset="1" stop-color="#2B54A5"/>
</linearGradient>
<linearGradient id="paint18_linear_3963_11822" x1="72.0654" y1="37.1836" x2="72.0654" y2="31.7832" gradientUnits="userSpaceOnUse">
<stop stop-color="#22AAE1"/>
<stop offset="1" stop-color="#2B54A5"/>
</linearGradient>
<linearGradient id="paint19_linear_3963_11822" x1="77.3455" y1="37.1828" x2="77.3455" y2="31.7824" gradientUnits="userSpaceOnUse">
<stop stop-color="#22AAE1"/>
<stop offset="1" stop-color="#2B54A5"/>
</linearGradient>
<linearGradient id="paint20_linear_3963_11822" x1="82.1715" y1="37.1732" x2="82.1715" y2="30.3066" gradientUnits="userSpaceOnUse">
<stop stop-color="#22AAE1"/>
<stop offset="1" stop-color="#2B54A5"/>
</linearGradient>
<linearGradient id="paint21_linear_3963_11822" x1="85.0704" y1="0.569885" x2="85.0704" y2="29.8262" gradientUnits="userSpaceOnUse">
<stop stop-color="#22AAE1"/>
<stop offset="1" stop-color="#2B54A5"/>
</linearGradient>
<linearGradient id="paint22_linear_3963_11822" x1="89.0748" y1="37.1836" x2="89.0748" y2="31.7832" gradientUnits="userSpaceOnUse">
<stop stop-color="#22AAE1"/>
<stop offset="1" stop-color="#2B54A5"/>
</linearGradient>
<linearGradient id="paint23_linear_3963_11822" x1="94.8926" y1="0.569003" x2="94.8926" y2="31.7824" gradientUnits="userSpaceOnUse">
<stop stop-color="#22AAE1"/>
<stop offset="1" stop-color="#2B54A5"/>
</linearGradient>
<clipPath id="clip0_3963_11822">
<rect width="96.2786" height="38.8648" fill="white" transform="translate(0.721436 0.568359)"/>
</clipPath>
</defs>
</svg>
