<svg width="147" height="59" viewBox="0 0 147 59" fill="none" xmlns="http://www.w3.org/2000/svg">
<path d="M0 34.7294V4.19318C0 2.86757 0.367409 1.8372 1.10223 1.10208C1.83705 0.366949 2.79571 -0.000409999 3.97822 3.43383e-07C4.61572 0.02514 5.23986 0.190369 5.80629 0.483948C6.43273 0.764978 6.98492 1.18835 7.41893 1.72036L24.4071 24.5148L24.5148 4.19334C24.5148 2.86773 24.8822 1.83736 25.617 1.10223C26.3519 0.367102 27.3465 -0.000307413 28.6009 3.43383e-07C29.7837 3.43383e-07 30.7424 0.36741 31.477 1.10223C32.2117 1.83705 32.5791 2.86742 32.5793 4.19334V34.7294C32.5793 36.0555 32.2119 37.0859 31.477 37.8205C30.7422 38.5551 29.7835 38.9225 28.6009 38.9228C28.0634 38.9228 27.454 38.7436 26.7728 38.3853C26.15 38.0743 25.6004 37.6346 25.1602 37.0953L8.17202 14.6231L8.0643 34.7297C8.0643 36.0558 7.69689 37.0862 6.96207 37.8208C6.22725 38.5554 5.23263 38.9227 3.97822 38.9226C2.7954 38.9226 1.83669 38.5552 1.10208 37.8204C0.367462 37.0855 0.000102586 36.0552 0 34.7294Z" fill="#10A9D9"/>
<path d="M60.1831 26.88H43.7328C43.9828 28.673 44.7802 30.0528 46.125 31.0193C47.4698 31.9859 49.1095 32.4698 51.0441 32.4712C52.2981 32.4712 53.6061 32.1485 54.968 31.5033C58.0148 30.0705 59.61 29.3537 59.7537 29.353C60.6133 29.353 61.366 29.6933 62.0117 30.374C62.6281 30.9858 62.9762 31.8175 62.9796 32.686C62.9796 34.2986 61.6085 35.7949 58.8664 37.1748C56.2121 38.5339 53.2731 39.2434 50.2911 39.2449C45.9911 39.2449 42.4969 37.847 39.8084 35.0511C37.1199 32.2552 35.7761 28.6714 35.7768 24.2995C35.7768 20.2495 37.0848 16.7462 39.7007 13.7896C42.3166 10.833 45.632 9.35459 49.6469 9.35449C53.6253 9.35449 56.9943 10.8955 59.7538 13.9776C62.3343 16.8458 63.6244 19.9998 63.624 23.4397C63.6236 25.7341 62.4766 26.8808 60.1831 26.88ZM43.5173 21.7194H55.8821C55.6666 19.9278 55.0217 18.4942 53.9472 17.4185C52.8727 16.3428 51.4393 15.8052 49.6469 15.8057C47.9617 15.8057 46.5727 16.3523 45.4802 17.4454C44.3877 18.5386 43.7334 19.9632 43.5173 21.7194Z" fill="#10A9D9"/>
<path d="M67.7762 32.472L75.6253 23.548L69.0663 16.236C68.729 15.818 68.4486 15.3571 68.2326 14.8652C68.0175 14.4201 67.8987 13.9346 67.8839 13.4405C67.8839 12.4375 68.2959 11.5594 69.1199 10.8062C69.9439 10.0531 70.8578 9.67682 71.8619 9.67754C72.3941 9.65956 72.922 9.77986 73.3939 10.0267C73.9052 10.3425 74.3673 10.7319 74.7651 11.1825L80.1411 17.9563L85.6249 11.1825C86.4124 10.1795 87.3441 9.67785 88.4199 9.67754C89.4503 9.67401 90.4423 10.0685 91.1888 10.7787C91.7624 11.2696 92.1596 11.9347 92.3197 12.6725C92.4799 13.4103 92.3941 14.1803 92.0756 14.8648C91.8537 15.3592 91.5644 15.8205 91.2159 16.2355L84.657 23.5474L92.506 32.4714C92.8591 32.8224 93.1366 33.2419 93.3215 33.7041C93.5064 34.1663 93.5948 34.6615 93.5812 35.1592C93.5812 36.3064 93.2407 37.2204 92.5597 37.9011C91.8788 38.5819 90.9649 38.9225 89.8181 38.923C89.029 38.923 88.4107 38.7886 87.9634 38.5197C87.4284 38.1698 86.9633 37.7232 86.5922 37.2027L80.141 29.3537L73.7966 37.2027C73.1518 37.9551 72.6052 38.4301 72.1568 38.6274C71.6545 38.8346 71.1146 38.9353 70.5713 38.923C69.4241 38.923 68.4924 38.5826 67.7762 37.9016C67.0601 37.2206 66.7015 36.3066 66.7006 35.1596C66.7188 34.686 66.8286 34.2204 67.0238 33.7884C67.2116 33.3165 67.4649 32.8733 67.7762 32.472Z" fill="#10A9D9"/>
<path d="M101.8 34.6219V16.7732H100.08C99.0759 16.7732 98.2515 16.4687 97.6065 15.8595C96.9616 15.2504 96.6391 14.408 96.6391 13.3325C96.6258 12.8861 96.7077 12.4419 96.8791 12.0295C97.0506 11.6171 97.3078 11.2458 97.6336 10.9403C98.2923 10.315 99.1723 9.97674 100.08 9.99998H101.801V5.37625C101.801 4.08572 102.159 3.04632 102.876 2.25806C103.593 1.46979 104.524 1.0755 105.671 1.0752C106.818 1.0752 107.749 1.46948 108.467 2.25806C109.184 3.04663 109.543 4.08603 109.542 5.37625V9.99983H111.8C112.875 9.99983 113.753 10.2595 114.435 10.7789C115.116 11.2983 115.456 12.1495 115.456 13.3324C115.456 14.4801 115.115 15.3403 114.435 15.9129C113.754 16.4855 112.876 16.7723 111.8 16.7731H109.542V34.6219C109.542 35.9119 109.183 36.9513 108.466 37.7401C107.75 38.5289 106.818 38.9232 105.671 38.923C104.524 38.923 103.592 38.5287 102.875 37.7401C102.159 36.9515 101.801 35.9121 101.8 34.6219Z" fill="#10A9D9"/>
<path d="M146.431 14.7304V33.8691C146.431 35.3741 146.287 36.4494 146 37.095C145.426 38.3134 144.315 38.9226 142.667 38.9226C141.592 38.9226 140.785 38.6538 140.248 38.116C139.71 37.5783 139.298 36.7359 139.012 35.589C138.064 36.6993 136.914 37.6204 135.624 38.3039C134.376 38.9383 132.993 39.2613 131.593 39.2453C127.973 39.2453 124.935 37.8386 122.48 35.0251C120.026 32.2115 118.798 28.6364 118.798 24.2997C118.798 20.071 120.034 16.5226 122.507 13.6547C124.98 10.7869 128.008 9.35338 131.592 9.35431C133.045 9.33619 134.484 9.6295 135.813 10.2145C137.103 10.8036 138.209 11.7327 139.012 12.9023C139.05 12.4521 139.176 12.0138 139.383 11.6125C139.591 11.2112 139.876 10.8548 140.221 10.5636C140.901 9.97904 141.771 9.66378 142.668 9.67745C144.315 9.67745 145.409 10.2509 145.947 11.3978C146.27 12.0784 146.431 13.1892 146.431 14.7304ZM126.539 24.2997C126.539 26.4149 127.023 28.189 127.99 29.6218C129.137 31.307 130.696 32.1494 132.668 32.1488C134.568 32.1488 136.073 31.3245 137.184 29.6759C138.187 28.1705 138.689 26.3785 138.69 24.2999C138.69 22.2569 138.206 20.5008 137.238 19.0316C136.091 17.3107 134.568 16.4503 132.668 16.4504C130.733 16.4504 129.192 17.2927 128.045 18.9774C127.041 20.4827 126.539 22.2568 126.539 24.2997Z" fill="#10A9D9"/>
<path d="M0 43.7012H0.64075V54.8178H0V43.7012Z" fill="#10A9D9"/>
<path d="M9.22493 49.7898V54.8171H8.5691V49.8518C8.5691 49.0196 8.39983 48.4111 8.0613 48.0262C7.72277 47.6413 7.18419 47.4486 6.44558 47.4481C5.60294 47.4481 4.92911 47.7029 4.42408 48.2125C3.91905 48.7222 3.66674 49.4092 3.66715 50.2736V54.817H3.0264V49.1655C3.03227 48.4455 2.99079 47.7258 2.90222 47.0112H3.52635L3.63561 48.4941C3.83822 47.9721 4.21215 47.5343 4.69614 47.2526C5.20955 46.961 5.79213 46.8132 6.38249 46.8249C8.27694 46.8246 9.22441 47.8129 9.22493 49.7898Z" fill="#10A9D9"/>
<path d="M17.6246 49.7898V54.8171H16.9688V49.8518C16.9688 49.0196 16.7996 48.4111 16.461 48.0262C16.1225 47.6413 15.5839 47.4486 14.8453 47.4481C14.0027 47.4481 13.3288 47.7029 12.8238 48.2125C12.3188 48.7222 12.0665 49.4092 12.0669 50.2736V54.817H11.4261V49.1655C11.432 48.4455 11.3905 47.7258 11.3019 47.0112H11.9271L12.0364 48.4941C12.239 47.9721 12.613 47.5343 13.0969 47.2526C13.6103 46.961 14.1929 46.8132 14.7833 46.8249C16.6768 46.8246 17.6239 47.8129 17.6246 49.7898Z" fill="#10A9D9"/>
<path d="M21.4486 54.4274C20.9093 54.0846 20.483 53.5906 20.2227 53.0071C19.9248 52.3339 19.7785 51.6034 19.7943 50.8674C19.7779 50.1342 19.9242 49.4065 20.2227 48.7366C20.4847 48.1562 20.9109 47.6651 21.4486 47.3239C21.9974 46.9862 22.6315 46.813 23.2758 46.8249C23.9172 46.8123 24.5486 46.9856 25.0938 47.3239C25.6281 47.667 26.0514 48.1577 26.3123 48.7366C26.6111 49.4064 26.7577 50.1341 26.7416 50.8674C26.757 51.6035 26.6105 52.3339 26.3123 53.0071C26.0531 53.5891 25.6297 54.0827 25.0938 54.4274C24.5488 54.766 23.9173 54.9395 23.2758 54.9269C22.6315 54.9388 21.9973 54.7654 21.4486 54.4274ZM25.3122 53.3964C25.7962 52.8032 26.0385 51.9601 26.0391 50.8669C26.0391 49.8063 25.7943 48.9737 25.3047 48.369C24.815 47.7644 24.1387 47.4625 23.2756 47.4633C22.4114 47.4633 21.7321 47.7627 21.2376 48.3616C20.7432 48.9605 20.4964 49.7957 20.4972 50.8671C20.4972 51.9712 20.7365 52.817 21.215 53.4045C21.6936 53.992 22.3749 54.286 23.259 54.2863C24.1448 54.2862 24.8292 53.9895 25.3122 53.3964Z" fill="#10A9D9"/>
<path d="M36.2823 47.0107L32.9573 54.8171H32.1929L28.8983 47.0107H29.6008L32.5982 54.2235L35.6116 47.0107H36.2823Z" fill="#10A9D9"/>
<path d="M45.3092 47.01V54.8164H44.6524V53.2551C44.4446 53.772 44.0749 54.2075 43.5988 54.4966C43.0852 54.7936 42.4992 54.9423 41.9061 54.926C41.2602 54.94 40.6237 54.7691 40.0716 54.4335C39.5365 54.0948 39.1128 53.6063 38.8532 53.0288C38.569 52.3526 38.4234 51.6262 38.4248 50.8927C38.4263 50.1592 38.5748 49.4335 38.8616 48.7584C39.1258 48.1755 39.5507 47.68 40.0865 47.3301C40.6306 46.9871 41.2631 46.811 41.9061 46.8235C42.4981 46.8072 43.0832 46.9526 43.5988 47.2439C44.0754 47.5288 44.4455 47.9621 44.6524 48.4774V47.01H45.3092ZM43.9344 53.3881C44.4134 52.7899 44.6527 51.9493 44.6522 50.8662C44.6522 49.7735 44.413 48.9334 43.9344 48.3457C43.4558 47.7579 42.7795 47.4635 41.9054 47.4624C41.0311 47.4624 40.3493 47.7643 39.8599 48.3681C39.3704 48.9719 39.126 49.8152 39.1265 50.898C39.1265 51.9702 39.3734 52.8026 39.8674 53.3955C40.3613 53.9883 41.0457 54.2849 41.9204 54.2852C42.7846 54.2855 43.4559 53.9866 43.9344 53.3884V53.3881Z" fill="#10A9D9"/>
<path d="M49.5247 47.5718V52.552C49.5247 53.2188 49.6471 53.674 49.8919 53.9176C50.1366 54.1613 50.4984 54.2836 50.977 54.2848C51.2742 54.287 51.5696 54.2398 51.8512 54.1451V54.7838C51.5459 54.8669 51.2309 54.9091 50.9144 54.9095C50.2897 54.9095 49.7925 54.7351 49.423 54.3863C49.0535 54.0375 48.8688 53.499 48.869 52.7706V47.5718H47.3078V47.0102H48.8689V44.8874L49.5247 44.6064V47.0102H51.8978V47.5718H49.5247Z" fill="#10A9D9"/>
<path d="M54.9594 43.8877V44.8879H53.9438V43.8877H54.9594ZM54.1163 47.0103H54.7564V54.8167H54.1163V47.0103Z" fill="#10A9D9"/>
<path d="M63.2167 49.7898V54.8171H62.5609V49.8518C62.5609 49.0196 62.3916 48.4111 62.0531 48.0262C61.7146 47.6413 61.176 47.4486 60.4374 47.4481C59.5952 47.4481 58.9214 47.7029 58.4159 48.2125C57.9103 48.7222 57.658 49.4092 57.6589 50.2736V54.817H57.0187V49.1655C57.0243 48.4454 56.9826 47.7258 56.8939 47.0112H57.5191L57.6283 48.4941C57.8309 47.9721 58.2049 47.5343 58.6889 47.2526C59.2023 46.961 59.7848 46.8132 60.3752 46.8249C62.2696 46.8246 63.2167 47.8129 63.2167 49.7898Z" fill="#10A9D9"/>
<path d="M72.3351 47.0102V54.9259C72.3351 56.0386 72.0721 56.8793 71.5461 57.4478C71.02 58.0144 70.2419 58.2976 69.2119 58.2975C68.0466 58.2975 67.0475 58.0063 66.2145 57.4238L66.3542 56.7995C66.7956 57.0738 67.2671 57.2964 67.7594 57.4629C68.2415 57.6015 68.7417 57.667 69.2433 57.6572C70.0434 57.6572 70.6521 57.4311 71.0693 56.9789C71.4866 56.5267 71.6948 55.8683 71.6941 55.0036V52.8647C71.4901 53.3965 71.117 53.8466 70.6323 54.1457C70.1063 54.449 69.5064 54.6003 68.8995 54.5826C68.2567 54.5945 67.6238 54.4241 67.0739 54.0911C66.5389 53.7588 66.1086 53.2823 65.8324 52.7163C65.5393 52.0827 65.3875 51.393 65.3875 50.6948C65.3875 49.9967 65.5393 49.307 65.8324 48.6733C66.1072 48.1084 66.538 47.634 67.0739 47.3061C67.6258 46.9789 68.258 46.8119 68.8995 46.8237C69.4972 46.8059 70.0885 46.9513 70.6099 47.2441C71.0883 47.5313 71.4629 47.9633 71.6795 48.4776V47.0102H72.3351ZM70.9375 53.0606C71.4314 52.4824 71.6787 51.6938 71.6795 50.6948C71.6795 49.6849 71.4321 48.8936 70.9375 48.3211C70.4428 47.7486 69.7635 47.4624 68.8995 47.4625C68.0253 47.4625 67.3384 47.7487 66.8389 48.3211C66.3394 48.8935 66.0899 49.6848 66.0905 50.6948C66.0905 51.7048 66.3399 52.4958 66.8389 53.068C67.3379 53.6401 68.0248 53.9263 68.8995 53.9266C69.7636 53.927 70.4428 53.6385 70.9373 53.061L70.9375 53.0606Z" fill="#10A9D9"/>
<path d="M78.1241 43.7012H84.8058V44.3099H78.7794V48.8684H84.4932V49.4936H78.7794V54.2084H84.8057V54.8178H78.1241V43.7012Z" fill="#10A9D9"/>
<path d="M93.9242 43.3262V54.8169H93.2675V53.2552C93.0597 53.772 92.69 54.2075 92.2139 54.4967C91.7003 54.7937 91.1143 54.9423 90.5212 54.926C89.8782 54.9385 89.2455 54.7622 88.7016 54.419C88.1641 54.0672 87.739 53.5685 87.4767 52.9822C87.19 52.3087 87.0414 51.5844 87.0399 50.8524C87.0383 50.1204 87.1838 49.3956 87.4677 48.7208C87.7272 48.143 88.1511 47.6543 88.6865 47.3156C89.2388 46.9806 89.8752 46.8101 90.5211 46.8241C91.113 46.8079 91.6982 46.9532 92.2137 47.2445C92.6903 47.5295 93.0604 47.9627 93.2673 48.478V43.3262H93.9242ZM92.5495 53.3884C93.0285 52.7903 93.2678 51.9496 93.2675 50.8665C93.2672 49.7834 93.0278 48.9458 92.5495 48.3535C92.0705 47.7604 91.3992 47.4634 90.5355 47.4627C89.6613 47.4627 88.9769 47.7571 88.4825 48.346C87.988 48.9348 87.741 49.7648 87.7416 50.8359C87.7416 51.9185 87.9885 52.7638 88.4825 53.3718C88.9764 53.982 89.6558 54.2866 90.5204 54.2857C91.3942 54.2857 92.0705 53.9866 92.5495 53.3884Z" fill="#10A9D9"/>
<path d="M102.181 47.0107V54.8171H101.557V53.3342C101.322 53.827 100.944 54.2375 100.472 54.512C99.9857 54.7918 99.4325 54.9347 98.8713 54.9258C97.9771 54.9258 97.2952 54.6733 96.8258 54.1682C96.3584 53.6642 96.1243 52.9228 96.1234 51.9439V47.0107H96.7636V51.8818C96.7636 52.7039 96.9329 53.3101 97.2714 53.7003C97.61 54.0905 98.1275 54.2857 98.8241 54.286C99.6462 54.286 100.305 54.0285 100.8 53.5135C101.295 52.9985 101.542 52.3142 101.54 51.4604V47.0107H102.181Z" fill="#10A9D9"/>
<path d="M106.092 54.4266C105.548 54.0857 105.115 53.5951 104.843 53.0138C104.535 52.3522 104.382 51.6285 104.398 50.8986C104.384 50.1634 104.536 49.4345 104.843 48.7665C105.114 48.1762 105.55 47.6773 106.1 47.3306C106.668 46.9854 107.324 46.8097 107.989 46.8241C108.496 46.8211 109 46.9162 109.471 47.1041C109.912 47.2727 110.311 47.5335 110.643 47.869L110.33 48.4307C109.97 48.1287 109.571 47.8765 109.144 47.6807C108.779 47.5255 108.386 47.4461 107.989 47.4473C107.094 47.4473 106.388 47.7569 105.874 48.3761C105.359 48.9953 105.102 49.8409 105.101 50.9131C105.101 51.9751 105.356 52.8026 105.866 53.3954C106.376 53.9883 107.079 54.2848 107.974 54.2852C108.373 54.2866 108.768 54.2097 109.137 54.0586C109.569 53.8698 109.971 53.6199 110.332 53.3166L110.644 53.8632C110.299 54.2043 109.887 54.4703 109.433 54.6443C108.969 54.8297 108.474 54.925 107.975 54.9253C107.312 54.9411 106.659 54.7681 106.092 54.4266Z" fill="#10A9D9"/>
<path d="M119.388 47.01V54.8164H118.732V53.2551C118.524 53.7719 118.154 54.2075 117.678 54.4966C117.164 54.7936 116.578 54.9423 115.985 54.926C115.339 54.9399 114.703 54.769 114.151 54.4335C113.616 54.0948 113.192 53.6063 112.932 53.0288C112.648 52.3526 112.502 51.6262 112.504 50.8927C112.506 50.1591 112.654 49.4334 112.941 48.7584C113.205 48.1754 113.63 47.6799 114.166 47.3301C114.71 46.9871 115.342 46.811 115.985 46.8235C116.577 46.8072 117.162 46.9526 117.678 47.2439C118.155 47.5288 118.525 47.9621 118.732 48.4774V47.01H119.388ZM118.014 53.3881C118.493 52.7899 118.732 51.9493 118.731 50.8662C118.731 49.7735 118.492 48.9334 118.014 48.3457C117.535 47.7579 116.859 47.4635 115.985 47.4624C115.11 47.4624 114.429 47.7643 113.939 48.3681C113.45 48.9719 113.205 49.8152 113.206 50.898C113.206 51.9702 113.453 52.8026 113.947 53.3955C114.44 53.9883 115.125 54.2849 116 54.2852C116.864 54.2855 117.535 53.9866 118.014 53.3884V53.3881Z" fill="#10A9D9"/>
<path d="M123.604 47.5718V52.552C123.604 53.2188 123.726 53.674 123.971 53.9176C124.216 54.1613 124.578 54.2836 125.056 54.2848C125.353 54.287 125.649 54.2398 125.93 54.1451V54.7838C125.625 54.8669 125.31 54.9091 124.994 54.9095C124.369 54.9095 123.871 54.7351 123.501 54.3863C123.132 54.0375 122.947 53.499 122.947 52.7706V47.5718H121.387V47.0102H122.949V44.8874L123.604 44.6064V47.0102H125.978V47.5718H123.604Z" fill="#10A9D9"/>
<path d="M129.039 43.8877V44.8879H128.023V43.8877H129.039ZM128.195 47.0103H128.835V54.8167H128.195V47.0103Z" fill="#10A9D9"/>
<path d="M132.722 54.4274C132.183 54.0845 131.757 53.5905 131.496 53.0071C131.199 52.3337 131.053 51.6033 131.068 50.8674C131.052 50.1343 131.198 49.4066 131.496 48.7366C131.758 48.1563 132.185 47.6652 132.722 47.3239C133.271 46.9862 133.905 46.813 134.55 46.8248C135.191 46.8124 135.822 46.9857 136.368 47.3239C136.902 47.6669 137.325 48.1577 137.586 48.7366C137.885 49.4065 138.031 50.1342 138.015 50.8674C138.031 51.6034 137.884 52.3339 137.586 53.0071C137.327 53.5891 136.903 54.0827 136.368 54.4274C135.823 54.7659 135.191 54.9394 134.55 54.9268C133.905 54.9388 133.271 54.7654 132.722 54.4274ZM136.586 53.3964C137.07 52.8032 137.312 51.9601 137.312 50.8669C137.312 49.8063 137.068 48.9737 136.578 48.369C136.089 47.7644 135.413 47.4625 134.549 47.4633C133.685 47.4633 133.006 47.7627 132.511 48.3616C132.017 48.9605 131.77 49.7957 131.77 50.8671C131.77 51.9712 132.01 52.817 132.488 53.4045C132.967 53.992 133.648 54.2859 134.533 54.2863C135.418 54.2862 136.102 53.9895 136.586 53.3964Z" fill="#10A9D9"/>
<path d="M146.431 49.7898V54.8171H145.775V49.8518C145.775 49.0196 145.606 48.4111 145.267 48.0262C144.929 47.6413 144.39 47.4486 143.651 47.4481C142.809 47.4481 142.135 47.7029 141.63 48.2125C141.125 48.7222 140.872 49.4092 140.872 50.2736V54.817H140.232V49.1655C140.238 48.4455 140.196 47.7258 140.108 47.0112H140.732L140.842 48.4941C141.045 47.9721 141.419 47.5343 141.903 47.2526C142.416 46.961 142.998 46.8132 143.589 46.8249C145.483 46.8246 146.431 47.8129 146.431 49.7898Z" fill="#10A9D9"/>
</svg>
