<svg width="438" height="260" viewBox="0 0 438 260" fill="none" xmlns="http://www.w3.org/2000/svg">
<g clip-path="url(#clip0_167_32202)">
<g clip-path="url(#clip1_167_32202)">
<mask id="mask0_167_32202" style="mask-type:luminance" maskUnits="userSpaceOnUse" x="-1" y="1" width="553" height="260">
<path d="M356.122 260.001L358.332 260.001C367.973 252.238 377.643 245.001 387.327 241.105C397.944 236.834 408.66 236.634 419.52 244.368C423.425 247.148 427.416 250.132 431.469 253.25C434.309 255.435 437.191 257.694 440.1 260.001L442.325 260.001C439.151 257.481 436.002 255.006 432.881 252.605C428.822 249.482 424.821 246.49 420.891 243.693C409.259 235.41 397.752 235.637 386.328 240.232C376.155 244.324 366.115 251.926 356.122 260.001ZM328.783 260.001L331.14 260.001C335.873 256.73 340.591 253.222 345.299 249.718C355.473 242.148 365.625 234.597 375.771 229.58C390.199 222.445 404.713 220.453 419.522 230.998C430.025 238.477 441.112 247.395 452.473 256.533L456.786 260L459.002 260L453.911 255.907C442.551 246.768 431.46 237.848 420.889 230.322C405.197 219.148 389.858 221.237 374.63 228.767C364.333 233.859 354.129 241.45 343.902 249.059C338.872 252.801 333.833 256.55 328.781 260L328.783 260.001ZM288.532 260.001L292.69 260.001C307.817 255.097 322.415 245.079 336.838 235.18C347.017 228.194 357.113 221.264 367.179 216.286C384.442 207.749 401.728 204.959 419.522 217.628C430.058 225.13 441.135 234.039 452.484 243.166L452.484 243.169C459.464 248.782 466.548 254.479 473.697 260.001L475.943 260.001C468.556 254.312 461.179 248.38 453.915 242.538C442.535 233.388 431.43 224.457 420.889 216.952C402.197 203.642 384.095 206.545 366.04 215.474C355.855 220.511 345.714 227.47 335.49 234.488C320.57 244.728 305.463 255.098 289.964 259.651C289.506 259.774 289.025 259.889 288.532 260L288.532 260.001ZM-0.000211035 222.912L-0.000211008 223.541C19.4556 230.97 40.0547 237.859 61.0203 244.172C80.1648 249.938 99.6165 255.224 118.783 260.001L123.411 260.001C103.016 254.98 82.2448 249.378 61.8234 243.227C40.7435 236.879 20.03 229.946 0.480536 222.466L-0.000211035 222.912ZM-0.000211621 209.514L-0.000211593 210.147C27.5897 220.855 57.5628 230.626 87.5826 239.188C115.992 247.291 144.436 254.305 170.937 260.001L176.216 260.001C148.439 254.144 118.371 246.798 88.3499 238.235C58.2474 229.65 28.1724 219.836 0.488801 209.07L-0.000211621 209.513L-0.000211621 209.514ZM-0.000212202 196.225L-0.000212174 196.86C52.9784 217.821 114.922 235.83 168.581 247.639C194.331 253.306 218.193 257.544 238.281 260.001L247.676 260.001C226.057 257.82 198.915 253.183 169.204 246.644C115.476 234.82 53.4468 216.777 0.495688 195.785L-0.000212202 196.224L-0.000212202 196.225ZM-0.000212778 183.042L-0.00021275 183.682C53.4978 205.327 116.4 224.464 170.093 236.216C221.582 247.486 264.711 251.964 283.197 245.381L283.221 245.373C298.292 239.596 312.741 230.3 326.912 221.183C337.193 214.568 347.328 208.046 357.392 203.07C377.932 192.913 398.323 189.162 419.52 204.257C430.019 211.734 441.103 220.647 452.458 229.78L452.462 229.78C465.354 240.149 478.601 250.803 491.8 260.001L494.142 260.001C480.647 250.67 467.084 239.763 453.893 229.156L453.896 229.156C442.54 220.02 431.455 211.106 420.888 203.581C398.776 187.836 377.578 191.712 356.252 202.257C346.079 207.288 335.91 213.83 325.598 220.466C311.503 229.534 297.133 238.78 282.256 244.482C264.258 250.873 221.696 246.382 170.706 235.221C116.97 223.459 53.9868 204.284 0.502575 182.604L-0.000212778 183.042ZM-0.000213349 169.979L-0.000213321 170.623C53.2567 192.722 116.065 212.791 169.227 224.337C216.953 234.702 257.011 238.198 275.646 230.159L275.666 230.148C289.261 223.886 302.294 215.862 315.017 208.03C325.722 201.44 336.209 194.984 346.579 189.856C370.812 177.873 394.558 173.11 419.522 190.886C430.021 198.362 441.106 207.278 452.463 216.413C472.314 232.38 493.006 249.021 513.099 260.001L515.752 260.001C495.335 249.113 474.179 232.098 453.9 215.787C442.541 206.651 431.456 197.734 420.889 190.21C394.999 171.775 370.456 176.672 345.438 189.044C334.98 194.215 324.463 200.689 313.73 207.297C301.057 215.099 288.074 223.091 274.598 229.3C256.497 237.108 217.026 233.592 169.833 223.342C116.637 211.789 53.7498 191.677 0.509462 169.545L-0.000213349 169.978L-0.000213349 169.979ZM-0.000213914 157.063L-0.000213885 157.714C52.4646 180.103 114.412 200.908 166.683 212.137C211.445 221.753 249.207 224.348 268.078 214.937L268.098 214.929C279.208 209.061 289.944 202.573 300.412 196.248C312.312 189.056 323.868 182.073 335.23 176.455C363.441 162.505 390.615 156.933 419.522 177.517C430.022 184.993 441.095 193.898 452.441 203.021C485.073 229.261 519.966 257.32 550.916 259.115L551 258.589L551 258.057C520.867 256.261 486.249 228.425 453.871 202.39C442.52 193.262 431.441 184.353 420.889 176.839C391.053 155.593 363.09 161.299 334.09 175.64C322.649 181.298 311.065 188.297 299.14 195.504C288.709 201.808 278.008 208.274 266.91 214.135L266.91 214.136C248.594 223.256 211.46 220.629 167.289 211.14C114.998 199.907 52.9702 179.053 0.519104 156.633L-0.000213914 157.063L-0.000213914 157.063ZM-0.000214471 144.313L-0.000214442 144.971C51.3006 167.534 111.854 188.887 162.994 199.713C205.351 208.68 241.341 210.432 260.499 199.72L260.515 199.709C267.841 195.405 274.985 191.034 281.982 186.753C296.556 177.838 310.508 169.303 324.112 162.575C356.334 146.64 386.763 140.82 419.522 164.145C430.022 171.622 441.095 180.527 452.441 189.65C485.074 215.892 519.967 243.95 550.917 245.745L551.001 245.219L551.001 244.686C520.868 242.891 486.25 215.055 453.872 189.019C442.522 179.891 431.442 170.982 420.891 163.469C387.208 139.485 355.997 145.43 322.974 161.762C309.283 168.532 295.307 177.083 280.705 186.015C273.716 190.292 266.58 194.656 259.278 198.948C240.688 209.343 205.338 207.552 163.596 198.715C112.444 187.886 51.8172 166.481 0.530123 143.888L-0.000214471 144.313L-0.000214471 144.313ZM-0.000215021 131.74L-0.000214991 132.405C49.8818 155.062 108.671 176.778 158.529 187.133C198.869 195.513 233.436 196.46 252.913 184.503L252.923 184.495L258.019 181.228C277.727 168.588 296.129 156.786 313.87 148.013C349.89 130.201 383.229 124.933 419.52 150.775C430.021 158.252 441.093 167.157 452.44 176.28C485.073 202.521 519.966 230.58 550.916 232.375L551 231.849L551 231.317C520.867 229.521 486.249 201.685 453.871 175.65C442.52 166.522 431.441 157.613 420.889 150.099C383.69 123.61 349.571 128.983 312.732 147.201C294.914 156.011 276.468 167.841 256.715 180.511L251.629 183.771C232.723 195.376 198.81 194.381 159.116 186.135C109.273 175.782 50.4149 154.007 0.539765 131.318L-0.000215021 131.738L-0.000215021 131.74ZM-0.000215561 119.367L-0.000215532 120.041C48.3032 142.729 105.074 164.629 153.532 174.447C192.129 182.268 225.509 182.435 245.315 169.293L245.326 169.286C278.302 146.614 307.452 128.25 335.586 120.785C363.492 113.38 390.514 116.75 419.52 137.406C430.021 144.882 441.093 153.787 452.44 162.91C485.073 189.152 519.966 217.21 550.916 219.005L551 218.479L551 217.947C520.867 216.151 486.249 188.315 453.871 162.279C442.52 153.151 431.441 144.243 420.889 136.73C391.252 115.626 363.544 112.209 334.86 119.819C306.407 127.368 277.099 145.822 243.977 168.594C224.739 181.351 192.027 181.128 154.102 173.444C105.677 163.631 48.8432 141.669 0.554917 118.952L-0.000215561 119.366L-0.000215561 119.367ZM-0.000216093 107.216L-0.000216063 107.9C46.6116 130.559 101.202 152.463 148.172 161.682C185.225 168.955 217.588 168.354 237.719 154.083L237.726 154.077C272.446 128.735 302.865 110.406 332.141 103.85C361.213 97.341 389.274 102.497 419.52 124.036C430.021 131.513 441.093 140.418 452.44 149.541C485.073 175.782 519.966 203.841 550.916 205.636L551 205.11L551 204.578C520.867 202.782 486.249 174.946 453.871 148.911C442.52 139.783 431.441 130.874 420.889 123.36C390.062 101.409 361.35 96.1787 331.512 102.859C301.883 109.493 271.254 127.93 236.353 153.404C216.785 167.275 185.096 167.814 148.733 160.676C101.8 151.463 47.1544 129.492 0.565936 106.807L-0.000216093 107.215L-0.000216093 107.216ZM-0.000216613 95.3073L-0.000216583 96.0013C7.10631 99.5767 14.4387 103.15 21.9406 106.669C59.4444 124.267 100.26 140.069 137.04 147.756C174.069 155.493 207.049 155.027 228.597 139.975C229.075 139.64 229.584 139.273 230.117 138.873L230.124 138.869C266.591 110.857 298.279 92.5584 328.695 86.9117C358.932 81.2986 388.035 88.2449 419.522 110.666C430.022 118.142 441.095 127.047 452.441 136.17C485.074 162.412 519.967 190.47 550.917 192.265L551.001 191.739L551.001 191.207C520.868 189.411 486.25 161.575 453.872 135.539C442.522 126.411 431.442 117.502 420.891 109.989C388.872 87.188 359.153 80.1468 328.164 85.8998C297.352 91.62 265.4 110.041 228.713 138.221C228.263 138.56 227.765 138.918 227.235 139.29C206.267 153.938 173.968 154.349 137.634 146.756C101.052 139.111 60.41 123.372 23.044 105.84C15.4388 102.271 7.92454 98.6048 0.576956 94.9011L0.00116089 95.3049L-0.000216613 95.3073ZM-0.000217122 83.6592L-0.000217092 84.3622C13.3188 91.2939 27.2977 98.1282 41.5521 104.493C74.3627 119.142 108.632 131.308 139.666 136.476C170.912 141.68 198.897 139.81 218.89 126.31C220.127 125.474 221.336 124.591 222.513 123.664L222.517 123.662C260.734 92.9785 293.697 74.7086 325.25 69.9709C356.655 65.2553 386.799 73.9926 419.522 97.2936C430.022 104.77 441.095 113.675 452.441 122.798C485.074 149.04 519.967 177.098 550.917 178.893L551.001 178.367L551.001 177.835C520.868 176.039 486.25 148.203 453.872 122.167C442.522 113.039 431.442 104.13 420.891 96.6168C387.676 72.9659 356.957 64.1158 324.817 68.9418C292.822 73.7457 259.551 92.1489 221.086 123.031C219.94 123.935 218.759 124.795 217.551 125.613C198.095 138.75 170.742 140.55 140.151 135.455C109.347 130.325 75.2733 118.223 42.6224 103.646C28.1986 97.2062 14.0517 90.2803 0.587975 83.2595L0.00253788 83.6576L-0.000217122 83.6592ZM-0.000217619 72.2875L-0.000217588 73.0019C16.8535 82.062 34.7734 90.9048 52.9564 98.6759C81.8522 111.026 111.411 120.668 138.421 124.183C165.611 127.721 190.227 125.07 209.027 112.779C211.051 111.457 213.012 110.017 214.904 108.459L214.908 108.456C254.874 75.1018 289.115 56.8588 321.804 53.0284C354.378 49.212 385.563 59.7435 419.52 83.9241C430.021 91.4017 441.096 100.307 452.442 109.431C485.075 135.671 519.966 163.728 550.916 165.523L551 164.996L551 164.464C520.867 162.668 486.252 134.835 453.875 108.799C442.523 99.6715 431.441 90.7609 420.889 83.2473C386.479 58.7446 354.756 48.0872 321.463 51.9879C288.287 55.8747 253.698 74.2574 213.454 107.841C211.613 109.359 209.695 110.765 207.709 112.065C189.405 124.031 165.374 126.603 138.798 123.145C112.044 119.663 82.7076 110.088 53.9964 97.816C35.6701 89.9835 17.5918 81.0468 0.600372 71.8943L-0.000217619 72.2858L-0.000217619 72.2875ZM-0.000218104 61.2042L-0.000218072 61.926C18.6525 72.2564 38.6015 82.2108 58.7323 90.4879C84.508 101.085 110.605 108.943 134.711 111.345C158.966 113.762 181.199 110.671 199.071 99.3347C201.93 97.5209 204.678 95.4953 207.297 93.2515L207.297 93.2499C249.013 57.225 284.531 39.0082 318.362 36.0844C352.103 33.1687 384.329 45.4944 419.52 70.5529C430.021 78.0306 441.096 86.9354 452.442 96.0593C485.075 122.3 519.966 150.357 550.916 152.153L551 151.627L551 151.095C520.867 149.298 486.25 121.464 453.874 95.4291C442.522 86.3011 431.441 77.3913 420.889 69.8777C385.281 44.5217 352.554 32.0595 318.11 35.0373C283.757 38.0061 247.852 56.3659 205.831 92.6524C203.258 94.8561 200.567 96.8408 197.77 98.6146C180.364 109.655 158.68 112.662 135.003 110.303C111.179 107.929 85.3194 100.136 59.7433 89.6198C39.4652 81.2831 19.3702 71.2363 0.607259 60.82L-0.000218104 61.2058L-0.000218104 61.2042ZM-0.000218575 50.4201L-0.000218543 51.1533C19.282 62.1181 39.9473 72.5302 60.7475 80.7902C84.0452 90.0424 107.525 96.5988 129.452 98.223C151.501 99.8562 171.964 96.513 189.081 85.9415C192.78 83.6568 196.324 81.0329 199.688 78.0485L199.692 78.0461C243.16 39.3483 279.956 21.156 314.924 19.1378C349.831 17.1229 383.099 31.2469 419.522 57.1825C430.022 64.6602 441.097 73.5642 452.444 82.689C485.077 108.929 519.967 136.986 550.917 138.783L551.001 138.256L551.001 137.724C520.868 135.928 486.252 108.093 453.875 82.0588C442.523 72.9307 431.442 64.021 420.891 56.5065C384.084 30.2971 350.352 16.0309 314.756 18.085C279.222 20.1359 241.999 38.4729 198.204 77.4608C194.901 80.3904 191.423 82.9661 187.794 85.2066C171.118 95.506 151.169 98.7609 129.667 97.1694C108.038 95.5673 84.8152 89.0754 61.7393 79.9106C40.8137 71.6008 20.0093 61.093 0.616901 50.0376L-0.000218575 50.4185L-0.000218575 50.4201ZM0.623789 39.5478C32.546 58.1528 68.2563 74.7503 101.927 81.2078C135.365 87.6212 166.836 83.9927 190.581 62.2676C236.15 20.5789 274.686 2.26651 311.395 1.1344C348.142 0.00146747 382.88 16.0701 420.888 43.1353C431.44 50.6498 442.52 59.5587 453.872 68.6876C486.249 94.7229 520.866 122.556 550.998 124.353L550.998 124.885L550.914 125.412C519.965 123.616 485.074 95.5591 452.441 69.3178C441.095 60.1939 430.021 51.289 419.519 43.8113C381.868 17.0003 347.56 1.07881 311.486 2.19049C275.374 3.3038 237.298 21.4715 192.076 62.8431C167.786 85.0644 135.593 88.7754 101.381 82.2141C67.624 75.7402 31.9316 59.2195 -0.0015965 40.6643L-0.00159653 39.9246L0.622411 39.5478L0.623789 39.5478Z" fill="white"/>
</mask>
<g mask="url(#mask0_167_32202)">
<path opacity="0.5" d="M-74 3.05176e-05L-74 260L477 260L477 6.4326e-06L-74 3.05176e-05Z" fill="#FFC709"/>
</g>
</g>
</g>
<defs>
<clipPath id="clip0_167_32202">
<rect width="438" height="260" fill="white"/>
</clipPath>
<clipPath id="clip1_167_32202">
<rect width="260" height="551" fill="white" transform="translate(0 260) rotate(-90)"/>
</clipPath>
</defs>
</svg>
