<svg width="768" height="629" viewBox="0 0 768 629" fill="none" xmlns="http://www.w3.org/2000/svg">
<g clip-path="url(#clip0_9_40)">
<path d="M0 0H768V589C768 611.091 750.091 629 728 629H40C17.9086 629 0 611.091 0 589V0Z" fill="white"/>
<path d="M0 0H768V589C768 611.091 750.091 629 728 629H40C17.9086 629 0 611.091 0 589V0Z" fill="url(#paint0_linear_9_40)"/>
<path opacity="0.37" d="M708.152 529.208L698.403 528.538" stroke="white" stroke-width="1.3816" stroke-miterlimit="10" stroke-linecap="round"/>
<path opacity="0.37" d="M698.977 519.681L708.726 520.352" stroke="white" stroke-width="1.3816" stroke-miterlimit="10" stroke-linecap="round"/>
<path opacity="0.37" d="M708.726 520.351L708.151 529.237C708.069 530.563 709.027 531.718 710.301 531.804L744.654 534.228C745.927 534.314 747.036 533.316 747.119 531.989L747.694 523.104C747.776 521.777 746.817 520.622 745.544 520.536L711.191 518.112C709.917 518.012 708.808 519.025 708.726 520.351Z" stroke="white" stroke-width="1.3816" stroke-miterlimit="10" stroke-linecap="round"/>
<path opacity="0.37" d="M696.9 533.712C703.101 517.664 695.639 499.42 680.234 492.961C664.829 486.502 647.314 494.274 641.113 510.321C634.912 526.369 642.374 544.613 657.779 551.072C673.185 557.531 690.7 549.759 696.9 533.712Z" stroke="white" stroke-width="1.3816" stroke-miterlimit="10" stroke-linecap="round"/>
<path opacity="0.37" d="M689.367 530.963C694.104 519.238 688.819 505.733 677.563 500.798C666.307 495.864 653.342 501.369 648.605 513.094C643.867 524.819 649.152 538.324 660.408 543.259C671.664 548.194 684.63 542.689 689.367 530.963Z" stroke="white" stroke-width="1.3816" stroke-miterlimit="10" stroke-linecap="round"/>
<path opacity="0.37" d="M651.632 520.793C652.276 510.809 660.573 503.264 670.157 503.949" stroke="white" stroke-width="1.3816" stroke-miterlimit="10" stroke-linecap="round"/>
<path opacity="0.37" d="M502.059 10.8944L495.98 2.93591" stroke="white" stroke-width="1.3816" stroke-miterlimit="10" stroke-linecap="round"/>
<path opacity="0.37" d="M502.648 -2.56848L508.727 5.38999" stroke="white" stroke-width="1.3816" stroke-miterlimit="10" stroke-linecap="round"/>
<path opacity="0.37" d="M508.727 5.38936L502.018 10.9232C501.019 11.7504 500.854 13.2623 501.649 14.3177L523.049 42.4148C523.843 43.456 525.295 43.6271 526.308 42.7999L533.017 37.266C534.017 36.4388 534.181 34.927 533.387 33.8716L511.986 5.77445C511.192 4.73328 509.741 4.56213 508.727 5.38936Z" stroke="white" stroke-width="1.3816" stroke-miterlimit="10" stroke-linecap="round"/>
<path opacity="0.37" d="M510.681 -20.4382C512.632 -37.6167 500.845 -53.1903 484.354 -55.2228C467.863 -57.2552 452.912 -44.977 450.961 -27.7986C449.01 -10.6201 460.797 4.95342 477.288 6.98591C493.779 9.0184 508.73 -3.25981 510.681 -20.4382Z" stroke="white" stroke-width="1.3816" stroke-miterlimit="10" stroke-linecap="round"/>
<path opacity="0.37" d="M489.967 -3.14376C501.08 -8.418 505.985 -22.0781 500.921 -33.6545C495.858 -45.2309 482.744 -50.3397 471.631 -45.0655C460.518 -39.7913 455.613 -26.1311 460.676 -14.5548C465.74 -2.9784 478.853 2.13049 489.967 -3.14376Z" stroke="white" stroke-width="1.3816" stroke-miterlimit="10" stroke-linecap="round"/>
<path opacity="0.37" d="M712.902 233.561L705.755 226.616" stroke="white" stroke-width="1.3816" stroke-miterlimit="10" stroke-linecap="round"/>
<path opacity="0.37" d="M711.574 220.14L718.721 227.086" stroke="white" stroke-width="1.3816" stroke-miterlimit="10" stroke-linecap="round"/>
<path opacity="0.37" d="M718.721 227.086L712.875 233.59C711.999 234.56 712.053 236.086 712.984 236.998L738.109 261.516C739.04 262.428 740.505 262.371 741.382 261.402L747.228 254.898C748.104 253.928 748.05 252.402 747.119 251.489L721.994 226.972C721.063 226.059 719.598 226.116 718.721 227.086Z" stroke="white" stroke-width="1.3816" stroke-miterlimit="10" stroke-linecap="round"/>
<path opacity="0.37" d="M715.65 211.398C720.535 194.866 711.63 177.339 695.76 172.25C679.89 167.161 663.064 176.437 658.179 192.969C653.293 209.5 662.198 227.027 678.068 232.116C693.939 237.205 710.764 227.929 715.65 211.398Z" stroke="white" stroke-width="1.3816" stroke-miterlimit="10" stroke-linecap="round"/>
<path opacity="0.37" d="M705.568 214.63C712.182 203.935 709.221 189.68 698.954 182.79C688.687 175.9 675.002 178.984 668.388 189.679C661.774 200.374 664.735 214.629 675.002 221.519C685.269 228.409 698.954 225.324 705.568 214.63Z" stroke="white" stroke-width="1.3816" stroke-miterlimit="10" stroke-linecap="round"/>
<path opacity="0.37" d="M674.25 189.79C680.808 182.488 691.816 182.117 698.827 188.949" stroke="white" stroke-width="1.3816" stroke-miterlimit="10" stroke-linecap="round"/>
<path opacity="0.37" d="M142.467 86.1445L151.928 83.6201" stroke="white" stroke-width="1.3816" stroke-miterlimit="10" stroke-linecap="round"/>
<path opacity="0.37" d="M154.023 92.2188L144.562 94.7432" stroke="white" stroke-width="1.3816" stroke-miterlimit="10" stroke-linecap="round"/>
<path opacity="0.37" d="M144.561 94.7436L142.466 86.1005C142.151 84.8026 140.892 84.0324 139.659 84.3605L106.292 93.1604C105.046 93.4885 104.307 94.8006 104.622 96.0843L106.716 104.727C107.031 106.025 108.291 106.795 109.523 106.467L142.891 97.6674C144.123 97.3394 144.862 96.0272 144.561 94.7436Z" stroke="white" stroke-width="1.3816" stroke-miterlimit="10" stroke-linecap="round"/>
<path opacity="0.37" d="M207.481 96.6597C216.153 81.9082 211.702 62.627 197.541 53.5941C183.379 44.5612 164.869 49.1971 156.198 63.9487C147.526 78.7002 151.976 97.9813 166.138 107.014C180.299 116.047 198.809 111.411 207.481 96.6597Z" stroke="white" stroke-width="1.3816" stroke-miterlimit="10" stroke-linecap="round"/>
<path opacity="0.37" d="M187.267 102.631C175.437 105.754 163.402 98.2805 160.417 85.9577C157.418 73.6349 164.579 61.1124 176.423 57.989C188.253 54.8655 200.288 62.339 203.273 74.6618C206.271 86.9846 199.11 99.5071 187.267 102.631Z" stroke="white" stroke-width="1.3816" stroke-miterlimit="10" stroke-linecap="round"/>
<path opacity="0.37" d="M198.7 75.8605C201.055 85.559 195.413 95.4144 186.117 97.8676" stroke="white" stroke-width="1.3816" stroke-miterlimit="10" stroke-linecap="round"/>
<path opacity="0.37" d="M627.452 597.939L602.902 572.594C601.779 571.439 599.958 571.439 598.849 572.608L574.518 598.181C573.409 599.351 573.409 601.247 574.532 602.403L599.082 627.747C600.204 628.903 602.026 628.902 603.135 627.733L627.465 602.16C628.588 600.991 628.574 599.094 627.452 597.939Z" stroke="white" stroke-width="1.5107" stroke-miterlimit="10" stroke-linecap="round"/>
<path opacity="0.37" d="M580.131 613.2L555.582 587.856C554.459 586.7 552.638 586.701 551.529 587.87L527.198 613.443C526.089 614.612 526.089 616.509 527.212 617.664L551.761 643.009C552.884 644.164 554.705 644.164 555.814 642.995L580.145 617.422C581.268 616.252 581.254 614.37 580.131 613.2Z" stroke="white" stroke-width="1.5107" stroke-miterlimit="10" stroke-linecap="round"/>
<path opacity="0.37" d="M613.239 647.373L588.689 622.028C587.566 620.873 585.745 620.873 584.636 622.043L560.305 647.615C559.196 648.785 559.196 650.682 560.319 651.837L584.869 677.181C585.992 678.337 587.813 678.337 588.922 677.167L613.252 651.594C614.361 650.411 614.361 648.528 613.239 647.373Z" stroke="white" stroke-width="1.5107" stroke-miterlimit="10" stroke-linecap="round"/>
<path opacity="0.37" d="M595.225 590.459C597.87 587.678 600.936 587.603 602.844 589.572C603.944 590.708 604.257 592.03 603.912 593.218L605.031 592.041L608.274 595.388L600.078 604.006L596.835 600.659L597.954 599.482C596.816 599.853 595.544 599.539 594.444 598.404C592.536 596.435 592.58 593.24 595.225 590.459ZM600.933 596.35C601.834 595.403 601.785 594.353 601.11 593.657C600.435 592.96 599.427 592.919 598.526 593.867C597.625 594.814 597.674 595.863 598.349 596.56C599.024 597.257 600.032 597.297 600.933 596.35Z" fill="white"/>
<path opacity="0.37" d="M554.345 607.181C555.482 606.81 556.739 607.109 557.84 608.244C559.747 610.213 559.704 613.408 557.059 616.189C554.414 618.969 551.348 619.045 549.44 617.076C548.34 615.94 548.041 614.633 548.386 613.445L547.267 614.622L544.01 611.26L554.764 599.953L558.021 603.315L554.345 607.181ZM553.757 612.781C554.658 611.834 554.61 610.785 553.935 610.088C553.26 609.391 552.252 609.35 551.351 610.298C550.45 611.245 550.499 612.294 551.174 612.991C551.849 613.688 552.856 613.729 553.757 612.781Z" fill="white"/>
<path opacity="0.37" d="M592.016 -22.6786L561.989 -40.5067C560.62 -41.3197 558.868 -40.8205 558.073 -39.3942L540.972 -8.11657C540.192 -6.69032 540.671 -4.86472 542.04 -4.0375L572.067 13.7764C573.436 14.5893 575.188 14.0901 575.983 12.6639L593.084 -18.6138C593.864 -20.04 593.385 -21.8656 592.016 -22.6786Z" stroke="white" stroke-width="1.5107" stroke-miterlimit="10" stroke-linecap="round"/>
<path opacity="0.37" d="M632.503 1.33976L602.477 -16.4741C601.107 -17.2871 599.355 -16.7879 598.561 -15.3616L581.459 15.916C580.679 17.3423 581.158 19.1679 582.527 19.9951L612.554 37.8089C613.923 38.6219 615.676 38.1227 616.47 36.6965L633.571 5.41883C634.365 3.97832 633.886 2.15272 632.503 1.33976Z" stroke="white" stroke-width="1.5107" stroke-miterlimit="10" stroke-linecap="round"/>
<path opacity="0.37" d="M600 3.61955C601.821 0.289402 605.082 -0.446848 608.146 1.37145C610.776 2.93153 611.883 5.69535 610.875 8.72397L606.613 6.19557C606.741 5.60997 606.641 5.13407 606.134 4.83281C605.517 4.467 604.768 4.78231 604.08 6.04036C603.392 7.29842 603.514 8.13016 604.131 8.49598C604.638 8.79723 605.082 8.64411 605.501 8.23066L609.762 10.7591C607.775 13.2067 604.929 13.625 602.299 12.0649C599.235 10.2466 598.179 6.9497 600 3.61955Z" fill="white"/>
<g opacity="0.37">
<path opacity="0.37" d="M679.426 257.936L646.264 268.076C644.744 268.547 643.881 270.201 644.32 271.785L654.055 306.328C654.506 307.912 656.095 308.81 657.614 308.354L690.776 298.213C692.296 297.742 693.173 296.088 692.721 294.505L682.986 259.961C682.534 258.378 680.946 257.479 679.426 257.936Z" stroke="white" stroke-width="1.5107" stroke-miterlimit="10" stroke-linecap="round"/>
<path opacity="0.37" d="M657.604 283.34C656.563 279.646 658.027 276.839 660.649 276.037C662.161 275.574 663.439 275.911 664.275 276.779L663.834 275.216L668.291 273.853L671.518 285.3L667.062 286.663L666.621 285.101C666.369 286.302 665.469 287.305 663.956 287.768C661.335 288.57 658.646 287.034 657.604 283.34ZM665.448 280.94C665.093 279.682 664.179 279.234 663.251 279.518C662.323 279.802 661.786 280.693 662.141 281.952C662.496 283.21 663.411 283.658 664.338 283.374C665.266 283.09 665.803 282.198 665.448 280.94Z" fill="white"/>
</g>
<g opacity="0.37">
<path opacity="0.37" d="M681.288 328.378L647.345 335.196C645.785 335.51 644.771 337.078 645.073 338.69L651.617 374.047C651.919 375.673 653.425 376.728 654.972 376.414L688.914 369.597C690.475 369.283 691.488 367.714 691.187 366.103L684.642 330.746C684.341 329.134 682.835 328.065 681.288 328.378Z" stroke="white" stroke-width="1.5107" stroke-miterlimit="10" stroke-linecap="round"/>
<path opacity="0.37" d="M662.076 346.751C662.438 345.581 663.407 344.677 664.958 344.366C667.645 343.826 670.185 345.617 670.884 349.39C671.582 353.164 669.863 355.81 667.176 356.35C665.625 356.661 664.403 356.197 663.649 355.252L663.944 356.848L659.355 357.77L656.515 342.427L661.105 341.505L662.076 346.751ZM666.232 350.325C665.994 349.039 665.123 348.504 664.172 348.695C663.221 348.886 662.604 349.72 662.842 351.005C663.08 352.291 663.95 352.826 664.901 352.635C665.852 352.444 666.47 351.61 666.232 350.325Z" fill="white"/>
</g>
<g opacity="0.37">
<path opacity="0.37" d="M727.731 299.796L706.577 328.264C705.605 329.562 705.838 331.445 707.084 332.457L734.413 354.493C735.659 355.506 737.466 355.263 738.439 353.965L759.593 325.497C760.565 324.199 760.332 322.317 759.086 321.304L731.757 299.269C730.497 298.256 728.704 298.498 727.731 299.796Z" stroke="white" stroke-width="1.5107" stroke-miterlimit="10" stroke-linecap="round"/>
<path opacity="0.37" d="M725.567 333.791C722.613 331.409 722.32 327.952 724.445 325.092C726.269 322.637 729.052 321.931 731.821 323.433L728.865 327.41C728.321 327.188 727.854 327.217 727.502 327.691C727.074 328.266 727.281 329.083 728.397 329.983C729.514 330.883 730.324 330.887 730.752 330.312C731.104 329.838 731.014 329.359 730.671 328.866L733.627 324.889C735.717 327.304 735.758 330.288 733.934 332.742C731.808 335.602 728.522 336.174 725.567 333.791Z" fill="white"/>
</g>
<g opacity="0.37">
<path opacity="0.37" d="M229.849 -42.5892L196.303 -33.9033C194.77 -33.504 193.825 -31.8923 194.209 -30.2806L202.547 4.66247C202.93 6.25987 204.478 7.24399 206.025 6.84464L239.57 -1.84122C241.104 -2.24057 242.048 -3.85223 241.665 -5.4639L233.327 -40.407C232.943 -42.0044 231.396 -42.9885 229.849 -42.5892Z" stroke="white" stroke-width="1.5107" stroke-miterlimit="10" stroke-linecap="round"/>
</g>
<path opacity="0.37" d="M753.184 429.485C755.248 404.283 737.308 382.11 713.115 379.96C688.921 377.81 667.635 396.498 665.571 421.7C663.507 446.901 681.447 469.074 705.64 471.224C729.834 473.374 751.12 454.687 753.184 429.485Z" stroke="white" stroke-width="1.4026" stroke-miterlimit="10" stroke-linecap="round"/>
<path opacity="0.37" d="M738.413 460.009C750.849 448.606 747.925 423.972 731.882 404.988C715.84 386.003 692.753 379.856 680.317 391.259C667.881 402.661 670.805 427.295 686.847 446.28C702.89 465.265 725.977 471.412 738.413 460.009Z" stroke="white" stroke-width="1.4026" stroke-miterlimit="10" stroke-linecap="round"/>
<path opacity="0.37" d="M729.186 449.088C747.412 432.377 753.312 408.329 742.366 395.375C731.419 382.421 707.771 385.466 689.545 402.177C671.32 418.888 665.419 442.937 676.366 455.891C687.312 468.845 710.961 465.8 729.186 449.088Z" stroke="white" stroke-width="1.4026" stroke-miterlimit="10" stroke-linecap="round"/>
<path opacity="0.37" d="M717.831 417.889C733.878 436.873 743.106 455.728 738.451 460.007C733.796 464.285 717.009 452.348 700.962 433.364C684.915 414.381 675.687 395.526 680.342 391.247C685.011 386.968 701.784 398.906 717.831 417.889Z" stroke="white" stroke-width="1.4026" stroke-miterlimit="10" stroke-linecap="round"/>
<path opacity="0.37" d="M676.399 455.885L742.408 395.37" stroke="white" stroke-width="1.4026" stroke-miterlimit="10" stroke-linecap="round"/>
<path opacity="0.37" d="M638.568 124.999C653.298 118.371 660.082 100.56 653.72 85.2154C647.357 69.8711 630.258 62.8047 615.528 69.4322C600.797 76.0596 594.014 93.8713 600.376 109.216C606.738 124.56 623.837 131.626 638.568 124.999Z" stroke="white" stroke-width="0.9267" stroke-miterlimit="10" stroke-linecap="round"/>
<path opacity="0.37" d="M646.248 119.955C654.467 112.42 652.535 96.1399 641.933 83.5937C631.331 71.0475 616.074 66.9858 607.855 74.5216C599.637 82.0574 601.568 98.3372 612.17 110.883C622.772 123.43 638.029 127.491 646.248 119.955Z" stroke="white" stroke-width="0.9267" stroke-miterlimit="10" stroke-linecap="round"/>
<path opacity="0.37" d="M640.15 112.74C652.195 101.697 656.094 85.8039 648.86 77.2426C641.625 68.6814 625.997 70.6937 613.952 81.7373C601.908 92.7808 598.009 108.674 605.243 117.235C612.478 125.796 628.106 123.784 640.15 112.74Z" stroke="white" stroke-width="0.9267" stroke-miterlimit="10" stroke-linecap="round"/>
<path opacity="0.37" d="M646.247 119.954C649.324 117.133 643.223 104.676 632.621 92.1298C622.019 79.5836 610.931 71.6995 607.855 74.5203C604.778 77.341 610.879 89.7984 621.481 102.345C632.083 114.891 643.171 122.775 646.247 119.954Z" stroke="white" stroke-width="0.9267" stroke-miterlimit="10" stroke-linecap="round"/>
<path opacity="0.37" d="M605.256 117.222L648.865 77.2299" stroke="white" stroke-width="0.9267" stroke-miterlimit="10" stroke-linecap="round"/>
<path opacity="0.37" d="M169.948 0.148218C171.986 -31.5575 148.963 -58.9808 118.525 -61.1034C88.0879 -63.226 61.7615 -39.2442 59.7238 -7.53844C57.6861 24.1673 80.7087 51.5906 111.146 53.7132C141.584 55.8358 167.91 31.854 169.948 0.148218Z" stroke="white" stroke-width="1.7618" stroke-miterlimit="10" stroke-linecap="round"/>
<path opacity="0.37" d="M151.324 39.493C166.95 25.1655 163.279 -5.78408 143.125 -29.6349C122.97 -53.4857 93.9648 -61.2059 78.3389 -46.8784C62.7131 -32.551 66.3841 -1.60137 86.5386 22.2494C106.693 46.1002 135.699 53.8204 151.324 39.493Z" stroke="white" stroke-width="1.7618" stroke-miterlimit="10" stroke-linecap="round"/>
<path opacity="0.37" d="M139.737 25.7782C162.633 4.78408 170.045 -25.4301 156.29 -41.7071C142.536 -57.9841 112.824 -54.16 89.9277 -33.1658C67.0309 -12.1717 59.6195 18.0426 73.3739 34.3195C87.1282 50.5965 116.84 46.7724 139.737 25.7782Z" stroke="white" stroke-width="1.7618" stroke-miterlimit="10" stroke-linecap="round"/>
<path opacity="0.37" d="M151.326 39.4918C157.177 34.1261 145.583 10.4415 125.429 -13.4093C105.274 -37.2601 84.1919 -52.2453 78.34 -46.8796C72.4881 -41.514 84.0826 -17.8294 104.237 6.02142C124.391 29.8722 145.474 44.8574 151.326 39.4918Z" stroke="white" stroke-width="1.7618" stroke-miterlimit="10" stroke-linecap="round"/>
<path opacity="0.37" d="M73.3772 34.3138L156.296 -41.7052" stroke="white" stroke-width="1.7618" stroke-miterlimit="10" stroke-linecap="round"/>
<path opacity="0.37" d="M496.497 585.621C506.023 583.546 512.13 573.819 510.138 563.897C508.146 553.974 498.809 547.612 489.283 549.687C479.757 551.763 473.65 561.489 475.642 571.412C477.634 581.334 486.971 587.696 496.497 585.621Z" stroke="white" stroke-width="0.562" stroke-miterlimit="10" stroke-linecap="round"/>
<path opacity="0.37" d="M504.715 569.914C502.99 579.883 496.295 586.986 489.764 585.759C483.233 584.533 479.33 575.447 481.056 565.478C482.781 555.508 489.476 548.406 496.007 549.632C502.538 550.859 506.44 559.93 504.715 569.914Z" stroke="white" stroke-width="0.562" stroke-miterlimit="10" stroke-linecap="round"/>
<path opacity="0.37" d="M490.75 580.011C481.18 578.214 474.361 571.24 475.539 564.437C476.716 557.633 485.438 553.569 495.009 555.366C504.579 557.163 511.398 564.137 510.22 570.94C509.043 577.744 500.321 581.808 490.75 580.011Z" stroke="white" stroke-width="0.562" stroke-miterlimit="10" stroke-linecap="round"/>
<path opacity="0.37" d="M497.309 568.516C495.583 578.485 492.201 586.201 489.751 585.745C487.3 585.288 486.725 576.831 488.45 566.847C490.175 556.877 493.557 549.161 496.008 549.618C498.459 550.088 499.034 558.546 497.309 568.516Z" stroke="white" stroke-width="0.562" stroke-miterlimit="10" stroke-linecap="round"/>
<path opacity="0.37" d="M475.539 564.436L510.221 570.94" stroke="white" stroke-width="0.562" stroke-miterlimit="10" stroke-linecap="round"/>
<path opacity="0.37" d="M680.233 658.398C671.813 647.13 660.75 639.614 647.263 635.549L678.919 585.987C692.146 590.337 703.113 597.982 711.889 608.836L680.233 658.398Z" stroke="white" stroke-width="1.3187" stroke-miterlimit="10" stroke-linecap="round"/>
<g opacity="0.37">
<path opacity="0.37" d="M679.083 594.202C689.298 597.554 697.773 603.473 704.55 611.845" stroke="white" stroke-width="1.3187" stroke-miterlimit="10" stroke-linecap="round"/>
<path opacity="0.37" d="M673.236 603.373C683.451 606.725 691.926 612.644 698.703 621.016" stroke="white" stroke-width="1.3187" stroke-miterlimit="10" stroke-linecap="round"/>
<path opacity="0.37" d="M667.377 612.53C677.591 615.881 686.066 621.8 692.844 630.172" stroke="white" stroke-width="1.3187" stroke-miterlimit="10" stroke-linecap="round"/>
<path opacity="0.37" d="M661.53 621.7C671.744 625.052 680.219 630.97 686.997 639.343" stroke="white" stroke-width="1.3187" stroke-miterlimit="10" stroke-linecap="round"/>
</g>
<path opacity="0.37" d="M713.204 681.232C704.783 669.964 693.72 662.448 680.233 658.383L711.889 608.821C725.116 613.157 736.083 620.816 744.859 631.67L713.204 681.232Z" stroke="white" stroke-width="1.3187" stroke-miterlimit="10" stroke-linecap="round"/>
<g opacity="0.37">
<path opacity="0.37" d="M712.055 617.051C722.269 620.403 730.744 626.322 737.522 634.694" stroke="white" stroke-width="1.3187" stroke-miterlimit="10" stroke-linecap="round"/>
<path opacity="0.37" d="M706.195 626.207C716.409 629.559 724.884 635.478 731.662 643.85" stroke="white" stroke-width="1.3187" stroke-miterlimit="10" stroke-linecap="round"/>
</g>
<path opacity="0.37" d="M742.491 635.364L746.215 637.945L714.203 688.078L639.856 636.548L671.868 586.429L676.564 589.681" stroke="white" stroke-width="1.3187" stroke-miterlimit="10" stroke-linecap="round"/>
<path opacity="0.37" d="M415.075 679.207C399.795 668.111 382.529 663.019 363.456 663.404L385.35 585.788C404.204 585.873 421.387 591.193 436.968 601.59L415.075 679.207Z" stroke="white" stroke-width="1.792" stroke-miterlimit="10" stroke-linecap="round"/>
<g opacity="0.37">
<path opacity="0.37" d="M388.744 596.399C403.299 596.456 416.58 600.578 428.615 608.607" stroke="white" stroke-width="1.792" stroke-miterlimit="10" stroke-linecap="round"/>
<path opacity="0.37" d="M384.692 610.747C399.246 610.804 412.527 614.926 424.563 622.956" stroke="white" stroke-width="1.792" stroke-miterlimit="10" stroke-linecap="round"/>
<path opacity="0.37" d="M380.653 625.095C395.207 625.152 408.489 629.274 420.524 637.304" stroke="white" stroke-width="1.792" stroke-miterlimit="10" stroke-linecap="round"/>
</g>
<path opacity="0.37" d="M466.694 695.01C451.414 683.913 434.148 678.822 415.075 679.207L436.969 601.59C455.822 601.676 473.006 606.996 488.587 617.393L466.694 695.01Z" stroke="white" stroke-width="1.792" stroke-miterlimit="10" stroke-linecap="round"/>
<g opacity="0.37">
<path opacity="0.37" d="M440.364 612.201C454.919 612.258 468.2 616.38 480.235 624.41" stroke="white" stroke-width="1.792" stroke-miterlimit="10" stroke-linecap="round"/>
<path opacity="0.37" d="M436.311 626.549C450.866 626.606 464.147 630.728 476.182 638.757" stroke="white" stroke-width="1.792" stroke-miterlimit="10" stroke-linecap="round"/>
</g>
<path opacity="0.37" d="M486.958 623.184L492.791 624.966L470.651 703.467L354.214 667.825L376.354 589.324L383.72 591.578" stroke="white" stroke-width="1.792" stroke-miterlimit="10" stroke-linecap="round"/>
<path opacity="0.37" d="M713.929 38.464C700.292 37.052 687.435 40.2183 675.318 47.592L662.667 -10.4563C674.811 -17.445 687.682 -20.4401 701.278 -19.5843L713.929 38.464Z" stroke="white" stroke-width="1.3187" stroke-miterlimit="10" stroke-linecap="round"/>
<g opacity="0.37">
<path opacity="0.37" d="M670.841 5.8186C680.22 0.413116 690.161 -1.89741 700.662 -1.22707" stroke="white" stroke-width="1.3187" stroke-miterlimit="10" stroke-linecap="round"/>
<path opacity="0.37" d="M673.182 16.5576C682.561 11.1521 692.502 8.84156 703.003 9.5119" stroke="white" stroke-width="1.3187" stroke-miterlimit="10" stroke-linecap="round"/>
<path opacity="0.37" d="M675.524 27.297C684.903 21.8916 694.843 19.581 705.345 20.2514" stroke="white" stroke-width="1.3187" stroke-miterlimit="10" stroke-linecap="round"/>
<path opacity="0.37" d="M677.866 38.0226C687.245 32.6172 697.185 30.3066 707.687 30.977" stroke="white" stroke-width="1.3187" stroke-miterlimit="10" stroke-linecap="round"/>
</g>
<path opacity="0.37" d="M752.54 29.3361C738.903 27.9241 726.046 31.0904 713.929 38.4641L701.277 -19.5843C713.422 -26.5729 726.293 -29.568 739.889 -28.7123L752.54 29.3361Z" stroke="white" stroke-width="1.3187" stroke-miterlimit="10" stroke-linecap="round"/>
<g opacity="0.37">
<path opacity="0.37" d="M711.794 7.4296C721.173 2.02411 731.113 -0.286413 741.615 0.383924" stroke="white" stroke-width="1.3187" stroke-miterlimit="10" stroke-linecap="round"/>
<path opacity="0.37" d="M714.135 18.1547C723.514 12.7492 733.454 10.4387 743.956 11.109" stroke="white" stroke-width="1.3187" stroke-miterlimit="10" stroke-linecap="round"/>
<path opacity="0.37" d="M716.477 28.8947C725.856 23.4892 735.796 21.1786 746.298 21.849" stroke="white" stroke-width="1.3187" stroke-miterlimit="10" stroke-linecap="round"/>
</g>
<path opacity="0.37" d="M740.835 -24.3899L745.202 -25.4168L757.991 33.2876L670.91 53.8827L658.108 -4.82177L663.612 -6.13392" stroke="white" stroke-width="1.3187" stroke-miterlimit="10" stroke-linecap="round"/>
<path opacity="0.37" d="M675.318 47.593L714.094 39.2209L752.541 29.337" stroke="white" stroke-width="1.3187" stroke-miterlimit="10" stroke-linecap="round"/>
<path opacity="0.37" d="M388.895 7.51551C375.258 6.10352 362.401 9.2698 350.284 16.6435L337.632 -41.4048C349.777 -48.3935 362.647 -51.3886 376.244 -50.5328L388.895 7.51551Z" stroke="white" stroke-width="1.3187" stroke-miterlimit="10" stroke-linecap="round"/>
<g opacity="0.37">
<path opacity="0.37" d="M352.83 7.07288C362.209 1.66739 372.149 -0.643133 382.651 0.0272041" stroke="white" stroke-width="1.3187" stroke-miterlimit="10" stroke-linecap="round"/>
</g>
<path opacity="0.37" d="M427.507 -1.61293C413.87 -3.02492 401.013 0.141351 388.896 7.51506L376.244 -50.5333C388.389 -57.5219 401.259 -60.517 414.856 -59.6613L427.507 -1.61293Z" stroke="white" stroke-width="1.3187" stroke-miterlimit="10" stroke-linecap="round"/>
<path opacity="0.37" d="M415.8 -55.3404L420.168 -56.3673L432.957 2.33713L345.875 22.9322L333.073 -35.7723L338.578 -37.0844" stroke="white" stroke-width="1.3187" stroke-miterlimit="10" stroke-linecap="round"/>
<path opacity="0.37" d="M350.284 16.6425L389.06 8.27046L427.507 -1.61345" stroke="white" stroke-width="1.3187" stroke-miterlimit="10" stroke-linecap="round"/>
<path opacity="0.37" d="M761.92 114.755L711.711 73.3508C708.192 70.4555 703.085 71.0688 700.306 74.7343L673.729 109.706C670.95 113.371 671.539 118.691 675.057 121.587L725.266 162.991C728.785 165.886 733.892 165.273 736.671 161.607L763.248 126.636C766.027 122.984 765.438 117.65 761.92 114.755Z" stroke="white" stroke-width="1.3816" stroke-miterlimit="10" stroke-linecap="round"/>
<path opacity="0.37" d="M722.09 95.6855L699.991 124.767C699.156 125.865 697.609 126.065 696.555 125.18L684.547 115.282C683.493 114.412 683.301 112.8 684.15 111.702L706.249 82.621C707.084 81.5228 708.631 81.3231 709.685 82.2074L721.693 92.1056C722.761 92.9756 722.939 94.573 722.09 95.6855Z" stroke="white" stroke-width="1.3816" stroke-miterlimit="10" stroke-linecap="round"/>
<g opacity="0.37">
<path opacity="0.37" d="M679.508 120.873C679.467 120.459 679.577 120.046 679.851 119.703C680.385 119.019 681.357 118.933 682.014 119.489C682.672 120.046 682.754 121.059 682.22 121.743C681.96 122.057 681.617 122.257 681.248 122.314" stroke="white" stroke-width="1.3816" stroke-miterlimit="10" stroke-linecap="round"/>
<path opacity="0.37" d="M679.822 120.402L674.784 126.749C674.387 127.248 674.455 127.99 674.934 128.404C675.414 128.817 676.126 128.746 676.523 128.247L681.561 121.9C681.958 121.401 681.89 120.659 681.411 120.245C680.932 119.832 680.22 119.903 679.822 120.402Z" stroke="white" stroke-width="1.3816" stroke-miterlimit="10" stroke-linecap="round"/>
</g>
<g opacity="0.37">
<path opacity="0.37" d="M688.065 127.72C688.023 127.306 688.147 126.892 688.407 126.55C688.941 125.865 689.913 125.78 690.571 126.336C691.228 126.892 691.31 127.905 690.776 128.59C690.516 128.904 690.173 129.103 689.804 129.16" stroke="white" stroke-width="1.3816" stroke-miterlimit="10" stroke-linecap="round"/>
<path opacity="0.37" d="M688.379 127.249L683.34 133.596C682.943 134.095 683.012 134.836 683.491 135.25C683.97 135.664 684.682 135.592 685.079 135.093L690.118 128.746C690.515 128.247 690.447 127.506 689.967 127.092C689.488 126.678 688.776 126.75 688.379 127.249Z" stroke="white" stroke-width="1.3816" stroke-miterlimit="10" stroke-linecap="round"/>
</g>
<g opacity="0.37">
<path opacity="0.37" d="M696.623 134.566C696.582 134.152 696.691 133.738 696.965 133.396C697.499 132.711 698.471 132.626 699.129 133.182C699.786 133.738 699.868 134.751 699.334 135.436C699.074 135.749 698.732 135.949 698.362 135.992" stroke="white" stroke-width="1.3816" stroke-miterlimit="10" stroke-linecap="round"/>
<path opacity="0.37" d="M696.938 134.095L691.899 140.442C691.502 140.941 691.571 141.682 692.05 142.096C692.529 142.51 693.241 142.438 693.638 141.939L698.677 135.592C699.074 135.093 699.005 134.352 698.526 133.938C698.047 133.524 697.335 133.596 696.938 134.095Z" stroke="white" stroke-width="1.3816" stroke-miterlimit="10" stroke-linecap="round"/>
</g>
<g opacity="0.37">
<path opacity="0.37" d="M705.18 141.41C705.139 140.997 705.249 140.583 705.523 140.241C706.057 139.556 707.029 139.47 707.686 140.027C708.344 140.583 708.426 141.596 707.892 142.281C707.632 142.594 707.289 142.794 706.92 142.837" stroke="white" stroke-width="1.3816" stroke-miterlimit="10" stroke-linecap="round"/>
<path opacity="0.37" d="M705.495 140.94L700.457 147.287C700.06 147.786 700.128 148.527 700.607 148.941C701.087 149.355 701.799 149.283 702.196 148.784L707.234 142.437C707.631 141.938 707.563 141.197 707.084 140.783C706.604 140.369 705.893 140.441 705.495 140.94Z" stroke="white" stroke-width="1.3816" stroke-miterlimit="10" stroke-linecap="round"/>
</g>
<g opacity="0.37">
<path opacity="0.37" d="M713.737 148.258C713.696 147.844 713.82 147.431 714.08 147.088C714.614 146.404 715.586 146.318 716.244 146.874C716.901 147.431 716.983 148.443 716.449 149.128C716.189 149.442 715.846 149.642 715.477 149.684" stroke="white" stroke-width="1.3816" stroke-miterlimit="10" stroke-linecap="round"/>
<path opacity="0.37" d="M714.052 147.787L709.014 154.134C708.616 154.633 708.685 155.375 709.164 155.789C709.643 156.202 710.355 156.131 710.752 155.632L715.791 149.285C716.188 148.786 716.12 148.044 715.64 147.63C715.161 147.217 714.449 147.288 714.052 147.787Z" stroke="white" stroke-width="1.3816" stroke-miterlimit="10" stroke-linecap="round"/>
</g>
<g opacity="0.37">
<path opacity="0.37" d="M722.311 155.103C722.27 154.69 722.379 154.276 722.653 153.934C723.187 153.249 724.159 153.163 724.817 153.72C725.474 154.276 725.556 155.289 725.022 155.974C724.762 156.287 724.419 156.487 724.05 156.53" stroke="white" stroke-width="1.3816" stroke-miterlimit="10" stroke-linecap="round"/>
<path opacity="0.37" d="M722.611 154.633L717.572 160.98C717.175 161.479 717.244 162.22 717.723 162.634C718.202 163.048 718.914 162.976 719.311 162.477L724.35 156.13C724.747 155.631 724.678 154.889 724.199 154.476C723.734 154.062 723.022 154.134 722.611 154.633Z" stroke="white" stroke-width="1.3816" stroke-miterlimit="10" stroke-linecap="round"/>
</g>
<path opacity="0.37" d="M101.5 421.341L94.3531 414.395" stroke="white" stroke-width="1.3816" stroke-miterlimit="10" stroke-linecap="round"/>
<path opacity="0.37" d="M100.172 407.934L107.32 414.865" stroke="white" stroke-width="1.3816" stroke-miterlimit="10" stroke-linecap="round"/>
<path opacity="0.37" d="M107.32 414.866L101.473 421.369C100.597 422.339 100.652 423.865 101.583 424.778L126.707 449.295C127.638 450.208 129.104 450.151 129.98 449.181L135.826 442.677C136.703 441.708 136.648 440.181 135.717 439.269L110.592 414.751C109.661 413.853 108.196 413.896 107.32 414.866Z" stroke="white" stroke-width="1.3816" stroke-miterlimit="10" stroke-linecap="round"/>
<path opacity="0.37" d="M98.276 410.473C109.145 397.394 107.777 377.614 95.2211 366.292C82.6654 354.971 63.6763 356.396 52.8077 369.475C41.9392 382.553 43.3069 402.334 55.8626 413.655C68.4183 424.977 87.4074 423.552 98.276 410.473Z" stroke="white" stroke-width="1.3816" stroke-miterlimit="10" stroke-linecap="round"/>
<path opacity="0.37" d="M84.9816 410.793C96.0278 405.368 100.76 391.642 95.5514 380.135C90.3428 368.629 77.1657 363.699 66.1196 369.125C55.0734 374.551 50.3412 388.277 55.5498 399.783C60.7584 411.289 73.9355 416.219 84.9816 410.793Z" stroke="white" stroke-width="1.3816" stroke-miterlimit="10" stroke-linecap="round"/>
<path opacity="0.37" d="M62.8477 377.569C69.4061 370.267 80.4145 369.896 87.4248 376.728" stroke="white" stroke-width="1.3816" stroke-miterlimit="10" stroke-linecap="round"/>
<path opacity="0.37" d="M292.518 629.574L293.052 619.419" stroke="white" stroke-width="1.3816" stroke-miterlimit="10" stroke-linecap="round"/>
<path opacity="0.37" d="M301.554 619.917L301.02 630.072" stroke="white" stroke-width="1.3816" stroke-miterlimit="10" stroke-linecap="round"/>
<path opacity="0.37" d="M301.02 630.073L292.477 629.574C291.203 629.502 290.108 630.515 290.039 631.842L288.081 667.64C288.013 668.967 288.985 670.108 290.258 670.179L298.802 670.678C300.076 670.75 301.171 669.737 301.239 668.411L303.197 632.612C303.266 631.3 302.294 630.159 301.02 630.073Z" stroke="white" stroke-width="1.3816" stroke-miterlimit="10" stroke-linecap="round"/>
<path opacity="0.37" d="M319.129 611.94C331.465 600.361 332.455 580.556 321.339 567.706C310.223 554.855 291.211 553.825 278.874 565.404C266.538 576.983 265.548 596.787 276.664 609.638C287.78 622.488 306.792 623.519 319.129 611.94Z" stroke="white" stroke-width="1.3816" stroke-miterlimit="10" stroke-linecap="round"/>
<path opacity="0.37" d="M300.447 611.679C312.634 610.854 321.871 599.893 321.078 587.199C320.286 574.504 309.764 564.882 297.577 565.708C285.39 566.534 276.153 577.494 276.946 590.188C277.738 602.883 288.26 612.505 300.447 611.679Z" stroke="white" stroke-width="1.3816" stroke-miterlimit="10" stroke-linecap="round"/>
<path opacity="0.37" d="M299.979 570.612C309.563 571.183 316.902 579.74 316.354 589.724" stroke="white" stroke-width="1.3816" stroke-miterlimit="10" stroke-linecap="round"/>
<path opacity="0.37" d="M78.8946 73.1362L45.8421 62.6247C44.3223 62.1398 42.7203 63.0384 42.2685 64.6072L32.1775 99.0369C31.712 100.62 32.5746 102.289 34.0807 102.759L67.1331 113.271C68.653 113.756 70.2549 112.857 70.7068 111.288L80.7978 76.8587C81.2633 75.2898 80.4144 73.6211 78.8946 73.1362Z" stroke="white" stroke-width="1.5107" stroke-miterlimit="10" stroke-linecap="round"/>
<path opacity="0.37" d="M43.8434 109.606L10.791 99.0944C9.27114 98.6095 7.66918 99.508 7.21734 101.077L-2.87366 135.507C-3.33919 137.09 -2.47659 138.758 -0.970473 139.229L32.082 149.741C33.6018 150.225 35.2038 149.327 35.6556 147.758L45.7466 113.328C46.2121 111.76 45.3632 110.091 43.8434 109.606Z" stroke="white" stroke-width="1.5107" stroke-miterlimit="10" stroke-linecap="round"/>
<path opacity="0.37" d="M88.4112 123.783L55.3587 113.271C53.8389 112.786 52.2369 113.685 51.7851 115.254L41.6941 149.683C41.2286 151.267 42.0912 152.935 43.5973 153.406L76.6497 163.917C78.1696 164.402 79.7715 163.504 80.2234 161.935L90.3144 127.505C90.7799 125.936 89.931 124.268 88.4112 123.783Z" stroke="white" stroke-width="1.5107" stroke-miterlimit="10" stroke-linecap="round"/>
<path opacity="0.37" d="M47.178 81.878C48.2574 78.1952 50.9618 76.6883 53.5741 77.5191C55.0812 77.9984 55.9706 79.0113 56.2107 80.2158L56.6674 78.6577L61.1083 80.0701L57.7633 91.4827L53.3223 90.0704L53.779 88.5122C52.934 89.3717 51.6531 89.6943 50.146 89.215C47.5337 88.3842 46.0986 85.5608 47.178 81.878ZM54.9948 84.364C55.3626 83.1095 54.8349 82.2116 53.9105 81.9177C52.9862 81.6237 52.067 82.0614 51.6993 83.316C51.3316 84.5705 51.8593 85.4684 52.7836 85.7623C53.708 86.0563 54.6271 85.6186 54.9948 84.364Z" fill="white"/>
<path opacity="0.37" d="M18.5421 116.605C19.3871 115.746 20.6478 115.417 22.1549 115.896C24.7672 116.727 26.2024 119.55 25.123 123.233C24.0435 126.916 21.3392 128.423 18.7269 127.592C17.2198 127.113 16.3505 126.106 16.1104 124.902L15.6537 126.46L11.1927 125.041L15.5816 110.067L20.0426 111.486L18.5421 116.605ZM20.6017 121.795C20.9694 120.54 20.4417 119.643 19.5173 119.349C18.593 119.055 17.6739 119.492 17.3061 120.747C16.9384 122.002 17.4661 122.899 18.3905 123.193C19.3148 123.487 20.2339 123.05 20.6017 121.795Z" fill="white"/>
<path opacity="0.37" d="M57.1747 133.426C58.2423 129.783 61.28 128.338 64.676 129.418C67.5898 130.345 69.27 132.782 68.9348 135.949L64.2125 134.447C64.2119 133.85 64.0113 133.41 63.4487 133.231C62.7655 133.014 62.0993 133.488 61.696 134.864C61.2927 136.24 61.5911 137.02 62.2744 137.238C62.837 137.417 63.2393 137.168 63.5601 136.673L68.2824 138.175C66.8621 140.997 64.1617 142.041 61.248 141.114C57.852 140.034 56.1072 137.068 57.1747 133.426Z" fill="white"/>
<path opacity="0.37" d="M201.616 565.72L168.208 574.905C166.674 575.318 165.757 576.959 166.168 578.556L174.985 613.371C175.382 614.968 176.957 615.924 178.49 615.496L211.913 606.311C213.446 605.897 214.363 604.257 213.953 602.66L205.135 567.845C204.724 566.247 203.15 565.292 201.616 565.72Z" stroke="white" stroke-width="1.5107" stroke-miterlimit="10" stroke-linecap="round"/>
<path opacity="0.37" d="M190.239 615.938L156.817 625.123C155.283 625.537 154.366 627.177 154.777 628.775L163.594 663.589C163.991 665.187 165.566 666.142 167.099 665.714L200.522 656.529C202.055 656.116 202.972 654.476 202.562 652.878L193.744 618.063C193.347 616.48 191.772 615.525 190.239 615.938Z" stroke="white" stroke-width="1.5107" stroke-miterlimit="10" stroke-linecap="round"/>
<path opacity="0.37" d="M235.299 603.559L201.877 612.744C200.343 613.157 199.426 614.797 199.837 616.395L208.654 651.21C209.051 652.807 210.626 653.763 212.159 653.335L245.582 644.15C247.115 643.736 248.032 642.096 247.622 640.498L238.804 605.684C238.393 604.101 236.832 603.145 235.299 603.559Z" stroke="white" stroke-width="1.5107" stroke-miterlimit="10" stroke-linecap="round"/>
<path opacity="0.37" d="M178.945 590.481C178.003 586.761 179.544 583.998 182.187 583.272C183.712 582.853 184.981 583.226 185.794 584.118L185.395 582.544L189.889 581.309L192.808 592.838L188.314 594.072L187.916 592.498C187.631 593.692 186.703 594.668 185.178 595.087C182.535 595.813 179.887 594.201 178.945 590.481ZM186.855 588.308C186.534 587.041 185.631 586.567 184.696 586.824C183.76 587.081 183.199 587.957 183.52 589.224C183.841 590.491 184.744 590.965 185.679 590.708C186.614 590.451 187.176 589.575 186.855 588.308Z" fill="white"/>
<path opacity="0.37" d="M172.145 635.709C172.43 634.515 173.337 633.545 174.862 633.126C177.505 632.4 180.153 634.012 181.095 637.732C182.037 641.452 180.497 644.215 177.853 644.941C176.328 645.36 175.08 644.981 174.267 644.09L174.666 645.663L170.152 646.904L166.322 631.777L170.836 630.537L172.145 635.709ZM176.52 638.989C176.199 637.721 175.297 637.248 174.361 637.505C173.426 637.762 172.865 638.637 173.186 639.905C173.507 641.172 174.409 641.646 175.345 641.389C176.28 641.132 176.841 640.256 176.52 638.989Z" fill="white"/>
<path opacity="0.37" d="M213.487 628.832C212.555 625.153 214.411 622.26 217.847 621.316C220.795 620.506 223.456 621.655 224.771 624.529L219.993 625.842C219.691 625.335 219.298 625.071 218.728 625.228C218.037 625.417 217.71 626.185 218.062 627.575C218.413 628.965 219.062 629.465 219.753 629.275C220.323 629.118 220.54 628.687 220.562 628.091L225.341 626.778C225.558 629.954 223.786 632.321 220.838 633.131C217.402 634.075 214.418 632.511 213.487 628.832Z" fill="white"/>
<g opacity="0.37">
<path opacity="0.37" d="M68.0231 445.73L34.8611 455.871C33.3413 456.341 32.4787 457.996 32.9168 459.579L42.6518 494.123C43.1037 495.706 44.6919 496.604 46.2118 496.148L79.3738 486.007C80.8936 485.537 81.7562 483.882 81.318 482.299L71.583 447.755C71.1312 446.158 69.5429 445.259 68.0231 445.73Z" stroke="white" stroke-width="1.5107" stroke-miterlimit="10" stroke-linecap="round"/>
<path opacity="0.37" d="M46.1999 471.126C45.1584 467.432 46.6231 464.625 49.2445 463.823C50.7569 463.36 52.0346 463.697 52.8709 464.566L52.4303 463.003L56.8867 461.639L60.1141 473.086L55.6577 474.45L55.2171 472.887C54.9645 474.089 54.0644 475.091 52.5521 475.554C49.9306 476.356 47.2414 474.82 46.1999 471.126ZM54.044 468.726C53.6892 467.468 52.7744 467.02 51.8468 467.304C50.9193 467.588 50.3822 468.48 50.737 469.738C51.0917 470.996 52.0065 471.444 52.9341 471.16C53.8617 470.876 54.3988 469.985 54.044 468.726Z" fill="white"/>
</g>
<g opacity="0.37">
<path opacity="0.37" d="M69.8859 516.172L35.9435 522.989C34.3826 523.303 33.3694 524.872 33.6706 526.484L40.2154 561.84C40.5166 563.466 42.0227 564.522 43.5699 564.208L77.5124 557.39C79.0732 557.077 80.0865 555.508 79.7852 553.896L73.2405 518.539C72.9392 516.914 71.4331 515.858 69.8859 516.172Z" stroke="white" stroke-width="1.5107" stroke-miterlimit="10" stroke-linecap="round"/>
<path opacity="0.37" d="M50.6726 534.537C51.035 533.367 52.0041 532.463 53.5546 532.151C56.2422 531.612 58.7822 533.403 59.4806 537.176C60.179 540.95 58.4603 543.596 55.7727 544.136C54.2222 544.447 52.9998 543.983 52.2459 543.038L52.5414 544.634L47.9519 545.556L45.1121 530.213L49.7017 529.291L50.6726 534.537ZM54.829 538.11C54.5911 536.825 53.7202 536.29 52.7692 536.481C51.8183 536.672 51.2006 537.506 51.4386 538.791C51.6765 540.077 52.5474 540.612 53.4984 540.421C54.4494 540.23 55.067 539.396 54.829 538.11Z" fill="white"/>
</g>
<g opacity="0.37">
<path opacity="0.37" d="M116.329 487.59L95.1744 516.058C94.2023 517.356 94.4351 519.239 95.681 520.251L123.01 542.287C124.256 543.3 126.064 543.057 127.036 541.759L148.19 513.291C149.162 511.993 148.929 510.111 147.683 509.098L120.354 487.063C119.094 486.05 117.301 486.278 116.329 487.59Z" stroke="white" stroke-width="1.5107" stroke-miterlimit="10" stroke-linecap="round"/>
<path opacity="0.37" d="M114.161 521.577C111.206 519.195 110.914 515.738 113.039 512.877C114.863 510.423 117.646 509.716 120.415 511.218L117.459 515.196C116.915 514.974 116.448 515.003 116.095 515.477C115.668 516.052 115.875 516.869 116.991 517.769C118.107 518.669 118.918 518.673 119.346 518.097C119.698 517.623 119.607 517.145 119.265 516.652L122.22 512.674C124.31 515.09 124.351 518.073 122.528 520.528C120.402 523.388 117.116 523.96 114.161 521.577Z" fill="white"/>
</g>
<path opacity="0.37" d="M141.891 616.349C143.435 591.107 125.043 569.34 100.81 567.731C76.5776 566.123 55.6813 585.282 54.137 610.524C52.5927 635.766 70.9852 657.533 95.2179 659.142C119.451 660.751 140.347 641.592 141.891 616.349Z" stroke="white" stroke-width="1.4026" stroke-miterlimit="10" stroke-linecap="round"/>
<path opacity="0.37" d="M127.025 647.775C139.461 636.373 136.537 611.739 120.494 592.754C104.452 573.769 81.3652 567.622 68.9292 579.025C56.4932 590.428 59.4169 615.062 75.4595 634.046C91.5021 653.031 114.589 659.178 127.025 647.775Z" stroke="white" stroke-width="1.4026" stroke-miterlimit="10" stroke-linecap="round"/>
<path opacity="0.37" d="M117.797 636.856C136.023 620.145 141.924 596.096 130.977 583.142C120.03 570.188 96.3819 573.234 78.1564 589.945C59.931 606.656 54.0302 630.704 64.9767 643.658C75.9233 656.612 99.5718 653.567 117.797 636.856Z" stroke="white" stroke-width="1.4026" stroke-miterlimit="10" stroke-linecap="round"/>
<path opacity="0.37" d="M127.024 647.776C131.684 643.503 122.456 624.649 106.414 605.664C90.3713 586.679 73.5886 574.753 68.9286 579.025C64.2687 583.298 73.4961 602.152 89.5387 621.137C105.581 640.122 122.364 652.048 127.024 647.776Z" stroke="white" stroke-width="1.4026" stroke-miterlimit="10" stroke-linecap="round"/>
<path opacity="0.37" d="M64.9973 643.679L131.006 583.149" stroke="white" stroke-width="1.4026" stroke-miterlimit="10" stroke-linecap="round"/>
<path opacity="0.37" d="M74.9449 242.304C75.9654 225.622 63.8107 211.237 47.7965 210.174C31.7822 209.111 17.9728 221.773 16.9523 238.454C15.9317 255.135 28.0865 269.52 44.1007 270.583C60.1149 271.646 73.9244 258.985 74.9449 242.304Z" stroke="white" stroke-width="0.9267" stroke-miterlimit="10" stroke-linecap="round"/>
<path opacity="0.37" d="M65.1274 263.076C73.3462 255.54 71.4144 239.261 60.8126 226.714C50.2108 214.168 34.9537 210.107 26.7349 217.642C18.5161 225.178 20.448 241.458 31.0498 254.004C41.6516 266.55 56.9086 270.612 65.1274 263.076Z" stroke="white" stroke-width="0.9267" stroke-miterlimit="10" stroke-linecap="round"/>
<path opacity="0.37" d="M59.0302 255.861C71.0746 244.818 74.9738 228.925 67.7394 220.364C60.505 211.803 44.8765 213.815 32.8321 224.859C20.7877 235.902 16.8885 251.795 24.1229 260.356C31.3573 268.917 46.9858 266.905 59.0302 255.861Z" stroke="white" stroke-width="0.9267" stroke-miterlimit="10" stroke-linecap="round"/>
<path opacity="0.37" d="M51.511 235.258C62.1086 247.809 68.2152 260.26 65.1345 263.084C62.0538 265.908 50.9633 258.021 40.3657 245.484C29.7681 232.933 23.6615 220.482 26.7422 217.658C29.8229 214.82 40.9134 222.707 51.511 235.258Z" stroke="white" stroke-width="0.9267" stroke-miterlimit="10" stroke-linecap="round"/>
<path opacity="0.37" d="M24.1407 260.361L67.7497 220.369" stroke="white" stroke-width="0.9267" stroke-miterlimit="10" stroke-linecap="round"/>
<path opacity="0.37" d="M137.784 231.593C124.146 230.181 111.29 233.347 99.1722 240.721L86.5208 182.673C98.6656 175.684 111.536 172.689 125.132 173.545L137.784 231.593Z" stroke="white" stroke-width="1.3187" stroke-miterlimit="10" stroke-linecap="round"/>
<g opacity="0.37">
<path opacity="0.37" d="M92.354 188.22C101.733 182.815 111.673 180.504 122.175 181.174" stroke="white" stroke-width="1.3187" stroke-miterlimit="10" stroke-linecap="round"/>
<path opacity="0.37" d="M94.6957 198.945C104.075 193.539 114.015 191.229 124.517 191.899" stroke="white" stroke-width="1.3187" stroke-miterlimit="10" stroke-linecap="round"/>
<path opacity="0.37" d="M97.0365 209.685C106.416 204.28 116.356 201.969 126.858 202.639" stroke="white" stroke-width="1.3187" stroke-miterlimit="10" stroke-linecap="round"/>
<path opacity="0.37" d="M99.3783 220.424C108.757 215.019 118.698 212.708 129.199 213.379" stroke="white" stroke-width="1.3187" stroke-miterlimit="10" stroke-linecap="round"/>
<path opacity="0.37" d="M101.719 231.15C111.098 225.745 121.038 223.434 131.54 224.104" stroke="white" stroke-width="1.3187" stroke-miterlimit="10" stroke-linecap="round"/>
</g>
<path opacity="0.37" d="M176.396 222.465C162.758 221.053 149.902 224.219 137.784 231.593L125.133 173.544C137.277 166.556 150.148 163.561 163.744 164.416L176.396 222.465Z" stroke="white" stroke-width="1.3187" stroke-miterlimit="10" stroke-linecap="round"/>
<g opacity="0.37">
<path opacity="0.37" d="M130.966 179.093C140.345 173.688 150.285 171.377 160.787 172.047" stroke="white" stroke-width="1.3187" stroke-miterlimit="10" stroke-linecap="round"/>
<path opacity="0.37" d="M133.307 189.818C142.687 184.413 152.627 182.102 163.129 182.772" stroke="white" stroke-width="1.3187" stroke-miterlimit="10" stroke-linecap="round"/>
<path opacity="0.37" d="M135.648 200.559C145.027 195.153 154.968 192.843 165.469 193.513" stroke="white" stroke-width="1.3187" stroke-miterlimit="10" stroke-linecap="round"/>
<path opacity="0.37" d="M137.99 211.284C147.369 205.878 157.309 203.568 167.811 204.238" stroke="white" stroke-width="1.3187" stroke-miterlimit="10" stroke-linecap="round"/>
<path opacity="0.37" d="M140.331 222.024C149.71 216.618 159.65 214.308 170.152 214.978" stroke="white" stroke-width="1.3187" stroke-miterlimit="10" stroke-linecap="round"/>
</g>
<path opacity="0.37" d="M164.689 168.737L169.057 167.71L181.845 226.415L94.764 247.01L81.962 188.305L87.4662 186.993" stroke="white" stroke-width="1.3187" stroke-miterlimit="10" stroke-linecap="round"/>
<path opacity="0.37" d="M99.1732 240.721L137.949 232.349L176.396 222.465" stroke="white" stroke-width="1.3187" stroke-miterlimit="10" stroke-linecap="round"/>
<path opacity="0.37" d="M166.785 320.363L124.613 278.588C121.656 275.664 116.987 275.778 114.18 278.859L87.3575 308.24C84.5506 311.32 84.6602 316.184 87.6176 319.108L129.789 360.897C132.746 363.821 137.415 363.707 140.222 360.626L167.045 331.245C169.852 328.164 169.729 323.301 166.785 320.363Z" stroke="white" stroke-width="1.2556" stroke-miterlimit="10" stroke-linecap="round"/>
<path opacity="0.37" d="M132.089 299.853L110.1 323.942C109.168 324.969 107.621 324.998 106.635 324.028L96.873 314.358C95.8872 313.388 95.8598 311.776 96.7909 310.749L118.78 286.66C119.711 285.633 121.258 285.605 122.244 286.574L132.007 296.244C132.979 297.214 133.02 298.84 132.089 299.853Z" stroke="white" stroke-width="1.2556" stroke-miterlimit="10" stroke-linecap="round"/>
<g opacity="0.37">
<path opacity="0.37" d="M91.7114 318.837C91.7114 318.466 91.8484 318.095 92.1222 317.81C92.67 317.239 93.5464 317.239 94.0942 317.81C94.6419 318.381 94.6419 319.293 94.0942 319.864C93.834 320.135 93.5053 320.278 93.1767 320.292" stroke="white" stroke-width="1.2556" stroke-miterlimit="10" stroke-linecap="round"/>
<path opacity="0.37" d="M92.0255 318.437L86.9594 323.743C86.5624 324.157 86.5624 324.841 86.9594 325.255C87.3565 325.668 88.0137 325.668 88.4108 325.255L93.4768 319.949C93.8739 319.536 93.8739 318.851 93.4768 318.437C93.0797 318.024 92.4225 318.024 92.0255 318.437Z" stroke="white" stroke-width="1.2556" stroke-miterlimit="10" stroke-linecap="round"/>
</g>
<g opacity="0.37">
<path opacity="0.37" d="M98.9142 325.768C98.9142 325.397 99.0512 325.026 99.3251 324.741C99.8728 324.17 100.749 324.17 101.297 324.741C101.845 325.311 101.845 326.224 101.297 326.795C101.037 327.066 100.708 327.209 100.38 327.223" stroke="white" stroke-width="1.2556" stroke-miterlimit="10" stroke-linecap="round"/>
<path opacity="0.37" d="M99.2282 325.368L94.1622 330.673C93.7651 331.087 93.7651 331.772 94.1622 332.185C94.5592 332.599 95.2165 332.599 95.6135 332.185L100.68 326.879C101.077 326.466 101.077 325.781 100.68 325.368C100.283 324.954 99.639 324.954 99.2282 325.368Z" stroke="white" stroke-width="1.2556" stroke-miterlimit="10" stroke-linecap="round"/>
</g>
<g opacity="0.37">
<path opacity="0.37" d="M106.115 332.7C106.115 332.329 106.252 331.958 106.526 331.673C107.074 331.102 107.95 331.102 108.498 331.673C109.046 332.243 109.046 333.156 108.498 333.727C108.238 333.998 107.909 334.14 107.581 334.155" stroke="white" stroke-width="1.2556" stroke-miterlimit="10" stroke-linecap="round"/>
<path opacity="0.37" d="M106.443 332.3L101.377 337.606C100.98 338.019 100.98 338.704 101.377 339.117C101.774 339.531 102.431 339.531 102.828 339.117L107.895 333.812C108.292 333.398 108.292 332.714 107.895 332.3C107.484 331.872 106.84 331.886 106.443 332.3Z" stroke="white" stroke-width="1.2556" stroke-miterlimit="10" stroke-linecap="round"/>
</g>
<g opacity="0.37">
<path opacity="0.37" d="M113.331 339.632C113.331 339.261 113.468 338.89 113.742 338.605C114.29 338.034 115.166 338.034 115.714 338.605C116.262 339.176 116.262 340.088 115.714 340.659C115.454 340.93 115.125 341.073 114.796 341.087" stroke="white" stroke-width="1.2556" stroke-miterlimit="10" stroke-linecap="round"/>
<path opacity="0.37" d="M113.645 339.233L108.579 344.538C108.182 344.952 108.182 345.637 108.579 346.05C108.976 346.464 109.633 346.464 110.03 346.05L115.096 340.745C115.493 340.331 115.493 339.646 115.096 339.233C114.699 338.805 114.042 338.819 113.645 339.233Z" stroke="white" stroke-width="1.2556" stroke-miterlimit="10" stroke-linecap="round"/>
</g>
<g opacity="0.37">
<path opacity="0.37" d="M120.534 346.565C120.534 346.194 120.671 345.823 120.945 345.538C121.492 344.967 122.369 344.967 122.917 345.538C123.464 346.108 123.464 347.021 122.917 347.592C122.656 347.863 122.328 348.005 121.999 348.02" stroke="white" stroke-width="1.2556" stroke-miterlimit="10" stroke-linecap="round"/>
<path opacity="0.37" d="M120.848 346.166L115.782 351.471C115.385 351.885 115.385 352.57 115.782 352.983C116.179 353.397 116.836 353.397 117.233 352.983L122.299 347.678C122.696 347.264 122.696 346.579 122.299 346.166C121.902 345.738 121.245 345.738 120.848 346.166Z" stroke="white" stroke-width="1.2556" stroke-miterlimit="10" stroke-linecap="round"/>
</g>
<g opacity="0.37">
<path opacity="0.37" d="M127.734 353.495C127.734 353.124 127.871 352.753 128.145 352.468C128.693 351.897 129.569 351.897 130.117 352.468C130.665 353.038 130.665 353.951 130.117 354.522C129.857 354.793 129.528 354.935 129.2 354.95" stroke="white" stroke-width="1.2556" stroke-miterlimit="10" stroke-linecap="round"/>
<path opacity="0.37" d="M128.048 353.095L122.982 358.401C122.585 358.814 122.585 359.499 122.982 359.912C123.379 360.326 124.037 360.326 124.434 359.912L129.5 354.607C129.897 354.193 129.897 353.509 129.5 353.095C129.103 352.681 128.459 352.667 128.048 353.095Z" stroke="white" stroke-width="1.2556" stroke-miterlimit="10" stroke-linecap="round"/>
</g>
<path opacity="0.37" d="M261.888 67.9879L304.772 38.1651C307.77 36.0827 308.578 31.8468 306.579 28.7233L287.438 -1.14237C285.439 -4.26585 281.372 -5.10734 278.373 -3.02501L235.49 26.7978C232.492 28.8802 231.684 33.1161 233.683 36.2396L252.824 66.1053C254.823 69.2288 258.876 70.0702 261.888 67.9879Z" stroke="white" stroke-width="1.1124" stroke-miterlimit="10" stroke-linecap="round"/>
<path opacity="0.37" d="M285.508 40.5186L270.118 16.5006C269.365 15.331 269.666 13.7479 270.789 12.9635L280.25 6.38844C281.373 5.604 282.893 5.91778 283.646 7.0873L299.036 31.1053C299.789 32.2749 299.487 33.858 298.365 34.6424L288.903 41.2174C287.781 42.0019 286.261 41.6881 285.508 40.5186Z" stroke="white" stroke-width="1.1124" stroke-miterlimit="10" stroke-linecap="round"/>
<g opacity="0.37">
<path opacity="0.37" d="M277.785 0.697861C278.1 0.769184 278.374 0.96889 278.552 1.26845C278.922 1.86756 278.744 2.66637 278.168 3.03725C277.593 3.42239 276.826 3.23696 276.47 2.63784C276.292 2.35255 276.251 2.02447 276.292 1.72491" stroke="white" stroke-width="1.1124" stroke-miterlimit="10" stroke-linecap="round"/>
<path opacity="0.37" d="M278.046 1.06733L274.623 -4.52357C274.349 -4.96571 273.787 -5.09407 273.363 -4.80882C272.939 -4.52357 272.815 -3.93881 273.089 -3.49667L276.512 2.09422C276.786 2.53636 277.347 2.66472 277.772 2.37947C278.196 2.09422 278.32 1.50946 278.046 1.06733Z" stroke="white" stroke-width="1.1124" stroke-miterlimit="10" stroke-linecap="round"/>
</g>
<g opacity="0.37">
<path opacity="0.37" d="M270.624 5.83423C270.939 5.90555 271.213 6.10525 271.405 6.40481C271.774 7.00392 271.596 7.80274 271.021 8.17362C270.446 8.55876 269.679 8.37332 269.323 7.77421C269.145 7.48891 269.09 7.16083 269.145 6.86127" stroke="white" stroke-width="1.1124" stroke-miterlimit="10" stroke-linecap="round"/>
<path opacity="0.37" d="M270.897 6.20337L267.474 0.612471C267.201 0.170333 266.639 0.0419754 266.215 0.327225C265.79 0.612475 265.667 1.19723 265.941 1.63937L269.364 7.23027C269.638 7.67241 270.199 7.80077 270.624 7.51552C271.034 7.23027 271.171 6.64551 270.897 6.20337Z" stroke="white" stroke-width="1.1124" stroke-miterlimit="10" stroke-linecap="round"/>
</g>
<g opacity="0.37">
<path opacity="0.37" d="M263.477 10.9661C263.792 11.0374 264.066 11.2371 264.244 11.5367C264.613 12.1358 264.435 12.9346 263.86 13.3055C263.285 13.6764 262.518 13.5052 262.162 12.9061C261.984 12.6208 261.929 12.2927 261.984 11.9931" stroke="white" stroke-width="1.1124" stroke-miterlimit="10" stroke-linecap="round"/>
<path opacity="0.37" d="M263.737 11.3364L260.314 5.74555C260.04 5.30341 259.478 5.17505 259.054 5.4603C258.629 5.74555 258.506 6.33031 258.78 6.77245L262.203 12.3633C262.477 12.8055 263.038 12.9338 263.463 12.6486C263.887 12.3633 264.01 11.7786 263.737 11.3364Z" stroke="white" stroke-width="1.1124" stroke-miterlimit="10" stroke-linecap="round"/>
</g>
<g opacity="0.37">
<path opacity="0.37" d="M256.317 16.1029C256.632 16.1743 256.906 16.374 257.098 16.6735C257.468 17.2726 257.29 18.0714 256.715 18.4423C256.139 18.8275 255.373 18.642 255.016 18.0429C254.838 17.7576 254.784 17.4295 254.838 17.13" stroke="white" stroke-width="1.1124" stroke-miterlimit="10" stroke-linecap="round"/>
<path opacity="0.37" d="M256.589 16.472L253.166 10.8811C252.893 10.439 252.331 10.3106 251.907 10.5959C251.482 10.8811 251.359 11.4659 251.633 11.908L255.056 17.4989C255.33 17.941 255.891 18.0694 256.316 17.7842C256.74 17.4989 256.863 16.9141 256.589 16.472Z" stroke="white" stroke-width="1.1124" stroke-miterlimit="10" stroke-linecap="round"/>
</g>
<g opacity="0.37">
<path opacity="0.37" d="M249.169 21.2492C249.484 21.3205 249.758 21.5202 249.936 21.8198C250.305 22.4189 250.127 23.2177 249.552 23.5886C248.977 23.9737 248.21 23.7883 247.854 23.1892C247.676 22.9039 247.621 22.5758 247.676 22.2762" stroke="white" stroke-width="1.1124" stroke-miterlimit="10" stroke-linecap="round"/>
<path opacity="0.37" d="M249.428 21.6051L246.005 16.0142C245.732 15.5721 245.17 15.4437 244.746 15.7289C244.321 16.0142 244.198 16.599 244.472 17.0411L247.895 22.632C248.169 23.0741 248.73 23.2025 249.155 22.9172C249.579 22.632 249.702 22.0472 249.428 21.6051Z" stroke="white" stroke-width="1.1124" stroke-miterlimit="10" stroke-linecap="round"/>
</g>
<g opacity="0.37">
<path opacity="0.37" d="M242.007 26.3855C242.322 26.4569 242.596 26.6566 242.774 26.9561C243.144 27.5552 242.966 28.3541 242.391 28.7249C241.816 29.1101 241.049 28.9246 240.693 28.3255C240.515 28.0402 240.46 27.7121 240.515 27.4126" stroke="white" stroke-width="1.1124" stroke-miterlimit="10" stroke-linecap="round"/>
<path opacity="0.37" d="M242.281 26.7412L238.858 21.1503C238.585 20.7081 238.023 20.5798 237.599 20.865C237.174 21.1503 237.051 21.735 237.325 22.1772L240.748 27.7681C241.022 28.2102 241.583 28.3386 242.008 28.0533C242.432 27.7681 242.555 27.1833 242.281 26.7412Z" stroke="white" stroke-width="1.1124" stroke-miterlimit="10" stroke-linecap="round"/>
</g>
<path opacity="0.37" d="M647.374 155.374C647.374 156.8 646.264 157.956 644.895 157.956C643.526 157.956 642.416 156.8 642.416 155.374C642.416 153.947 643.526 152.792 644.895 152.792C646.264 152.792 647.374 153.947 647.374 155.374Z" stroke="white" stroke-width="0.9267" stroke-miterlimit="10" stroke-linecap="round"/>
<path opacity="0.37" d="M675.209 68.2162C675.209 69.5285 674.182 70.5983 672.922 70.5983C671.662 70.5983 670.635 69.5285 670.635 68.2162C670.635 66.9038 671.662 65.834 672.922 65.834C674.182 65.834 675.209 66.8896 675.209 68.2162Z" stroke="white" stroke-width="0.9267" stroke-miterlimit="10" stroke-linecap="round"/>
<path opacity="0.37" d="M578.57 61.0711C581.625 61.0711 584.102 58.4914 584.102 55.3091C584.102 52.1268 581.625 49.5471 578.57 49.5471C575.515 49.5471 573.039 52.1268 573.039 55.3091C573.039 58.4914 575.515 61.0711 578.57 61.0711Z" stroke="white" stroke-width="0.9267" stroke-miterlimit="10" stroke-linecap="round"/>
<path opacity="0.37" d="M623.548 313.204C624.494 313.204 625.26 312.405 625.26 311.421C625.26 310.436 624.494 309.637 623.548 309.637C622.603 309.637 621.837 310.436 621.837 311.421C621.837 312.405 622.603 313.204 623.548 313.204Z" stroke="white" stroke-width="0.9267" stroke-miterlimit="10" stroke-linecap="round"/>
<path opacity="0.37" d="M717.901 282.439C717.901 284.521 716.285 286.204 714.286 286.204C712.287 286.204 710.671 284.521 710.671 282.439C710.671 280.356 712.287 278.673 714.286 278.673C716.271 278.659 717.901 280.356 717.901 282.439Z" stroke="white" stroke-width="0.9267" stroke-miterlimit="10" stroke-linecap="round"/>
<path opacity="0.37" d="M640.896 454.174C640.896 456.142 639.363 457.753 637.459 457.753C635.57 457.753 634.023 456.156 634.023 454.174C634.023 452.191 635.556 450.594 637.459 450.594C639.363 450.594 640.896 452.191 640.896 454.174Z" stroke="white" stroke-width="0.9267" stroke-miterlimit="10" stroke-linecap="round"/>
<path opacity="0.37" d="M614.978 531.206C614.978 532.746 613.787 533.987 612.308 533.987C610.829 533.987 609.638 532.746 609.638 531.206C609.638 529.665 610.829 528.424 612.308 528.424C613.787 528.424 614.978 529.665 614.978 531.206Z" stroke="white" stroke-width="0.9267" stroke-miterlimit="10" stroke-linecap="round"/>
<path opacity="0.37" d="M651.562 584.204C651.562 586.287 649.946 587.97 647.947 587.97C645.948 587.97 644.332 586.287 644.332 584.204C644.332 582.122 645.948 580.439 647.947 580.439C649.946 580.439 651.562 582.122 651.562 584.204Z" stroke="white" stroke-width="0.9267" stroke-miterlimit="10" stroke-linecap="round"/>
<path opacity="0.37" d="M716.367 564.551C716.367 566.747 714.656 568.516 712.561 568.516C710.466 568.516 708.754 566.733 708.754 564.551C708.754 562.354 710.466 560.586 712.561 560.586C714.656 560.586 716.367 562.368 716.367 564.551Z" stroke="white" stroke-width="0.9267" stroke-miterlimit="10" stroke-linecap="round"/>
<path opacity="0.37" d="M542.164 551.857C544.062 551.857 545.601 550.254 545.601 548.277C545.601 546.3 544.062 544.697 542.164 544.697C540.266 544.697 538.727 546.3 538.727 548.277C538.727 550.254 540.266 551.857 542.164 551.857Z" stroke="white" stroke-width="0.9267" stroke-miterlimit="10" stroke-linecap="round"/>
<path opacity="0.37" d="M434.285 558.989C434.285 560.744 432.916 562.17 431.232 562.17C429.547 562.17 428.178 560.744 428.178 558.989C428.178 557.234 429.547 555.808 431.232 555.808C432.93 555.822 434.285 557.234 434.285 558.989Z" stroke="white" stroke-width="0.9267" stroke-miterlimit="10" stroke-linecap="round"/>
<path opacity="0.37" d="M358.047 530.007C358.047 532.203 356.336 533.972 354.241 533.972C352.146 533.972 350.434 532.189 350.434 530.007C350.434 527.825 352.146 526.042 354.241 526.042C356.336 526.042 358.047 527.81 358.047 530.007Z" stroke="white" stroke-width="0.9267" stroke-miterlimit="10" stroke-linecap="round"/>
<path opacity="0.37" d="M239.886 557.006C239.886 558.761 238.517 560.187 236.832 560.187C235.148 560.187 233.779 558.761 233.779 557.006C233.779 555.252 235.148 553.825 236.832 553.825C238.517 553.839 239.886 555.252 239.886 557.006Z" stroke="white" stroke-width="0.9267" stroke-miterlimit="10" stroke-linecap="round"/>
<path opacity="0.37" d="M178.887 537.752C178.887 539.834 177.272 541.517 175.273 541.517C173.274 541.517 171.658 539.834 171.658 537.752C171.658 535.669 173.274 533.986 175.273 533.986C177.272 533.986 178.887 535.669 178.887 537.752Z" stroke="white" stroke-width="0.9267" stroke-miterlimit="10" stroke-linecap="round"/>
<path opacity="0.37" d="M178.134 441.864C178.134 444.717 175.916 447.027 173.178 447.027C170.439 447.027 168.221 444.717 168.221 441.864C168.221 439.012 170.439 436.701 173.178 436.701C175.916 436.701 178.134 439.012 178.134 441.864Z" stroke="white" stroke-width="0.9267" stroke-miterlimit="10" stroke-linecap="round"/>
<path opacity="0.37" d="M103.034 458.538C103.034 460.734 101.323 462.503 99.2279 462.503C97.1193 462.503 95.4215 460.72 95.4215 458.538C95.4215 456.341 97.133 454.573 99.2279 454.573C101.323 454.559 103.034 456.341 103.034 458.538Z" stroke="white" stroke-width="0.9267" stroke-miterlimit="10" stroke-linecap="round"/>
<path opacity="0.37" d="M158.692 384.287C158.692 385.386 157.843 386.27 156.789 386.27C155.735 386.27 154.885 385.386 154.885 384.287C154.885 383.189 155.735 382.305 156.789 382.305C157.843 382.305 158.692 383.189 158.692 384.287Z" stroke="white" stroke-width="0.9267" stroke-miterlimit="10" stroke-linecap="round"/>
<path opacity="0.37" d="M90.4505 269.731C90.4505 272.256 88.4925 274.295 86.0691 274.295C83.6456 274.295 81.6876 272.256 81.6876 269.731C81.6876 267.207 83.6456 265.167 86.0691 265.167C88.4925 265.167 90.4505 267.207 90.4505 269.731Z" stroke="white" stroke-width="0.9267" stroke-miterlimit="10" stroke-linecap="round"/>
<path opacity="0.37" d="M179.271 270.715C179.271 273.567 177.053 275.878 174.314 275.878C171.576 275.878 169.358 273.567 169.358 270.715C169.358 267.862 171.576 265.552 174.314 265.552C177.053 265.552 179.271 267.862 179.271 270.715Z" stroke="white" stroke-width="0.9267" stroke-miterlimit="10" stroke-linecap="round"/>
<path opacity="0.37" d="M133.527 131.541C133.527 134.936 130.884 137.703 127.612 137.703C124.353 137.703 121.697 134.95 121.697 131.541C121.697 128.132 124.339 125.38 127.612 125.38C130.884 125.394 133.527 128.147 133.527 131.541Z" stroke="white" stroke-width="0.9267" stroke-miterlimit="10" stroke-linecap="round"/>
<path opacity="0.37" d="M199.48 152.593C199.48 154.675 197.865 156.358 195.866 156.358C193.867 156.358 192.251 154.675 192.251 152.593C192.251 150.51 193.867 148.827 195.866 148.827C197.865 148.827 199.48 150.51 199.48 152.593Z" stroke="white" stroke-width="0.9267" stroke-miterlimit="10" stroke-linecap="round"/>
<path opacity="0.37" d="M204.245 30.0935C205.614 30.0935 206.724 28.9376 206.724 27.5116C206.724 26.0857 205.614 24.9297 204.245 24.9297C202.876 24.9297 201.766 26.0857 201.766 27.5116C201.766 28.9376 202.876 30.0935 204.245 30.0935Z" stroke="white" stroke-width="0.9267" stroke-miterlimit="10" stroke-linecap="round"/>
<path opacity="0.37" d="M268.091 132.341C268.091 133.553 267.146 134.523 265.996 134.523C264.832 134.523 263.901 133.539 263.901 132.341C263.901 131.128 264.846 130.158 265.996 130.158C267.146 130.158 268.091 131.128 268.091 132.341Z" stroke="white" stroke-width="0.9267" stroke-miterlimit="10" stroke-linecap="round"/>
<path opacity="0.37" d="M346.999 58.875C346.999 61.1712 345.205 63.0396 343.001 63.0396C340.797 63.0396 339.003 61.1712 339.003 58.875C339.003 56.5787 340.797 54.7103 343.001 54.7103C345.205 54.7103 346.999 56.5787 346.999 58.875Z" stroke="white" stroke-width="0.9267" stroke-miterlimit="10" stroke-linecap="round"/>
<path opacity="0.37" d="M469.364 31.6755C469.364 33.2161 468.173 34.4571 466.694 34.4571C465.215 34.4571 464.023 33.2161 464.023 31.6755C464.023 30.135 465.215 28.8939 466.694 28.8939C468.159 28.9082 469.364 30.1492 469.364 31.6755Z" stroke="white" stroke-width="0.9267" stroke-miterlimit="10" stroke-linecap="round"/>
<path opacity="0.37" d="M544.054 115.326C544.054 117.181 542.602 118.693 540.822 118.693C539.042 118.693 537.59 117.181 537.59 115.326C537.59 113.472 539.042 111.96 540.822 111.96C542.616 111.96 544.054 113.472 544.054 115.326Z" stroke="white" stroke-width="0.9267" stroke-miterlimit="10" stroke-linecap="round"/>
<path opacity="0.5" fill-rule="evenodd" clip-rule="evenodd" d="M0 521.753V589C0 611.092 17.9086 629 40 629H728C750.091 629 768 611.092 768 589V560.953C765.415 561.477 762.74 561.753 760 561.753H40C17.9086 561.753 0 543.844 0 521.753Z" fill="#0077BB"/>
</g>
<defs>
<linearGradient id="paint0_linear_9_40" x1="-137.28" y1="-203.173" x2="574.519" y2="665.145" gradientUnits="userSpaceOnUse">
<stop stop-color="#12DD63"/>
<stop offset="0.547093" stop-color="#30BEEC"/>
<stop offset="1" stop-color="#0083E1"/>
</linearGradient>
<clipPath id="clip0_9_40">
<path d="M0 0H768V589C768 611.091 750.091 629 728 629H40C17.9086 629 0 611.091 0 589V0Z" fill="white"/>
</clipPath>
</defs>
</svg>
