<svg width="156" height="84" viewBox="0 0 156 84" fill="none" xmlns="http://www.w3.org/2000/svg">
<g clip-path="url(#clip0_157_31782)">
<g clip-path="url(#clip1_157_31782)">
<mask id="mask0_157_31782" style="mask-type:luminance" maskUnits="userSpaceOnUse" x="-78" y="-139" width="266" height="205">
<path d="M-22.3911 -137.932L-22.203 -138.171C-12.5471 -135.13 -2.61537 -131.541 7.28442 -127.623C16.3245 -124.046 25.3384 -120.194 34.0914 -116.235L35.8604 -114.841C26.565 -119.078 16.952 -123.207 7.309 -127.023C-2.64474 -130.962 -12.6333 -134.569 -22.3404 -137.618L-22.3911 -137.932ZM-26.3944 -132.85L-26.2053 -133.09C-12.4605 -128.844 1.91516 -123.526 15.9473 -117.735C29.2269 -112.254 42.1943 -106.35 54.0249 -100.532L56.0429 -98.9419C43.6762 -105.084 29.9888 -111.351 15.956 -117.142C1.88519 -122.95 -12.5422 -128.283 -26.3401 -132.534L-26.3944 -132.85ZM-60.5209 -89.5303L-60.3136 -89.7935C-56.529 -89.01 -52.6586 -88.1577 -48.7399 -87.2337C-29.1471 -82.6166 -8.82535 -76.3212 7.52917 -68.1621C23.9938 -59.9479 36.4598 -49.841 40.198 -37.6436C40.2806 -37.3725 40.365 -37.08 40.4493 -36.7678L40.4507 -36.7642C46.0186 -15.1587 52.6622 1.32321 62.5998 12.6229C72.4795 23.8564 85.6783 29.9843 104.412 30.9604C110.66 31.2861 117.553 31.2423 124.616 31.1981C144.929 31.0702 166.65 30.9337 179.016 39.5716L178.891 39.7966L178.732 39.9984C166.678 31.6068 145.129 31.7419 124.974 31.8684C117.908 31.9132 111.012 31.9565 104.733 31.6294C85.6826 30.6373 72.2195 24.3597 62.0947 12.8471C52.0274 1.40001 45.3195 -15.2081 39.7181 -36.9434C39.6471 -37.2074 39.564 -37.4929 39.4724 -37.7937C35.8352 -49.6632 23.6135 -59.5441 7.45736 -67.6041C-8.80888 -75.7193 -29.0455 -81.9863 -48.5661 -86.5868C-52.5392 -87.523 -56.5067 -88.3949 -60.4217 -89.2024L-60.5211 -89.529L-60.5209 -89.5303ZM-64.0015 -85.1121L-63.7915 -85.3787C-56.6296 -83.9976 -49.2446 -82.381 -41.8947 -80.5031C-24.9767 -76.1807 -8.24325 -70.4771 5.16221 -63.0931C18.6595 -55.6589 28.7971 -46.5236 32.4044 -35.383C32.6274 -34.6933 32.8258 -33.9943 32.9985 -33.2885L32.9993 -33.2863C38.4377 -10.1409 45.5768 6.71389 56.2209 18.0114C66.8152 29.2562 80.9472 35.0183 100.417 36.0326C106.664 36.3582 113.557 36.3144 120.62 36.2703C140.934 36.1423 162.654 36.0058 175.02 44.6437L174.895 44.8687L174.736 45.0706C162.682 36.6789 141.133 36.814 120.978 36.9406C113.913 36.9853 107.016 37.0286 100.738 36.7016C80.9758 35.6719 66.59 29.7793 55.748 18.2716C44.9547 6.81577 37.7375 -10.1824 32.2637 -33.4779C32.0958 -34.1659 31.9018 -34.8478 31.6843 -35.5216C28.1738 -46.3629 18.2572 -55.2815 5.04246 -62.5599C-8.26384 -69.8889 -24.9033 -75.5581 -41.7387 -79.8596C-49.1758 -81.76 -56.6524 -83.3925 -63.8962 -84.7834L-64.001 -85.1106L-64.0015 -85.1121ZM-67.3996 -80.7986L-67.1861 -81.0696C-58.0372 -79.4316 -48.5458 -77.3902 -39.274 -74.863C-24.5394 -70.8472 -10.3608 -65.6046 1.01294 -58.8052C12.4624 -51.9602 21.0787 -43.5429 24.5917 -33.2204C24.9699 -32.1094 25.2892 -30.9725 25.5465 -29.8121L25.5474 -29.8099C30.8562 -5.12441 38.4919 12.105 49.8415 23.4006C61.151 34.656 76.2171 40.0511 96.4211 41.1034C102.669 41.4287 109.563 41.3857 116.626 41.3413C136.939 41.2137 158.659 41.0769 171.024 49.7148L170.899 49.9398L170.74 50.1417C158.686 41.75 137.139 41.885 116.985 42.012C109.919 42.0563 103.02 42.0994 96.7422 41.7723C76.2688 40.7057 60.9591 35.1963 49.4 23.6924C37.8814 12.229 30.1543 -5.15834 24.8083 -30.0143C24.5577 -31.1443 24.2452 -32.2552 23.8743 -33.3463C20.4539 -43.3965 12.038 -51.6077 0.846999 -58.2978C-10.419 -65.0325 -24.4928 -70.2337 -39.1334 -74.2237C-48.4783 -76.7707 -58.0584 -78.8243 -67.2875 -80.4687L-67.3996 -80.7986ZM-70.7114 -76.5946L-70.4957 -76.8684C-60.2797 -75.1706 -49.6805 -72.9399 -39.5131 -70.0181C-26.4949 -66.2767 -14.1726 -61.3996 -4.24114 -55.0525C5.75155 -48.6662 13.3253 -40.7994 16.7687 -31.1185C17.3197 -29.5695 17.7648 -27.9737 18.0952 -26.3342C23.2747 -0.109008 31.4058 17.4956 43.4627 28.7911C55.4872 40.0562 71.4876 45.0842 92.4256 46.1752C98.6735 46.5005 105.567 46.4575 112.63 46.4131C132.944 46.2855 154.663 46.1487 167.029 54.786L166.904 55.011L166.745 55.2129C154.691 46.8215 133.143 46.9564 112.989 47.0831C105.923 47.1274 99.0253 47.1706 92.7472 46.8435C71.5607 45.7398 55.3285 40.613 43.0534 29.1124C30.8104 17.6426 22.5736 -0.132164 17.3559 -26.5482C17.031 -28.1589 16.5953 -29.7221 16.0565 -31.2369C12.7029 -40.6657 5.31328 -48.3352 -4.44094 -54.5693C-14.2559 -60.8421 -26.4684 -65.6724 -39.3861 -69.3844C-49.6276 -72.3279 -60.3102 -74.5676 -70.594 -76.266L-70.7114 -76.5946ZM-73.9338 -72.5041L-73.7147 -72.7823C-63.0685 -71.1355 -52.0588 -68.8627 -41.6407 -65.7329C-29.9714 -62.2275 -19.0383 -57.6449 -10.1723 -51.6588C-1.25673 -45.6392 5.56528 -38.2099 8.94852 -29.0462C9.67946 -27.0659 10.2501 -25.0035 10.644 -22.8587L10.6448 -22.8565C15.6953 4.91012 24.3228 22.8897 37.0847 34.1839C49.8244 45.4586 66.7601 50.1181 88.4309 51.2471C94.6788 51.5725 101.572 51.5297 108.636 51.485C128.949 51.3574 150.668 51.2206 163.034 59.858L162.909 60.0829L162.75 60.2848C150.696 51.8934 129.148 52.0284 108.994 52.155C101.928 52.1993 95.0306 52.2425 88.7522 51.9158C66.8527 50.7749 49.6971 46.0296 36.7059 34.5326C23.7374 23.0556 14.9899 4.89254 9.90134 -23.0824C9.51422 -25.1883 8.95447 -27.2125 8.2372 -29.1548C4.9411 -38.0825 -1.71091 -45.3237 -10.405 -51.1944C-19.1501 -57.0989 -29.9661 -61.6289 -41.5244 -65.1007C-52.0054 -68.2493 -63.0968 -70.5277 -73.8123 -72.1732L-73.9338 -72.5041ZM-76.9442 -68.1923C-59.1838 -65.6377 -40.5756 -61.1811 -25.777 -53.4925C-11.08 -45.8569 -0.136066 -35.005 2.4478 -19.6148C7.40746 9.91881 16.664 28.4678 30.3562 39.9501C44.0628 51.4444 62.1413 55.8088 84.7557 56.9868C91.034 57.3135 97.9312 57.2706 104.998 57.226C125.152 57.099 146.7 56.9644 158.754 65.3558L158.913 65.1539L159.038 64.929C146.672 56.2913 124.953 56.4281 104.639 56.556C97.5761 56.6004 90.6827 56.6439 84.4344 56.3181C62.0323 55.1511 44.162 50.8603 30.7065 39.5769C17.2372 28.2817 8.11275 9.92572 3.191 -19.3831C0.54743 -35.1253 -10.6483 -46.2262 -25.6848 -54.0384C-40.5214 -61.7469 -59.0999 -66.2273 -76.8495 -68.8041L-77.0706 -68.5235L-76.9442 -68.1923Z" fill="white"/>
</mask>
<g mask="url(#mask0_157_31782)">
<path opacity="0.5" d="M-88.9999 -53.3795L-11.3083 -152L199.288 13.9039L121.596 112.524L-88.9999 -53.3795Z" fill="#BCBFD6"/>
</g>
</g>
</g>
<defs>
<clipPath id="clip0_157_31782">
<rect width="156" height="84" fill="white"/>
</clipPath>
<clipPath id="clip1_157_31782">
<rect width="125.547" height="268.095" fill="white" transform="matrix(-0.618826 0.785528 0.785528 0.618826 -11.3083 -152)"/>
</clipPath>
</defs>
</svg>
