<svg width="21" height="20" viewBox="0 0 21 20" fill="none" xmlns="http://www.w3.org/2000/svg">
<path fill-rule="evenodd" clip-rule="evenodd" d="M7.79167 2.29163C7.79167 1.94645 7.51184 1.66663 7.16667 1.66663C6.82149 1.66663 6.54167 1.94645 6.54167 2.29163V2.9441C4.07048 3.16989 3 4.76976 3 7.08329V7.57496V14.1666C3 16.6666 4.25 18.3333 7.16667 18.3333H13.8333C16.75 18.3333 18 16.6666 18 14.1666V7.08329C18 4.76976 16.9295 3.16989 14.4583 2.9441V2.29163C14.4583 1.94645 14.1785 1.66663 13.8333 1.66663C13.4882 1.66663 13.2083 1.94645 13.2083 2.29163V2.91663H7.79167V2.29163ZM6.54167 4.20035V4.79163C6.54167 5.1368 6.82149 5.41663 7.16667 5.41663C7.51184 5.41663 7.79167 5.1368 7.79167 4.79163V4.16663H13.2083V4.79163C13.2083 5.1368 13.4882 5.41663 13.8333 5.41663C14.1785 5.41663 14.4583 5.1368 14.4583 4.79163V4.20035C15.291 4.29611 15.789 4.5841 16.0944 4.91302C16.4686 5.31595 16.7272 5.9665 16.7486 6.94996H4.25143C4.2728 5.9665 4.53143 5.31595 4.90558 4.91302C5.21101 4.5841 5.70895 4.29611 6.54167 4.20035ZM4.25 8.19996V14.1666C4.25 15.225 4.51478 15.916 4.90558 16.3369C5.2808 16.741 5.94658 17.0833 7.16667 17.0833H13.8333C15.0534 17.0833 15.7192 16.741 16.0944 16.3369C16.4852 15.916 16.75 15.225 16.75 14.1666V8.19996H4.25ZM12.7453 11.4166C12.7453 10.9564 13.1184 10.5833 13.5786 10.5833H13.5861C14.0463 10.5833 14.4194 10.9564 14.4194 11.4166C14.4194 11.8769 14.0463 12.25 13.5861 12.25H13.5786C13.1184 12.25 12.7453 11.8769 12.7453 11.4166ZM13.5786 13.0833C13.1184 13.0833 12.7453 13.4564 12.7453 13.9166C12.7453 14.3769 13.1184 14.75 13.5786 14.75H13.5861C14.0463 14.75 14.4194 14.3769 14.4194 13.9166C14.4194 13.4564 14.0463 13.0833 13.5861 13.0833H13.5786ZM9.6626 11.4166C9.6626 10.9564 10.0357 10.5833 10.4959 10.5833H10.5034C10.9637 10.5833 11.3367 10.9564 11.3367 11.4166C11.3367 11.8769 10.9637 12.25 10.5034 12.25H10.4959C10.0357 12.25 9.6626 11.8769 9.6626 11.4166ZM10.4959 13.0833C10.0357 13.0833 9.6626 13.4564 9.6626 13.9166C9.6626 14.3769 10.0357 14.75 10.4959 14.75H10.5034C10.9637 14.75 11.3367 14.3769 11.3367 13.9166C11.3367 13.4564 10.9637 13.0833 10.5034 13.0833H10.4959ZM6.57829 11.4166C6.57829 10.9564 6.95138 10.5833 7.41162 10.5833H7.41911C7.87934 10.5833 8.25244 10.9564 8.25244 11.4166C8.25244 11.8769 7.87934 12.25 7.41911 12.25H7.41162C6.95138 12.25 6.57829 11.8769 6.57829 11.4166ZM7.41162 13.0833C6.95138 13.0833 6.57829 13.4564 6.57829 13.9166C6.57829 14.3769 6.95138 14.75 7.41162 14.75H7.41911C7.87934 14.75 8.25244 14.3769 8.25244 13.9166C8.25244 13.4564 7.87934 13.0833 7.41911 13.0833H7.41162Z" fill="#1B1D29"/>
</svg>
