<svg width="20" height="20" viewBox="0 0 20 20" fill="none" xmlns="http://www.w3.org/2000/svg">
<path fill-rule="evenodd" clip-rule="evenodd" d="M18.3333 10.0001C18.3333 14.5834 14.5833 18.3334 9.99996 18.3334C5.41663 18.3334 1.66663 14.5834 1.66663 10.0001C1.66663 5.41675 5.41663 1.66675 9.99996 1.66675C14.5833 1.66675 18.3333 5.41675 18.3333 10.0001ZM12.8002 7.19974C13.0442 7.44382 13.0442 7.83955 12.8002 8.08362L10.8838 10L12.8002 11.9164C13.0442 12.1605 13.0442 12.5562 12.8002 12.8003C12.5561 13.0444 12.1604 13.0444 11.9163 12.8003L9.99989 10.8839L8.0835 12.8003C7.83943 13.0444 7.4437 13.0444 7.19962 12.8003C6.95554 12.5562 6.95554 12.1605 7.19962 11.9164L9.11601 10L7.19962 8.08362C6.95554 7.83955 6.95554 7.44382 7.19962 7.19974C7.4437 6.95566 7.83943 6.95566 8.0835 7.19974L9.99989 9.11613L11.9163 7.19974C12.1604 6.95566 12.5561 6.95566 12.8002 7.19974Z" fill="#DCDEE9"/>
</svg>
