<svg width="25" height="24" viewBox="0 0 25 24" fill="none" xmlns="http://www.w3.org/2000/svg">
<path d="M17.2 18.9801H7.80002C7.38002 18.9801 6.91002 18.6501 6.77002 18.2501L2.63002 6.67011C2.04002 5.01011 2.73002 4.50011 4.15002 5.52011L8.05002 8.31011C8.70002 8.76011 9.44002 8.53011 9.72002 7.80011L11.48 3.11011C12.04 1.61011 12.97 1.61011 13.53 3.11011L15.29 7.80011C15.57 8.53011 16.31 8.76011 16.95 8.31011L20.61 5.70011C22.17 4.58011 22.92 5.15011 22.28 6.96011L18.24 18.2701C18.09 18.6501 17.62 18.9801 17.2 18.9801Z" stroke="#82869E" stroke-width="1.5" stroke-linecap="round" stroke-linejoin="round"/>
<path d="M7 22H18" stroke="#82869E" stroke-width="1.5" stroke-linecap="round" stroke-linejoin="round"/>
<path d="M10 14H15" stroke="#82869E" stroke-width="1.5" stroke-linecap="round" stroke-linejoin="round"/>
</svg>
