<svg width="16" height="16" viewBox="0 0 16 16" fill="none" xmlns="http://www.w3.org/2000/svg">
<path d="M12.564 10.0405C12.564 9.76432 12.3402 9.54046 12.064 9.54046C11.7879 9.54046 11.564 9.76432 11.564 10.0405L11.564 12.8807L10.532 11.8487C10.3367 11.6534 10.0201 11.6534 9.82488 11.8487C9.62961 12.0439 9.62961 12.3605 9.82488 12.5558L11.7105 14.4414C11.7584 14.4893 11.8137 14.5255 11.8727 14.5499C11.9316 14.5743 11.9963 14.5878 12.064 14.5878C12.1318 14.5878 12.1965 14.5743 12.2554 14.5499C12.3144 14.5255 12.3697 14.4893 12.4176 14.4414L14.3032 12.5558C14.4985 12.3605 14.4985 12.0439 14.3032 11.8487C14.108 11.6534 13.7914 11.6534 13.5961 11.8487L12.564 12.8807V10.0405Z" fill="white"/>
<path fill-rule="evenodd" clip-rule="evenodd" d="M13.3334 8.94399C12.9251 8.7656 12.4741 8.66665 12.0001 8.66665C10.1591 8.66665 8.66675 10.159 8.66675 12C8.66675 12.6502 8.85291 13.2569 9.17485 13.7698L8.91981 14.1317C8.41128 14.845 7.58884 14.845 7.0803 14.1317L6.44621 13.2318C5.99418 12.5919 5.20941 12.5452 4.6946 13.1318C3.58336 14.3917 2.66675 13.9784 2.66675 12.1986V4.69289C2.66675 2.00656 3.2569 1.33331 5.63005 1.33331H10.3763C12.7495 1.33331 13.3396 2.00656 13.3334 4.69289V8.94399ZM5.33341 4.16665C5.05727 4.16665 4.83341 4.3905 4.83341 4.66665C4.83341 4.94279 5.05727 5.16665 5.33341 5.16665H10.6667C10.9429 5.16665 11.1667 4.94279 11.1667 4.66665C11.1667 4.3905 10.9429 4.16665 10.6667 4.16665H5.33341ZM5.50008 7.33331C5.50008 7.05717 5.72394 6.83331 6.00008 6.83331H10.0001C10.2762 6.83331 10.5001 7.05717 10.5001 7.33331C10.5001 7.60946 10.2762 7.83331 10.0001 7.83331H6.00008C5.72394 7.83331 5.50008 7.60946 5.50008 7.33331Z" fill="white"/>
</svg>
