<svg width="20" height="20" viewBox="0 0 20 20" fill="none" xmlns="http://www.w3.org/2000/svg">
<path fill-rule="evenodd" clip-rule="evenodd" d="M9.99984 3.33325C12.9665 3.33325 15.7832 4.96003 17.7082 7.78548C18.5415 9.00751 18.5415 11.0001 17.7082 12.2144C16.7415 13.631 15.5582 14.744 14.2415 15.5068C12.9248 16.2618 11.4832 16.6666 9.99984 16.6666C7.03317 16.6666 4.2165 15.0476 2.2915 12.2144C1.45817 10.9923 1.45817 9.00751 2.2915 7.78548C3.25817 6.36886 4.4415 5.25581 5.75817 4.49301C7.07484 3.738 8.5165 3.33325 9.99984 3.33325ZM11.7331 9.99985C11.7331 10.9595 10.9594 11.7332 9.99977 11.7332C9.04013 11.7332 8.26644 10.9595 8.26644 9.99985C8.26644 9.04021 9.04013 8.26652 9.99977 8.26652C10.9594 8.26652 11.7331 9.04021 11.7331 9.99985ZM12.9831 9.99985C12.9831 11.6499 11.6498 12.9832 9.99977 12.9832C8.34977 12.9832 7.01644 11.6499 7.01644 9.99985C7.01644 8.34985 8.34977 7.01652 9.99977 7.01652C11.6498 7.01652 12.9831 8.34985 12.9831 9.99985Z" fill="#DCDEE9"/>
</svg>
