<svg width="20" height="20" viewBox="0 0 20 20" fill="none" xmlns="http://www.w3.org/2000/svg">
<path d="M9.14973 18.3333C8.7647 18.3333 8.3877 18.2394 8.03476 18.0516C7.32888 17.6682 6.90374 16.9718 6.90374 16.1893V12.0422C6.90374 11.651 6.63904 11.0641 6.39037 10.7668L3.39037 7.66819C2.88503 7.17523 2.5 6.33016 2.5 5.69636V3.89667C2.5 2.64472 3.47059 1.66663 4.70588 1.66663H15.2941C16.5134 1.66663 17.5 2.62907 17.5 3.81843V5.53987C17.5 6.36146 16.9946 7.2926 16.5214 7.75426L13.0481 10.7511C12.7112 11.025 12.4465 11.6275 12.4465 12.1126V15.4773C12.4465 16.1737 11.9973 16.9796 11.4358 17.3083L10.3289 18.0047C9.96791 18.2237 9.55882 18.3333 9.14973 18.3333ZM4.70588 2.84033C4.14438 2.84033 3.70321 3.30199 3.70321 3.89667V5.69636C3.70321 5.98588 3.94385 6.54926 4.24866 6.84659L7.30481 9.98431C7.7139 10.4773 8.11497 11.2989 8.11497 12.0344V16.1815C8.11497 16.6901 8.47593 16.9405 8.62834 17.0187C8.96524 17.1987 9.37433 17.1987 9.68716 17.0109L10.8021 16.3145C11.0267 16.1815 11.2513 15.759 11.2513 15.4773V12.1126C11.2513 11.2754 11.6684 10.3521 12.2701 9.85911L15.7032 6.89354C15.9759 6.6275 16.3048 5.9937 16.3048 5.53204V3.81843C16.3048 3.27852 15.8556 2.84033 15.3021 2.84033H4.70588Z" fill="#1B1D29"/>
<path fill-rule="evenodd" clip-rule="evenodd" d="M7.70837 5.83337C7.70837 5.4882 7.9882 5.20837 8.33337 5.20837H11.6667C12.0119 5.20837 12.2917 5.4882 12.2917 5.83337C12.2917 6.17855 12.0119 6.45837 11.6667 6.45837H8.33337C7.9882 6.45837 7.70837 6.17855 7.70837 5.83337Z" fill="#1B1D29"/>
</svg>
