<svg width="50" height="51" viewBox="0 0 50 51" fill="none" xmlns="http://www.w3.org/2000/svg">
<circle cx="25" cy="25" r="22.5" fill="#10A9D9" stroke="white" stroke-width="5"/>
<path fill-rule="evenodd" clip-rule="evenodd" d="M17.1623 12.3295H35.0106C35.4231 12.3295 35.7977 12.4978 36.0688 12.769C36.34 13.0402 36.5084 13.4148 36.5084 13.8272V35.9592C36.5084 36.3717 36.34 36.7463 36.0688 37.0175C35.7976 37.2886 35.423 37.457 35.0106 37.457H34.9006V36.46H35.0456L34.9006 36.2088V16.0435C34.9006 15.4942 34.6824 14.9707 34.2942 14.5825C33.906 14.1942 33.3825 13.9761 32.8331 13.9761H15.6645V13.8272C15.6645 13.4148 15.8329 13.0402 16.104 12.769C16.3752 12.4978 16.7498 12.3295 17.1623 12.3295L17.1623 12.3295Z" fill="white"/>
<path fill-rule="evenodd" clip-rule="evenodd" d="M14.9874 14.5466H32.8358C33.2483 14.5466 33.6229 14.715 33.8941 14.9862C34.1652 15.2574 34.3336 15.632 34.3336 16.0444V38.1763C34.3336 38.5888 34.1652 38.9634 33.8941 39.2346C33.6229 39.5058 33.2483 39.6741 32.8358 39.6741H14.9874C14.575 39.6741 14.2004 39.5058 13.9292 39.2346C13.658 38.9634 13.4897 38.5888 13.4897 38.1763V16.0444C13.4897 15.6319 13.658 15.2574 13.9292 14.9862C14.2004 14.715 14.575 14.5466 14.9874 14.5466V14.5466ZM19.6392 30.5596L22.2027 34.9997L26.4751 27.5996L32.8709 38.6773H24.3259H20.0794H14.9524L19.6391 30.5596L19.6392 30.5596Z" fill="white"/>
</svg>
