<svg width="25" height="24" viewBox="0 0 25 24" fill="none" xmlns="http://www.w3.org/2000/svg">
<path fill-rule="evenodd" clip-rule="evenodd" d="M4.83725 9.46959L11.7705 3.81041C12.275 3.39809 13.2108 3.39293 13.7308 3.81894L20.6588 9.46359L20.6603 9.46482C20.7896 9.57169 20.9747 9.81582 21.1092 10.1751C21.2431 10.5329 21.268 10.848 21.2394 11.0301L21.2391 11.0322L19.9109 19.134L19.9105 19.1359C19.7865 19.8717 19.024 20.5 18.3508 20.5H7.15253C6.4677 20.5 5.71689 19.8803 5.59296 19.1367L5.59278 19.1357L4.26346 11.0268L4.26192 11.0178C4.23189 10.8413 4.25365 10.5305 4.38671 10.1751C4.52009 9.81876 4.70587 9.57602 4.83725 9.46959ZM22.7202 11.2695C22.8802 10.2708 22.3802 8.93587 21.6103 8.30406L14.6814 2.65856C13.6116 1.78219 11.8818 1.78219 10.822 2.64837L3.89302 8.30406C3.11314 8.93587 2.61322 10.2708 2.78319 11.2695L4.11299 19.3811C4.35295 20.8281 5.71275 22 7.15253 22H18.3508C19.7806 22 21.1504 20.8179 21.3904 19.3811L22.7202 11.2695ZM13.5 15C13.5 14.5858 13.1642 14.25 12.75 14.25C12.3358 14.25 12 14.5858 12 15V18C12 18.4142 12.3358 18.75 12.75 18.75C13.1642 18.75 13.5 18.4142 13.5 18V15Z" fill="#1B1D29"/>
</svg>
