<svg width="58" height="58" viewBox="0 0 58 58" fill="none" xmlns="http://www.w3.org/2000/svg">
<path fill-rule="evenodd" clip-rule="evenodd" d="M56.0668 30.582C56.0668 44.6569 44.6569 56.0669 30.582 56.0669C16.5071 56.0669 5.09715 44.6569 5.09715 30.582C5.09715 16.5071 16.5071 5.09717 30.582 5.09717C44.6569 5.09717 56.0668 16.5071 56.0668 30.582ZM35.0424 22.8315C35.7304 22.1415 35.7288 21.0244 35.0388 20.3364C34.3488 19.6484 33.2317 19.6499 32.5437 20.3399L23.573 29.3361C22.8863 30.0247 22.8863 31.1391 23.573 31.8277L32.5437 40.8238C33.2317 41.5138 34.3488 41.5154 35.0388 40.8274C35.7288 40.1393 35.7304 39.0222 35.0424 38.3322L27.314 30.5819L35.0424 22.8315Z" fill="white"/>
</svg>
