<svg width="50" height="50" viewBox="0 0 50 50" fill="none" xmlns="http://www.w3.org/2000/svg">
<circle cx="25" cy="25" r="22.5" fill="#10A9D9" stroke="white" stroke-width="5"/>
<g clip-path="url(#clip0_28_567)">
<path d="M34.8333 31.2102C34.8333 31.6906 34.6424 32.1514 34.3027 32.4912C33.963 32.8309 33.5022 33.0218 33.0217 33.0218H16.7174C16.2369 33.0218 15.7761 32.8309 15.4364 32.4912C15.0966 32.1514 14.9058 31.6906 14.9058 31.2102V21.2464C14.9058 20.7659 15.0966 20.3051 15.4364 19.9654C15.7761 19.6257 16.2369 19.4348 16.7174 19.4348H20.3405L22.1521 16.7174H27.5869L29.3985 19.4348H33.0217C33.5022 19.4348 33.963 19.6257 34.3027 19.9654C34.6424 20.3051 34.8333 20.7659 34.8333 21.2464V31.2102Z" stroke="white" stroke-width="2" stroke-linecap="round" stroke-linejoin="round"/>
<path d="M24.8696 29.3986C26.8706 29.3986 28.4928 27.7764 28.4928 25.7754C28.4928 23.7744 26.8706 22.1522 24.8696 22.1522C22.8686 22.1522 21.2464 23.7744 21.2464 25.7754C21.2464 27.7764 22.8686 29.3986 24.8696 29.3986Z" stroke="white" stroke-width="2" stroke-linecap="round" stroke-linejoin="round"/>
</g>
<defs>
<clipPath id="clip0_28_567">
<rect width="21.7391" height="21.7391" fill="white" transform="translate(14 14)"/>
</clipPath>
</defs>
</svg>
