<svg width="30" height="31" viewBox="0 0 30 31" fill="none" xmlns="http://www.w3.org/2000/svg">
<path d="M15 0.462891C12.0333 0.462891 9.13319 1.34263 6.66645 2.99085C4.19972 4.63907 2.27713 6.98175 1.14181 9.72264C0.00649929 12.4635 -0.290551 15.4795 0.288228 18.3892C0.867006 21.299 2.29562 23.9717 4.3934 26.0695C6.49119 28.1673 9.16394 29.5959 12.0737 30.1747C14.9834 30.7534 17.9994 30.4564 20.7403 29.3211C23.4811 28.1858 25.8238 26.2632 27.472 23.7964C29.1203 21.3297 30 18.4296 30 15.4629C29.9957 11.486 28.414 7.67315 25.6019 4.86104C22.7897 2.04893 18.9769 0.467192 15 0.462891ZM15 27.9629C12.5277 27.9629 10.111 27.2298 8.05538 25.8563C5.99976 24.4827 4.39761 22.5305 3.45151 20.2464C2.50542 17.9624 2.25788 15.449 2.74019 13.0243C3.22251 10.5995 4.41302 8.37221 6.16117 6.62406C7.90933 4.8759 10.1366 3.68539 12.5614 3.20307C14.9861 2.72076 17.4995 2.9683 19.7836 3.9144C22.0676 4.86049 24.0199 6.46265 25.3934 8.51826C26.7669 10.5739 27.5 12.9906 27.5 15.4629C27.4964 18.777 26.1782 21.9543 23.8348 24.2977C21.4914 26.6411 18.3141 27.9593 15 27.9629Z" fill="#0077FF"/>
<path d="M22.5 14.2126H10.5175L13.3837 11.3464C13.5031 11.2311 13.5983 11.0931 13.6639 10.9406C13.7294 10.7881 13.7638 10.6241 13.7653 10.4581C13.7667 10.2922 13.7351 10.1276 13.6723 9.97393C13.6094 9.82031 13.5166 9.68075 13.3992 9.56338C13.2819 9.44602 13.1423 9.3532 12.9887 9.29035C12.835 9.2275 12.6704 9.19587 12.5045 9.19731C12.3385 9.19876 12.1745 9.23324 12.022 9.29875C11.8695 9.36426 11.7315 9.45949 11.6162 9.57888L6.61623 14.5789C6.38189 14.8133 6.25024 15.1312 6.25024 15.4626C6.25024 15.7941 6.38189 16.112 6.61623 16.3464L11.6162 21.3464C11.852 21.5741 12.1677 21.7001 12.4955 21.6972C12.8232 21.6944 13.1367 21.5629 13.3685 21.3311C13.6003 21.0994 13.7317 20.7859 13.7346 20.4581C13.7374 20.1304 13.6114 19.8146 13.3837 19.5789L10.5175 16.7126H22.5C22.8315 16.7126 23.1494 16.5809 23.3839 16.3465C23.6183 16.1121 23.75 15.7941 23.75 15.4626C23.75 15.1311 23.6183 14.8132 23.3839 14.5787C23.1494 14.3443 22.8315 14.2126 22.5 14.2126Z" fill="#0077FF"/>
</svg>
