<svg width="30" height="31" viewBox="0 0 30 31" fill="none" xmlns="http://www.w3.org/2000/svg">
<path d="M7.09961 4.64062L27.0996 24.6406" stroke="black" stroke-width="1.5" stroke-linecap="round"/>
<path fill-rule="evenodd" clip-rule="evenodd" d="M18.041 7.04085C18.176 6.64926 18.6029 6.4413 18.9945 6.57634C22.7607 7.87514 25.9683 10.7877 28.1811 14.6419C28.7074 15.5586 28.8329 16.6352 28.5576 17.6281C28.447 18.0272 28.0337 18.2611 27.6345 18.1504C27.2353 18.0398 27.0015 17.6265 27.1121 17.2273C27.2816 16.6159 27.2043 15.9531 26.8803 15.3888C24.8103 11.7834 21.8633 9.15238 18.5055 7.99438C18.1139 7.85934 17.9059 7.43243 18.041 7.04085ZM10.4746 7.25448C10.6305 7.63824 10.4458 8.07571 10.062 8.23159C6.96708 9.48873 4.25793 12.012 2.31913 15.3889C1.89362 16.13 1.89362 17.0409 2.31914 17.782C5.16098 22.7317 9.64192 25.8354 14.5997 25.8354C18.1145 25.8354 21.379 24.2805 23.9998 21.6141C24.2902 21.3187 24.765 21.3146 25.0605 21.605C25.3559 21.8953 25.36 22.3702 25.0696 22.6656C22.2156 25.5692 18.5815 27.3354 14.5997 27.3354C8.9675 27.3354 4.05144 23.8118 1.0183 18.5289C0.327239 17.3252 0.327234 15.8456 1.01828 14.642C3.09155 11.0309 6.03704 8.24748 9.49752 6.84186C9.88128 6.68598 10.3187 6.87072 10.4746 7.25448Z" fill="black"/>
<path d="M18.2365 15.6719C18.435 16.4616 18.371 17.2946 18.0542 18.0448C17.7374 18.795 17.185 19.4217 16.4805 19.8301C15.776 20.2386 14.9577 20.4066 14.1492 20.3088C13.3408 20.211 12.5861 19.8527 11.9994 19.288C11.4126 18.7234 11.0256 17.983 10.8968 17.1789C10.768 16.3748 10.9045 15.5507 11.2856 14.831C11.6667 14.1113 12.2717 13.5353 13.0092 13.1899C13.7467 12.8445 14.5765 12.7486 15.3734 12.9166" stroke="black" stroke-width="1.5"/>
</svg>
