<svg width="26" height="27" viewBox="0 0 26 27" fill="none" xmlns="http://www.w3.org/2000/svg">
<path opacity="0.4" d="M23.8332 8.96018V15.5577L22.0673 14.041C21.2223 13.3152 19.8573 13.3152 19.0123 14.041L14.5057 17.9085C13.6607 18.6343 12.2957 18.6343 11.4507 17.9085L11.0823 17.6052C10.3132 16.9335 9.089 16.8685 8.22234 17.4535L2.89234 21.0285L2.77317 21.1152C2.37234 20.2485 2.1665 19.2194 2.1665 18.0385V8.96018C2.1665 5.01685 4.51734 2.66602 8.46067 2.66602H17.539C21.4823 2.66602 23.8332 5.01685 23.8332 8.96018Z" fill="#0066FF"/>
<path d="M9.75021 11.7446C11.1742 11.7446 12.3285 10.5902 12.3285 9.16622C12.3285 7.74225 11.1742 6.58789 9.75021 6.58789C8.32623 6.58789 7.17188 7.74225 7.17188 9.16622C7.17188 10.5902 8.32623 11.7446 9.75021 11.7446Z" fill="#0066FF"/>
<path d="M23.8334 15.5591V18.0399C23.8334 21.9833 21.4826 24.3341 17.5393 24.3341H8.46094C5.69844 24.3341 3.7051 23.1749 2.77344 21.1166L2.8926 21.0299L8.2226 17.4549C9.08927 16.8699 10.3134 16.9349 11.0826 17.6066L11.4509 17.9099C12.2959 18.6358 13.6609 18.6358 14.5059 17.9099L19.0126 14.0424C19.8576 13.3166 21.2226 13.3166 22.0676 14.0424L23.8334 15.5591Z" fill="#0066FF"/>
</svg>
