<svg width="26" height="27" viewBox="0 0 26 27" fill="none" xmlns="http://www.w3.org/2000/svg">
<path d="M20.6592 15.9258C20.3451 16.2399 19.8467 16.2399 19.5434 15.9258C19.2292 15.6116 19.2292 15.1133 19.5434 14.8099C21.7101 12.6433 21.7101 9.12242 19.5434 6.96659C17.3767 4.81076 13.8559 4.79992 11.7001 6.96659C9.54422 9.13326 9.53339 12.6541 11.7001 14.8099C12.0142 15.1241 12.0142 15.6224 11.7001 15.9258C11.3859 16.2399 10.8876 16.2399 10.5842 15.9258C7.80005 13.1416 7.80005 8.61326 10.5842 5.83992C13.3684 3.06659 17.8967 3.05576 20.6701 5.83992C23.4434 8.62409 23.4434 13.1416 20.6592 15.9258Z" fill="#0066FF"/>
<path opacity="0.4" d="M20.6593 5.84008C23.4435 8.62424 23.4435 13.1417 20.6593 15.9259C19.706 16.8792 18.536 17.5076 17.3118 17.8109C17.886 15.4709 17.2576 12.9034 15.4268 11.0726C13.596 9.24174 11.0285 8.61341 8.68848 9.18758C8.99181 7.96341 9.60931 6.79341 10.5735 5.84008C13.3576 3.05591 17.8751 3.05591 20.6593 5.84008Z" fill="#0066FF"/>
<path d="M5.34095 11.0735C5.65511 10.7593 6.15345 10.7593 6.45678 11.0735C6.77095 11.3877 6.77095 11.886 6.45678 12.1893C4.29011 14.356 4.29011 17.8768 6.45678 20.0327C8.62345 22.1885 12.1443 22.1993 14.3001 20.0327C16.4559 17.866 16.4668 14.3452 14.3001 12.1893C13.9859 11.8752 13.9859 11.3768 14.3001 11.0735C14.6143 10.7593 15.1126 10.7593 15.4159 11.0735C18.2001 13.8577 18.2001 18.386 15.4159 21.1593C12.6318 23.9327 8.10345 23.9435 5.33011 21.1593C2.55678 18.3752 2.55678 13.8577 5.34095 11.0735Z" fill="#0066FF"/>
<path opacity="0.5" d="M15.4269 11.073C17.2577 12.9039 17.8861 15.4714 17.3119 17.8114C17.0086 19.0355 16.3802 20.2055 15.4269 21.1589C12.6427 23.943 8.12522 23.943 5.34105 21.1589C2.55689 18.3747 2.55689 13.8572 5.34105 11.073C6.29439 10.1089 7.46439 9.49137 8.68856 9.18804C11.0286 8.61387 13.5961 9.2422 15.4269 11.073Z" fill="#0066FF"/>
</svg>
