<svg width="40" height="40" viewBox="0 0 40 40" fill="none" xmlns="http://www.w3.org/2000/svg">
<g clip-path="url(#clip0_5744_178860)">
<path d="M38.3337 19.9997C38.3337 24.862 36.4021 29.5252 32.964 32.9633C29.5258 36.4015 24.8626 38.333 20.0003 38.333C15.138 38.333 10.4749 36.4015 7.03671 32.9633C3.59854 29.5252 1.667 24.862 1.667 19.9997C1.66559 18.5967 1.8278 17.1984 2.15033 15.833C3.09361 11.8068 5.37036 8.21771 8.61082 5.64869C11.8513 3.07968 15.8651 1.68164 20.0003 1.68164C24.1356 1.68164 28.1494 3.07968 31.3899 5.64869C34.6303 8.21771 36.9071 11.8068 37.8503 15.833C38.1729 17.1984 38.3351 18.5967 38.3337 19.9997Z" fill="#0077FF"/>
<path d="M20.0004 29.9993C29.8587 29.9993 37.8504 23.6567 37.8504 15.8327C37.8504 8.00865 29.8587 1.66602 20.0004 1.66602C10.1421 1.66602 2.15039 8.00865 2.15039 15.8327C2.15039 23.6567 10.1421 29.9993 20.0004 29.9993Z" fill="#248AFF"/>
<path d="M20 0C16.0444 0 12.1776 1.17298 8.8886 3.37061C5.59962 5.56824 3.03617 8.69181 1.52242 12.3463C0.00866572 16.0009 -0.387401 20.0222 0.384303 23.9018C1.15601 27.7814 3.06082 31.3451 5.85787 34.1421C8.65492 36.9392 12.2186 38.844 16.0982 39.6157C19.9778 40.3874 23.9992 39.9913 27.6537 38.4776C31.3082 36.9638 34.4318 34.4004 36.6294 31.1114C38.827 27.8224 40 23.9556 40 20C39.9943 14.6974 37.8853 9.61368 34.1358 5.8642C30.3863 2.11471 25.3026 0.00573514 20 0ZM20 36.6667C16.7037 36.6667 13.4813 35.6892 10.7405 33.8578C7.99969 32.0265 5.86348 29.4235 4.60202 26.3781C3.34056 23.3326 3.0105 19.9815 3.65359 16.7485C4.29668 13.5155 5.88402 10.5458 8.2149 8.21489C10.5458 5.88401 13.5155 4.29667 16.7485 3.65358C19.9815 3.01049 23.3326 3.34055 26.3781 4.60201C29.4235 5.86347 32.0265 7.99968 33.8578 10.7405C35.6892 13.4813 36.6667 16.7036 36.6667 20C36.6618 24.4188 34.9043 28.6552 31.7798 31.7798C28.6552 34.9043 24.4188 36.6618 20 36.6667Z" fill="white"/>
<path d="M30.0003 18.3336H14.0236L17.8453 14.512C18.0045 14.3582 18.1314 14.1743 18.2188 13.971C18.3061 13.7676 18.3521 13.5489 18.354 13.3276C18.356 13.1063 18.3138 12.8869 18.23 12.682C18.1462 12.4772 18.0224 12.2911 17.866 12.1346C17.7095 11.9782 17.5234 11.8544 17.3186 11.7706C17.1137 11.6868 16.8943 11.6446 16.673 11.6465C16.4517 11.6485 16.233 11.6944 16.0296 11.7818C15.8263 11.8691 15.6424 11.9961 15.4886 12.1553L8.82196 18.822C8.50951 19.1345 8.33398 19.5584 8.33398 20.0003C8.33398 20.4422 8.50951 20.8661 8.82196 21.1786L15.4886 27.8453C15.803 28.1489 16.224 28.3169 16.661 28.3131C17.098 28.3093 17.516 28.134 17.825 27.825C18.134 27.516 18.3093 27.098 18.3131 26.661C18.3169 26.224 18.1489 25.803 17.8453 25.4886L14.0236 21.667H30.0003C30.4423 21.667 30.8662 21.4914 31.1788 21.1788C31.4914 20.8662 31.667 20.4423 31.667 20.0003C31.667 19.5583 31.4914 19.1343 31.1788 18.8218C30.8662 18.5092 30.4423 18.3336 30.0003 18.3336Z" fill="white"/>
</g>
<defs>
<clipPath id="clip0_5744_178860">
<rect width="40" height="40" fill="white"/>
</clipPath>
</defs>
</svg>
