<svg width="40" height="40" viewBox="0 0 40 40" fill="none" xmlns="http://www.w3.org/2000/svg">
<g clip-path="url(#clip0_5744_178885)">
<path d="M38.3337 19.9997C38.3337 24.862 36.4021 29.5252 32.964 32.9633C29.5258 36.4015 24.8626 38.333 20.0003 38.333C15.138 38.333 10.4749 36.4015 7.03671 32.9633C3.59854 29.5252 1.667 24.862 1.667 19.9997C1.66559 18.5967 1.8278 17.1984 2.15033 15.833C3.09361 11.8068 5.37036 8.21771 8.61082 5.64869C11.8513 3.07968 15.8651 1.68164 20.0003 1.68164C24.1356 1.68164 28.1494 3.07968 31.3899 5.64869C34.6303 8.21771 36.9071 11.8068 37.8503 15.833C38.1729 17.1984 38.3351 18.5967 38.3337 19.9997Z" fill="#0077FF"/>
<path d="M20.0004 29.9993C29.8587 29.9993 37.8504 23.6567 37.8504 15.8327C37.8504 8.00865 29.8587 1.66602 20.0004 1.66602C10.1421 1.66602 2.15039 8.00865 2.15039 15.8327C2.15039 23.6567 10.1421 29.9993 20.0004 29.9993Z" fill="#248AFF"/>
<path d="M20 0C16.0444 0 12.1776 1.17298 8.8886 3.37061C5.59962 5.56824 3.03617 8.69181 1.52242 12.3463C0.00866572 16.0009 -0.387401 20.0222 0.384303 23.9018C1.15601 27.7814 3.06082 31.3451 5.85787 34.1421C8.65492 36.9392 12.2186 38.844 16.0982 39.6157C19.9778 40.3874 23.9992 39.9913 27.6537 38.4776C31.3082 36.9638 34.4318 34.4004 36.6294 31.1114C38.827 27.8224 40 23.9556 40 20C39.9943 14.6974 37.8853 9.61368 34.1358 5.8642C30.3863 2.11471 25.3026 0.00573514 20 0ZM20 36.6667C16.7037 36.6667 13.4813 35.6892 10.7405 33.8578C7.99969 32.0265 5.86348 29.4235 4.60202 26.3781C3.34056 23.3326 3.0105 19.9815 3.65359 16.7485C4.29668 13.5155 5.88402 10.5458 8.2149 8.21489C10.5458 5.88401 13.5155 4.29667 16.7485 3.65358C19.9815 3.01049 23.3326 3.34055 26.3781 4.60201C29.4235 5.86347 32.0265 7.99968 33.8578 10.7405C35.6892 13.4813 36.6667 16.7036 36.6667 20C36.6618 24.4188 34.9043 28.6552 31.7798 31.7798C28.6552 34.9043 24.4188 36.6618 20 36.6667Z" fill="white"/>
<path d="M10.0007 21.6254L25.9773 21.6254L22.1557 25.447C21.9965 25.6008 21.8695 25.7847 21.7822 25.988C21.6948 26.1914 21.6489 26.4101 21.6469 26.6314C21.645 26.8526 21.6872 27.0721 21.771 27.2769C21.8548 27.4818 21.9785 27.6679 22.135 27.8243C22.2915 27.9808 22.4776 28.1046 22.6824 28.1884C22.8873 28.2722 23.1067 28.3144 23.328 28.3124C23.5493 28.3105 23.768 28.2645 23.9714 28.1772C24.1747 28.0898 24.3586 27.9629 24.5123 27.8037L31.179 21.137C31.4915 20.8245 31.667 20.4006 31.667 19.9587C31.667 19.5167 31.4915 19.0929 31.179 18.7804L24.5123 12.1137C24.198 11.8101 23.777 11.6421 23.34 11.6459C22.903 11.6497 22.485 11.825 22.176 12.134C21.867 12.443 21.6917 12.861 21.6879 13.298C21.6841 13.735 21.8521 14.156 22.1557 14.4704L25.9773 18.292H10.0007C9.55866 18.292 9.13473 18.4676 8.82217 18.7802C8.50961 19.0927 8.33402 19.5167 8.33402 19.9587C8.33402 20.4007 8.50961 20.8246 8.82217 21.1372C9.13473 21.4498 9.55866 21.6254 10.0007 21.6254Z" fill="white"/>
</g>
<defs>
<clipPath id="clip0_5744_178885">
<rect width="40" height="40" fill="white"/>
</clipPath>
</defs>
</svg>
