<svg width="30" height="30" viewBox="0 0 30 30" fill="none" xmlns="http://www.w3.org/2000/svg">
<path d="M9.8125 8.4375C9.8125 5.57671 12.1392 3.25 15 3.25C17.8603 3.25 20.1867 5.57593 20.1875 8.43605C20.1758 11.2429 17.9876 13.5078 15.1989 13.6125H15.1989H15.1988H15.1988H15.1987H15.1987H15.1987H15.1986H15.1986H15.1986H15.1985H15.1985H15.1984H15.1984H15.1984H15.1983H15.1983H15.1983H15.1982H15.1982H15.1981H15.1981H15.1981H15.198H15.198H15.198H15.1979H15.1979H15.1978H15.1978H15.1978H15.1977H15.1977H15.1976H15.1976H15.1976H15.1975H15.1975H15.1975H15.1974H15.1974H15.1973H15.1973H15.1973H15.1972H15.1972H15.1971H15.1971H15.1971H15.197H15.197H15.1969H15.1969H15.1969H15.1968H15.1968H15.1967H15.1967H15.1967H15.1966H15.1966H15.1965H15.1965H15.1964H15.1964H15.1964H15.1963H15.1963H15.1962H15.1962H15.1962H15.1961H15.1961H15.196H15.196H15.1959H15.1959H15.1959H15.1958H15.1958H15.1957H15.1957H15.1956H15.1956H15.1955H15.1955H15.1955H15.1954H15.1954H15.1953H15.1953H15.1952H15.1952H15.1951H15.1951H15.1951H15.195H15.195H15.1949H15.1949H15.1948H15.1948H15.1947H15.1947H15.1946H15.1946H15.1946H15.1945H15.1945H15.1944H15.1944H15.1943H15.1943H15.1942H15.1942H15.1941H15.1941H15.194H15.194H15.1939H15.1939H15.1938H15.1938H15.1937H15.1937H15.1936H15.1936H15.1935H15.1935H15.1934H15.1934H15.1933H15.1933H15.1932H15.1932H15.1931H15.1931H15.193H15.193H15.1929H15.1929H15.1928H15.1928H15.1927H15.1926H15.1926H15.1925H15.1925H15.1924H15.1924H15.1923H15.1923H15.1922H15.1922H15.1921H15.192H15.192H15.1919H15.1919H15.1918H15.1918H15.1917H15.1916H15.1916H15.1915H15.1915H15.1914H15.1914H15.1913H15.1912H15.1912H15.1911H15.1911H15.191H15.1909H15.1909H15.1908H15.1908H15.1907H15.1906H15.1906H15.1905H15.1905H15.1904H15.1903H15.1903H15.1902H15.1901H15.1901H15.19H15.19H15.1899H15.1898H15.1898H15.1897H15.1896H15.1896H15.1895H15.1894H15.1894H15.1893H15.1892H15.1892H15.1891H15.189H15.189H15.1889H15.1888H15.1888H15.1887H15.1886H15.1886H15.1885H15.1884H15.1884H15.1883H15.1882H15.1881H15.1881H15.188H15.1879H15.1879H15.1878H15.1877H15.1876H15.1876H15.1875H15.1874H15.1872H15.1871H15.1869H15.1868H15.1866H15.1865H15.1863H15.1862H15.186H15.1859H15.1858H15.1856H15.1855H15.1853H15.1852H15.185H15.1849H15.1848H15.1846H15.1845H15.1843H15.1842H15.1841H15.1839H15.1838H15.1836H15.1835H15.1834H15.1832H15.1831H15.183H15.1828H15.1827H15.1825H15.1824H15.1823H15.1821H15.182H15.1819H15.1817H15.1816H15.1815H15.1813H15.1812H15.181H15.1809H15.1808H15.1806H15.1805H15.1804H15.1802H15.1801H15.18H15.1798H15.1797H15.1796H15.1794H15.1793H15.1792H15.1791H15.1789H15.1788H15.1787H15.1785H15.1784H15.1783H15.1781H15.178H15.1779H15.1778H15.1776H15.1775H15.1774H15.1772H15.1771H15.177H15.1769H15.1767H15.1766H15.1765H15.1763H15.1762H15.1761H15.176H15.1758H15.1757H15.1756H15.1755H15.1753H15.1752H15.1751H15.175H15.1748H15.1747H15.1746H15.1745H15.1743H15.1742C15.0561 13.5995 14.9355 13.601 14.8251 13.611C11.9738 13.4874 9.8125 11.2241 9.8125 8.4375Z" stroke="black" stroke-width="1.5"/>
<path d="M9.0673 25.1164L9.06524 25.115C7.64182 24.1661 6.94922 22.9517 6.94922 21.7266C6.94922 20.5009 7.64237 19.2743 9.07728 18.3134C10.6859 17.2492 12.8332 16.6953 15.0148 16.6953C17.1974 16.6953 19.338 17.2497 20.9332 18.3131C22.3512 19.2584 23.0381 20.4724 23.0492 21.7046C23.0481 22.9419 22.3547 24.1558 20.9305 25.1169C19.3292 26.1917 17.1833 26.7516 14.9992 26.7516C12.8148 26.7516 10.6686 26.1916 9.0673 25.1164Z" stroke="black" stroke-width="1.5"/>
</svg>
