<svg width="17" height="17" viewBox="0 0 17 17" fill="none" xmlns="http://www.w3.org/2000/svg">
<path d="M6.6162 14.1321L8.36349 11.0408C8.44828 10.8908 8.52274 10.759 8.58936 10.6425M8.58936 10.6425C8.79588 10.2813 8.92725 10.0662 9.05847 9.9047C10.145 8.5677 12.0828 8.30356 13.4876 9.30097C13.7105 9.45925 13.9585 9.70679 14.4515 10.1998M8.58936 10.6425L8.25059 10.5365C7.46901 10.3802 7.07822 10.302 6.71955 10.3096C5.75968 10.33 4.85731 10.7713 4.25192 11.5165C4.0257 11.7949 3.84747 12.1514 3.49102 12.8643L3.41922 13.0079L3.34006 13.1417M14.4515 10.1998C14.4613 9.72614 14.4613 9.18911 14.4613 8.57521C14.4613 6.1238 14.4613 4.89809 13.837 4.03885C13.6354 3.76134 13.3913 3.5173 13.1138 3.31569C12.2546 2.69141 11.0289 2.69141 8.57747 2.69141C6.12606 2.69141 4.90035 2.69141 4.0411 3.31569C3.7636 3.5173 3.51956 3.76134 3.31795 4.03885C2.69366 4.89809 2.69366 6.1238 2.69366 8.57521C2.69366 11.0266 2.69366 12.2523 3.31795 13.1116C3.32526 13.1216 3.33264 13.1317 3.34006 13.1417M14.4515 10.1998C14.4221 11.6175 14.3049 12.4675 13.837 13.1116C13.6354 13.3891 13.3913 13.6331 13.1138 13.8347C12.2546 14.459 11.0289 14.459 8.57747 14.459C6.12606 14.459 4.90035 14.459 4.0411 13.8347C3.77367 13.6404 3.53732 13.4067 3.34006 13.1417M6.6162 6.61394C6.6162 7.33606 7.20159 7.92145 7.92371 7.92145C8.64583 7.92145 9.23122 7.33606 9.23122 6.61394C9.23122 5.89182 8.64583 5.30643 7.92371 5.30643C7.20159 5.30643 6.6162 5.89182 6.6162 6.61394Z" stroke="white" stroke-linecap="round"/>
</svg>
