<svg width="40" height="40" viewBox="0 0 40 40" fill="none" xmlns="http://www.w3.org/2000/svg">
<g clip-path="url(#clip0_29_519)">
<path d="M38.3332 19.9999C38.3332 24.8622 36.4016 29.5254 32.9635 32.9636C29.5253 36.4017 24.8621 38.3333 19.9998 38.3333C15.1375 38.3333 10.4744 36.4017 7.03622 32.9636C3.59806 29.5254 1.66651 24.8622 1.66651 19.9999C1.6651 18.597 1.82731 17.1987 2.14985 15.8333C3.09312 11.807 5.36988 8.21795 8.61033 5.64894C11.8508 3.07992 15.8646 1.68188 19.9998 1.68188C24.1351 1.68188 28.1489 3.07992 31.3894 5.64894C34.6298 8.21795 36.9066 11.807 37.8498 15.8333C38.1724 17.1987 38.3346 18.597 38.3332 19.9999Z" fill="#8AC0FF"/>
<path d="M19.9999 30C29.8582 30 37.8499 23.6573 37.8499 15.8333C37.8499 8.00926 29.8582 1.66663 19.9999 1.66663C10.1416 1.66663 2.1499 8.00926 2.1499 15.8333C2.1499 23.6573 10.1416 30 19.9999 30Z" fill="#BDDCFF"/>
<path d="M20 0C16.0444 0 12.1776 1.17298 8.8886 3.37061C5.59962 5.56824 3.03617 8.69181 1.52242 12.3463C0.00866572 16.0009 -0.387401 20.0222 0.384303 23.9018C1.15601 27.7814 3.06082 31.3451 5.85787 34.1421C8.65492 36.9392 12.2186 38.844 16.0982 39.6157C19.9778 40.3874 23.9992 39.9913 27.6537 38.4776C31.3082 36.9638 34.4318 34.4004 36.6294 31.1114C38.827 27.8224 40 23.9556 40 20C39.9943 14.6974 37.8853 9.61368 34.1358 5.8642C30.3863 2.11471 25.3026 0.00573514 20 0ZM20 36.6667C16.7037 36.6667 13.4813 35.6892 10.7405 33.8578C7.99969 32.0265 5.86348 29.4235 4.60202 26.3781C3.34056 23.3326 3.0105 19.9815 3.65359 16.7485C4.29668 13.5155 5.88402 10.5458 8.2149 8.21489C10.5458 5.88401 13.5155 4.29667 16.7485 3.65358C19.9815 3.01049 23.3326 3.34055 26.3781 4.60201C29.4235 5.86347 32.0265 7.99968 33.8578 10.7405C35.6892 13.4813 36.6667 16.7036 36.6667 20C36.6618 24.4188 34.9043 28.6552 31.7798 31.7798C28.6552 34.9043 24.4188 36.6618 20 36.6667Z" fill="#0077FF"/>
<path d="M29.9998 18.3334H14.0231L17.8448 14.5117C18.004 14.358 18.131 14.1741 18.2183 13.9707C18.3057 13.7674 18.3516 13.5487 18.3536 13.3274C18.3555 13.1061 18.3133 12.8866 18.2295 12.6818C18.1457 12.477 18.022 12.2909 17.8655 12.1344C17.709 11.9779 17.5229 11.8542 17.3181 11.7704C17.1132 11.6865 16.8938 11.6444 16.6725 11.6463C16.4512 11.6482 16.2325 11.6942 16.0291 11.7816C15.8258 11.8689 15.6419 11.9959 15.4881 12.1551L8.82147 18.8217C8.50902 19.1343 8.3335 19.5581 8.3335 20.0001C8.3335 20.442 8.50902 20.8658 8.82147 21.1784L15.4881 27.8451C15.8025 28.1486 16.2235 28.3166 16.6605 28.3128C17.0975 28.309 17.5155 28.1338 17.8245 27.8247C18.1335 27.5157 18.3088 27.0977 18.3126 26.6607C18.3164 26.2237 18.1484 25.8027 17.8448 25.4884L14.0231 21.6667H29.9998C30.4418 21.6667 30.8658 21.4911 31.1783 21.1786C31.4909 20.866 31.6665 20.4421 31.6665 20.0001C31.6665 19.558 31.4909 19.1341 31.1783 18.8215C30.8658 18.509 30.4418 18.3334 29.9998 18.3334Z" fill="#0077FF"/>
</g>
<defs>
<clipPath id="clip0_29_519">
<rect width="40" height="40" fill="white"/>
</clipPath>
</defs>
</svg>
