<svg width="16" height="17" viewBox="0 0 16 17" fill="none" xmlns="http://www.w3.org/2000/svg">
<path d="M4.66667 7.76562V5.09896C4.66667 4.2149 5.01786 3.36706 5.64298 2.74194C6.2681 2.11681 7.11595 1.76563 8 1.76562C8.88406 1.76562 9.7319 2.11681 10.357 2.74194C10.9821 3.36706 11.3333 4.2149 11.3333 5.09896V7.76562M3.33333 7.76562H12.6667C13.403 7.76562 14 8.36258 14 9.09896V13.7656C14 14.502 13.403 15.099 12.6667 15.099H3.33333C2.59695 15.099 2 14.502 2 13.7656V9.09896C2 8.36258 2.59695 7.76562 3.33333 7.76562Z" stroke="#09090B" stroke-linecap="round" stroke-linejoin="round"/>
</svg>
