<svg width="32" height="32" viewBox="0 0 32 32" fill="none" xmlns="http://www.w3.org/2000/svg">
<path opacity="0.4" d="M16 29.3333C23.3638 29.3333 29.3334 23.3638 29.3334 16C29.3334 8.63619 23.3638 2.66666 16 2.66666C8.63622 2.66666 2.66669 8.63619 2.66669 16C2.66669 23.3638 8.63622 29.3333 16 29.3333Z" fill="#292D32"/>
<path d="M17.68 21.7067C17.4267 21.7067 17.1734 21.6133 16.9734 21.4133L12.2667 16.7067C11.88 16.32 11.88 15.68 12.2667 15.2933L16.9734 10.5867C17.36 10.2 18 10.2 18.3867 10.5867C18.7734 10.9733 18.7734 11.6133 18.3867 12L14.3867 16L18.3867 20C18.7734 20.3867 18.7734 21.0267 18.3867 21.4133C18.2 21.6133 17.9467 21.7067 17.68 21.7067Z" fill="#292D32"/>
</svg>
