<svg width="40" height="40" viewBox="0 0 40 40" fill="none" xmlns="http://www.w3.org/2000/svg">
<g clip-path="url(#clip0_2733_26616)">
<path d="M38.3334 20C38.3334 24.8623 36.4019 29.5255 32.9637 32.9636C29.5255 36.4018 24.8624 38.3333 20.0001 38.3333C15.1378 38.3333 10.4746 36.4018 7.03647 32.9636C3.5983 29.5255 1.66676 24.8623 1.66676 20C1.66535 18.5971 1.82755 17.1987 2.15009 15.8333C3.09337 11.8071 5.37012 8.21801 8.61057 5.649C11.851 3.07998 15.8648 1.68195 20.0001 1.68195C24.1353 1.68195 28.1492 3.07998 31.3896 5.649C34.6301 8.21801 36.9068 11.8071 37.8501 15.8333C38.1726 17.1987 38.3348 18.5971 38.3334 20Z" fill="#8AC0FF"/>
<path d="M20.0001 30C29.8584 30 37.8501 23.6574 37.8501 15.8334C37.8501 8.00932 29.8584 1.66669 20.0001 1.66669C10.1419 1.66669 2.15015 8.00932 2.15015 15.8334C2.15015 23.6574 10.1419 30 20.0001 30Z" fill="#BDDCFF"/>
<path d="M20 0C16.0444 0 12.1776 1.17298 8.8886 3.37061C5.59962 5.56824 3.03617 8.69181 1.52242 12.3463C0.00866572 16.0009 -0.387401 20.0222 0.384303 23.9018C1.15601 27.7814 3.06082 31.3451 5.85787 34.1421C8.65492 36.9392 12.2186 38.844 16.0982 39.6157C19.9778 40.3874 23.9992 39.9913 27.6537 38.4776C31.3082 36.9638 34.4318 34.4004 36.6294 31.1114C38.827 27.8224 40 23.9556 40 20C39.9943 14.6974 37.8853 9.61368 34.1358 5.8642C30.3863 2.11471 25.3026 0.00573514 20 0ZM20 36.6667C16.7037 36.6667 13.4813 35.6892 10.7405 33.8578C7.99969 32.0265 5.86348 29.4235 4.60202 26.3781C3.34056 23.3326 3.0105 19.9815 3.65359 16.7485C4.29668 13.5155 5.88402 10.5458 8.2149 8.21489C10.5458 5.88401 13.5155 4.29667 16.7485 3.65358C19.9815 3.01049 23.3326 3.34055 26.3781 4.60201C29.4235 5.86347 32.0265 7.99968 33.8578 10.7405C35.6892 13.4813 36.6667 16.7036 36.6667 20C36.6618 24.4188 34.9043 28.6552 31.7798 31.7798C28.6552 34.9043 24.4188 36.6618 20 36.6667Z" fill="#0077FF"/>
<path d="M30 18.3333H14.0234L17.845 14.5117C18.0042 14.3579 18.1312 14.174 18.2186 13.9707C18.3059 13.7673 18.3519 13.5486 18.3538 13.3273C18.3557 13.106 18.3136 12.8866 18.2298 12.6817C18.146 12.4769 18.0222 12.2908 17.8657 12.1343C17.7092 11.9778 17.5231 11.8541 17.3183 11.7703C17.1135 11.6865 16.894 11.6443 16.6727 11.6462C16.4514 11.6482 16.2327 11.6941 16.0294 11.7815C15.826 11.8688 15.6421 11.9958 15.4884 12.155L8.82172 18.8217C8.50927 19.1342 8.33374 19.5581 8.33374 20C8.33374 20.4419 8.50927 20.8658 8.82172 21.1783L15.4884 27.845C15.8027 28.1486 16.2237 28.3166 16.6607 28.3128C17.0977 28.309 17.5157 28.1337 17.8247 27.8247C18.1338 27.5157 18.309 27.0977 18.3128 26.6607C18.3166 26.2237 18.1486 25.8027 17.845 25.4883L14.0234 21.6667H30C30.4421 21.6667 30.866 21.4911 31.1786 21.1785C31.4911 20.8659 31.6667 20.442 31.6667 20C31.6667 19.558 31.4911 19.134 31.1786 18.8215C30.866 18.5089 30.4421 18.3333 30 18.3333Z" fill="#0077FF"/>
</g>
<defs>
<clipPath id="clip0_2733_26616">
<rect width="40" height="40" fill="white"/>
</clipPath>
</defs>
</svg>
