<svg width="63" height="63" viewBox="0 0 63 63" fill="none" xmlns="http://www.w3.org/2000/svg">
<path d="M13.4751 21.8089L13.4324 21.7661L15.8232 19.4953L15.8233 19.4954L15.8324 19.4863C16.3454 18.9733 17.1771 18.9733 17.6902 19.4863C17.6902 19.4863 17.6902 19.4863 17.6902 19.4863L23.5797 25.3756L23.5798 25.3757C24.0928 25.8886 24.0928 26.7204 23.5798 27.2334L23.5797 27.2334L20.9739 29.8392L20.9601 29.853L20.9474 29.8679C20.0423 30.9264 20.242 32.5205 20.8599 34.0377C21.4958 35.5994 22.6547 37.2933 24.0271 38.7616C25.3985 40.2287 27.0173 41.5071 28.5977 42.2051C30.167 42.8984 31.8237 43.0659 33.1142 42.0699L33.1396 42.0503L33.1623 42.0276L35.6025 39.5874C36.1155 39.0744 36.9472 39.0744 37.4603 39.5874L43.3499 45.4769C43.8599 45.9869 43.8629 46.8118 43.3589 47.3255L41.1932 49.2614L41.1551 49.2234L40.8023 49.6069C39.838 50.6549 38.2595 51.0833 36.6652 50.5269C25.3006 46.561 15.9301 37.7713 11.9728 26.4312L11.9728 26.4312C11.3903 24.7622 11.8883 23.1052 13.0469 22.1587L13.4751 21.8089Z" fill="#0077FF" stroke="#0077FF"/>
<path d="M28.5 26.6342C28.5 26.2041 28.8487 25.8555 29.2787 25.8555C33.837 25.8555 37.5463 29.5648 37.5463 34.123C37.5463 34.553 37.1976 34.9017 36.7676 34.9017C36.3375 34.9017 35.9889 34.553 35.9889 34.123C35.9889 30.4226 32.9791 27.4129 29.2787 27.4129C28.8486 27.4129 28.5 27.0642 28.5 26.6342Z" fill="#0077FF" stroke="#0077FF"/>
<path d="M28.5 21.4271C28.5 20.9971 28.8487 20.6484 29.2787 20.6484C36.7082 20.6484 42.7533 26.6935 42.7533 34.1229C42.7533 34.553 42.4047 34.9016 41.9746 34.9016C41.5446 34.9016 41.1959 34.553 41.1959 34.1229C41.1959 27.5514 35.8503 22.2058 29.2787 22.2058C28.8486 22.2058 28.5 21.8572 28.5 21.4271Z" fill="#0077FF" stroke="#0077FF"/>
<path d="M29.2787 15.5C34.254 15.5 38.929 17.4365 42.4472 20.9546C45.9653 24.4727 47.9018 29.1477 47.9018 34.1231C47.9018 34.5532 47.5532 34.9018 47.1231 34.9018C46.6931 34.9018 46.3444 34.5532 46.3444 34.1231C46.3444 24.7125 38.6891 17.0574 29.2787 17.0574C28.8487 17.0574 28.5 16.7088 28.5 16.2787C28.5 15.8487 28.8487 15.5 29.2787 15.5Z" fill="#0077FF" stroke="#0077FF"/>
<circle cx="31.5" cy="31.5" r="30.25" stroke="#0077FF" stroke-width="2.5"/>
</svg>
