<svg width="92" height="44" viewBox="0 0 92 44" fill="none" xmlns="http://www.w3.org/2000/svg">
<path d="M32.9683 29.0021C30.5015 29.0021 27.2124 27.4183 27.2124 22.7716C27.2124 17.988 30.8275 16.5429 32.986 16.5429C34.1024 16.5024 35.2108 16.7463 36.2063 17.2517L35.276 18.9555C34.7324 18.7293 34.1516 18.6053 33.5627 18.5897C31.7179 18.5897 30.1967 20.3069 30.1967 22.7564C30.1967 24.7903 31.584 26.8342 33.5398 26.8342C34.1183 26.8574 34.693 26.7309 35.2079 26.4672L36.1964 28.2852C35.1492 28.8145 33.9813 29.0616 32.8086 29.0021" fill="white"/>
<path d="M61.0478 28.7432V20.3576C61.0691 20.1449 61.0439 19.9301 60.9739 19.728C60.9038 19.5259 60.7907 19.3414 60.6422 19.1871C60.4936 19.0328 60.3133 18.9125 60.1136 18.8344C59.9139 18.7562 59.6996 18.7222 59.4854 18.7346C59.2224 18.7196 58.9594 18.7638 58.7159 18.8642C58.4725 18.9645 58.2549 19.1183 58.0793 19.3141V28.7432H55.0786V20.3114C55.0877 20.1003 55.0525 19.8897 54.9753 19.6929C54.8982 19.4961 54.7807 19.3174 54.6305 19.1683C54.4539 19.0144 54.2486 18.8968 54.0262 18.8224C53.8038 18.7479 53.5688 18.7181 53.3348 18.7346C52.9057 18.7308 52.4795 18.8062 52.0779 18.957V28.7432H49.1001V17.1332C50.254 16.8371 51.4322 16.6446 52.6206 16.5579C53.5834 16.4877 54.5506 16.6046 55.4686 16.9021C55.949 17.0913 56.3818 17.3832 56.7367 17.7571C57.1382 17.3963 57.6013 17.1101 58.104 16.912C58.8034 16.6548 59.5462 16.5355 60.2913 16.5608C61.3321 16.551 62.3347 16.9505 63.0817 17.6728C63.411 18.0363 63.6651 18.4609 63.8296 18.9222C63.994 19.3836 64.0656 19.8728 64.0403 20.3618V28.7473L61.0478 28.7432Z" fill="white"/>
<path d="M48.0745 43.0374C48.0745 43.0374 46.1845 43.2716 44.8994 43.2716C40.4943 43.2716 38.6606 41.7112 38.6606 39.1265C38.6606 37.0779 40.7163 35.1664 45.0679 35.1664V34.6232C45.0679 34.011 44.5699 32.9891 42.8507 32.9891C42.0153 32.9949 41.192 33.1891 40.4426 33.5574C40.4303 33.51 39.4612 31.7353 39.4612 31.7353C40.728 31.1079 42.1296 30.7988 43.5438 30.8351C45.707 30.8351 48.0757 32.0128 48.0757 34.6232L48.0745 43.0374ZM45.0703 36.7075C42.7244 36.7075 41.6161 37.5199 41.6161 39.1288C41.6096 39.4421 41.6686 39.7532 41.7895 40.0424C41.9104 40.3317 42.0904 40.5925 42.3182 40.8085C42.546 41.0245 42.8164 41.1908 43.1123 41.2967C43.4082 41.4026 43.723 41.4459 44.0366 41.4238C44.3866 41.423 44.7346 41.3723 45.0703 41.2733V36.7075Z" fill="white"/>
<path d="M37.0572 41.586C36.0975 42.6214 34.3831 43.2728 31.8199 43.2728C29.8564 43.2728 27.688 43.0387 27.688 43.0387V29.9924C27.688 29.9924 29.6532 29.7688 31.0681 29.7688C34.4442 29.7688 35.2447 30.3576 35.8544 30.7311C36.3125 30.9658 36.7001 31.3174 36.9776 31.7499C37.2551 32.1824 37.4127 32.6805 37.4343 33.1934C37.4343 35.2777 35.4796 35.8219 34.9234 36.0525V36.0895C35.4591 36.2071 35.9649 36.433 36.4094 36.7532C36.8539 37.0735 37.2277 37.4812 37.5077 37.9513C37.7352 38.5478 37.8128 39.1907 37.7339 39.824C37.655 40.4573 37.4219 41.0618 37.0549 41.5848L37.0572 41.586ZM34.4436 33.2437C34.4436 32.1434 33.6401 31.592 32.1342 31.592C31.6461 31.5891 31.1592 31.6411 30.6828 31.7471V35.4134H31.094C33.8709 35.4134 34.4465 34.3201 34.4465 33.2437H34.4436ZM34.8289 39.3431C34.8289 38.3148 34.4089 36.9223 31.094 36.9223H30.6828V41.2869C31.7042 41.5408 32.7811 41.4508 33.7458 41.0311C34.0673 40.88 34.3393 40.6412 34.5305 40.3425C34.7216 40.0438 34.824 39.6974 34.8259 39.3431" fill="white"/>
<path d="M56.2657 43.0368V35.6562C56.2657 34.1087 56.0308 33.3437 54.7627 33.0604C54.1149 32.9734 53.4557 33.0334 52.8344 33.236V43.0368H49.8643V31.4175C51.0127 31.1444 52.1814 30.9637 53.3589 30.8772C55.582 30.7637 56.6891 31.03 57.791 31.7552C58.2437 32.0746 58.6121 32.4986 58.8645 32.9908C59.1169 33.483 59.246 34.0288 59.2406 34.5816V43.0368H56.2657Z" fill="white"/>
<path d="M47.5939 22.7758C47.5939 18.8719 45.5277 16.5454 41.9508 16.5454C38.3739 16.5454 36.2324 18.8719 36.2324 22.7758C36.2324 26.6798 38.3768 29.0069 41.9508 29.0069C45.5247 29.0069 47.5939 26.6827 47.5939 22.7758ZM44.5891 22.7758C44.5891 25.9458 43.1795 26.8489 41.9508 26.8489C40.722 26.8489 39.2373 25.9458 39.2373 22.7758C39.2373 19.6059 40.7262 18.704 41.9508 18.704C43.1754 18.704 44.5891 19.6094 44.5891 22.7758Z" fill="white"/>
<path d="M68.0087 43.038L64.0254 38.3556H63.9984L64.0371 43.038H61.0464V30.0034H64.0371L63.9984 35.0153H64.0401L67.5295 31.1126H71.6074L66.0435 36.6764L72.0026 43.038H68.0087Z" fill="white"/>
<path d="M64.0636 14.1241C63.2079 15.0851 65.223 16.2019 66.5269 16.6754C68.6619 17.4179 70.8831 17.8868 73.1368 18.0708L73.1298 11.3076C68.8369 11.7442 65.4544 12.7972 64.0636 14.1241Z" fill="url(#paint0_linear_3895_2477)"/>
<path d="M12.7732 17.9351C12.7925 19.6043 12.1778 21.219 11.0523 22.4554C9.82942 23.595 8.65944 23.9906 5.61173 23.9379H5.05846V28.7433H0.861328V12.1155C0.861328 12.1155 3.1408 11.8475 5.53773 11.8334C8.92139 11.8147 10.2423 12.438 11.2408 13.3845C11.9955 14.1015 12.7732 15.8608 12.7732 17.9351ZM8.64946 17.8555C8.64946 14.8365 7.13941 14.1161 6.10393 14.0617C5.71922 14.0423 5.05846 14.0804 5.05846 14.0804V21.6079H5.62936C7.03897 21.6079 8.64946 20.4695 8.64946 17.8555Z" fill="#0072BC"/>
<path d="M22.6417 28.7418H19.0995L13.1509 12.0742H18.202C18.202 12.0742 20.9719 21.9658 21.0042 22.1917H21.0306C21.0629 21.9652 23.9503 12.0742 23.9503 12.0742H28.5621L22.6417 28.7418Z" fill="#0072BC"/>
<path d="M81.8664 19.6167C86.1587 19.1824 89.5412 18.1294 90.9338 16.8014C91.7872 15.8409 89.772 14.7248 88.467 14.2507C86.3317 13.5081 84.1104 13.039 81.8564 12.8547L81.8664 19.6167Z" fill="url(#paint1_linear_3895_2477)"/>
<path d="M77.5037 19.8336C71.6063 19.8394 66.5539 18.7215 64.4395 17.1412C64.4213 17.1289 64.4113 17.1412 64.4072 17.1453C64.4073 17.1541 64.4102 17.1627 64.4155 17.1699L77.5184 30.2021L90.955 16.7783C89.1419 18.5412 83.8094 19.8283 77.5049 19.8348" fill="url(#paint2_linear_3895_2477)"/>
<path d="M64.4072 17.1722C64.4073 17.1814 64.4102 17.1904 64.4155 17.198V17.1687L64.4119 17.1658L64.409 17.1699L64.4072 17.1722ZM77.5067 19.8336C71.6092 19.8394 66.5569 18.7215 64.4425 17.1412C64.4243 17.1289 64.4143 17.1412 64.4102 17.1453C64.41 17.1528 64.4116 17.1602 64.4149 17.1669C64.4207 17.1617 64.429 17.1599 64.4425 17.1699C66.5569 18.8895 71.608 20.0964 77.5067 20.0917C83.8123 20.0847 89.1448 18.687 90.9567 16.7783C89.1436 18.5412 83.8112 19.8283 77.5067 19.8348" fill="url(#paint3_linear_3895_2477)"/>
<path d="M81.8589 13.0871C84.098 13.2617 86.3083 13.7017 88.443 14.3976C89.5407 14.7716 91.1389 15.5681 91.1371 16.3501C91.1847 15.5131 89.5707 14.6528 88.4694 14.2507C86.3342 13.5081 84.1129 13.039 81.8589 12.8547V13.0871Z" fill="url(#paint4_linear_3895_2477)"/>
<path d="M64.042 14.1505C65.8528 12.3888 71.187 11.0999 77.4921 11.0929C83.3866 11.0876 88.4395 12.2014 90.5533 13.7853C90.5715 13.7993 90.5815 13.7894 90.5845 13.7853C90.5861 13.7766 90.5845 13.7676 90.5798 13.7601L77.4762 0.727295L64.042 14.1505Z" fill="url(#paint5_linear_3895_2477)"/>
<path d="M90.5822 13.7605V13.7634L90.5863 13.7558C90.5878 13.7469 90.5861 13.7378 90.5816 13.73L90.5822 13.7605ZM77.4945 10.8386C71.1871 10.8445 65.8529 12.2434 64.0444 14.1514C65.8552 12.3897 71.1894 11.1009 77.4945 11.0938C83.389 11.0886 88.4419 12.2024 90.5558 13.7862C90.574 13.8002 90.584 13.7903 90.5869 13.7862C90.5879 13.7824 90.5881 13.7785 90.5874 13.7746C90.5867 13.7708 90.5851 13.7671 90.5828 13.764C90.5781 13.7681 90.5687 13.771 90.5558 13.7605C88.4455 12.0455 83.412 10.8399 77.5345 10.8393H77.4945" fill="url(#paint6_linear_3895_2477)"/>
<path d="M77.5185 30.0253L64.442 17.14C64.4238 17.1277 64.4138 17.14 64.4097 17.1441C64.4098 17.1529 64.4127 17.1615 64.4179 17.1686L77.5208 30.2009L90.9574 16.7771L77.5185 30.0253Z" fill="url(#paint7_linear_3895_2477)"/>
<path d="M66.5269 16.6769C68.6619 17.4194 70.883 17.8883 73.1368 18.0723V17.8381C70.8982 17.663 68.6885 17.2227 66.5545 16.5265C65.4561 16.1525 63.8592 15.3559 63.8609 14.5728C63.8128 15.4109 65.4262 16.2701 66.5286 16.674" fill="url(#paint8_linear_3895_2477)"/>
<defs>
<linearGradient id="paint0_linear_3895_2477" x1="71.8286" y1="18.8215" x2="69.5153" y2="11.3023" gradientUnits="userSpaceOnUse">
<stop stop-color="#0071BB"/>
<stop offset="0.218" stop-color="#0274BD"/>
<stop offset="0.414" stop-color="#0B7FC4"/>
<stop offset="0.603" stop-color="#1A91D0"/>
<stop offset="0.785" stop-color="#2EABE1"/>
<stop offset="0.936" stop-color="#44C7F4"/>
</linearGradient>
<linearGradient id="paint1_linear_3895_2477" x1="86.8406" y1="18.4469" x2="84.9158" y2="12.1874" gradientUnits="userSpaceOnUse">
<stop stop-color="#FFDD00"/>
<stop offset="0.097" stop-color="#FFDD00"/>
<stop offset="0.223" stop-color="#FDD403"/>
<stop offset="0.43" stop-color="#FBBB0B"/>
<stop offset="0.689" stop-color="#F69419"/>
<stop offset="0.801" stop-color="#F48120"/>
<stop offset="1" stop-color="#F48120"/>
</linearGradient>
<linearGradient id="paint2_linear_3895_2477" x1="64.4072" y1="23.4902" x2="90.955" y2="23.4902" gradientUnits="userSpaceOnUse">
<stop offset="0.038" stop-color="#FFDD00"/>
<stop offset="0.283" stop-color="#FBC109"/>
<stop offset="0.769" stop-color="#F48120"/>
</linearGradient>
<linearGradient id="paint3_linear_3895_2477" x1="64.4072" y1="18.435" x2="90.9567" y2="18.435" gradientUnits="userSpaceOnUse">
<stop stop-color="#EAC900"/>
<stop offset="0.491" stop-color="#F48120"/>
</linearGradient>
<linearGradient id="paint4_linear_3895_2477" x1="81.8589" y1="14.6024" x2="91.1381" y2="14.6024" gradientUnits="userSpaceOnUse">
<stop stop-color="#F48120"/>
<stop offset="0.13" stop-color="#F48120"/>
<stop offset="0.509" stop-color="#F48120"/>
<stop offset="1" stop-color="#EAC900"/>
</linearGradient>
<linearGradient id="paint5_linear_3895_2477" x1="64.042" y1="7.4389" x2="90.5851" y2="7.4389" gradientUnits="userSpaceOnUse">
<stop offset="0.16" stop-color="#0071BB"/>
<stop offset="0.366" stop-color="#1186C9"/>
<stop offset="1" stop-color="#44C7F4"/>
</linearGradient>
<linearGradient id="paint6_linear_3895_2477" x1="64.0444" y1="12.495" x2="90.5878" y2="12.495" gradientUnits="userSpaceOnUse">
<stop stop-color="#005CA6"/>
<stop offset="0.16" stop-color="#005CA6"/>
<stop offset="0.406" stop-color="#0077BC"/>
<stop offset="1" stop-color="#00B8F1"/>
</linearGradient>
<linearGradient id="paint7_linear_3895_2477" x1="64.4097" y1="23.489" x2="90.9574" y2="23.489" gradientUnits="userSpaceOnUse">
<stop stop-color="#E8C81C"/>
<stop offset="0.769" stop-color="#DC7727"/>
</linearGradient>
<linearGradient id="paint8_linear_3895_2477" x1="63.8599" y1="16.3225" x2="73.1368" y2="16.3225" gradientUnits="userSpaceOnUse">
<stop stop-color="#1B92D0"/>
<stop offset="0.84" stop-color="#015DA6"/>
<stop offset="1" stop-color="#015DA6"/>
</linearGradient>
</defs>
</svg>
