<svg width="24" height="24" viewBox="0 0 24 24" fill="none" xmlns="http://www.w3.org/2000/svg">
<path d="M21.8458 13.0278C22.483 12.298 21.0024 11.4529 20.0466 11.1072C18.4535 10.5117 16.8604 10.2236 15.1924 10.0508V15.1598C18.341 14.8141 20.815 14.0266 21.8458 13.0278Z" fill="url(#paint0_linear_107_11138)"/>
<path d="M2.18555 13.0658L11.9876 23.111L21.8646 12.989C20.5339 14.3143 16.6168 15.2746 11.9876 15.2746C7.43329 15.2938 3.57245 14.3719 2.18555 13.0658Z" fill="url(#paint1_linear_107_11138)"/>
<path d="M2.14786 10.9919C1.52937 11.7218 2.99124 12.5669 3.94708 12.9126C5.54014 13.508 7.13321 13.7961 8.80124 13.9689V8.87915C5.6526 9.20567 3.15992 9.99314 2.14786 10.9919Z" fill="url(#paint2_linear_107_11138)"/>
<path d="M21.7894 10.9341L11.9873 0.888916L2.11035 11.0109C3.44103 9.68562 7.35809 8.72528 11.9873 8.72528C16.5416 8.70607 20.4025 9.64721 21.7894 10.9341Z" fill="url(#paint3_linear_107_11138)"/>
<defs>
<linearGradient id="paint0_linear_107_11138" x1="19.0814" y1="14.6921" x2="16.0368" y2="9.54627" gradientUnits="userSpaceOnUse">
<stop stop-color="#FFDD00"/>
<stop offset="0.3373" stop-color="#FDB614"/>
<stop offset="0.6282" stop-color="#F8991D"/>
<stop offset="0.8587" stop-color="#F6881F"/>
<stop offset="1" stop-color="#F58220"/>
</linearGradient>
<linearGradient id="paint1_linear_107_11138" x1="21.8076" y1="18.0595" x2="2.21941" y2="18.0595" gradientUnits="userSpaceOnUse">
<stop stop-color="#F58220"/>
<stop offset="0.3373" stop-color="#FBA819"/>
<stop offset="0.6282" stop-color="#FFC50B"/>
<stop offset="0.8587" stop-color="#FFD700"/>
<stop offset="1" stop-color="#FFDD00"/>
</linearGradient>
<linearGradient id="paint2_linear_107_11138" x1="7.80901" y1="14.483" x2="4.76434" y2="9.33715" gradientUnits="userSpaceOnUse">
<stop stop-color="#0072BC"/>
<stop offset="0.1413" stop-color="#0076BF"/>
<stop offset="0.3718" stop-color="#0084C9"/>
<stop offset="0.6627" stop-color="#009EDA"/>
<stop offset="1" stop-color="#44C8F5"/>
</linearGradient>
<linearGradient id="paint3_linear_107_11138" x1="21.7473" y1="5.94813" x2="2.15936" y2="5.94813" gradientUnits="userSpaceOnUse">
<stop stop-color="#44C8F5"/>
<stop offset="0.1413" stop-color="#3DBFEF"/>
<stop offset="0.3718" stop-color="#1DACE3"/>
<stop offset="0.6627" stop-color="#0091D2"/>
<stop offset="1" stop-color="#0072BC"/>
</linearGradient>
</defs>
</svg>
