<svg width="81" height="44" viewBox="0 0 81 44" fill="none" xmlns="http://www.w3.org/2000/svg">
<path d="M30.7261 27.1348C28.876 27.1348 26.4092 25.9733 26.4092 22.5658C26.4092 19.0578 29.1205 17.998 30.7393 17.998C31.5767 17.9684 32.408 18.1472 33.1546 18.5178L32.4569 19.7673C32.0492 19.6014 31.6135 19.5105 31.1719 19.499C29.7883 19.499 28.6474 20.7583 28.6474 22.5546C28.6474 24.0462 29.6879 25.545 31.1547 25.545C31.5886 25.562 32.0196 25.4693 32.4058 25.2759L33.1471 26.609C32.3617 26.9972 31.4858 27.1784 30.6063 27.1348" fill="#FFC709"/>
<path d="M51.7859 26.9448V20.7954C51.8019 20.6394 51.783 20.4819 51.7305 20.3337C51.678 20.1855 51.5931 20.0501 51.4817 19.937C51.3704 19.8239 51.2351 19.7356 51.0853 19.6783C50.9356 19.621 50.7748 19.5961 50.6142 19.6052C50.4169 19.5941 50.2197 19.6266 50.0371 19.7002C49.8545 19.7737 49.6913 19.8865 49.5596 20.0301V26.9448H47.3091V20.7615C47.3159 20.6067 47.2895 20.4522 47.2316 20.3079C47.1737 20.1636 47.0857 20.0325 46.973 19.9232C46.8406 19.8103 46.6865 19.7241 46.5198 19.6695C46.353 19.6149 46.1767 19.5931 46.0012 19.6052C45.6794 19.6023 45.3597 19.6576 45.0586 19.7683V26.9448H42.8252V18.4308C43.6906 18.2137 44.5743 18.0725 45.4656 18.0089C46.1876 17.9574 46.9131 18.0431 47.6016 18.2613C47.9618 18.4001 48.2865 18.6141 48.5526 18.8884C48.8538 18.6238 49.2011 18.4139 49.5781 18.2686C50.1026 18.08 50.6598 17.9925 51.2186 18.0111C51.9992 18.0039 52.7512 18.2969 53.3114 18.8265C53.5583 19.0931 53.7489 19.4044 53.8723 19.7428C53.9956 20.0811 54.0493 20.4398 54.0303 20.7984V26.9478L51.7859 26.9448Z" fill="#FFC709"/>
<path d="M42.056 37.4273C42.056 37.4273 40.6385 37.599 39.6746 37.599C36.3709 37.599 34.9956 36.4547 34.9956 34.5592C34.9956 33.057 36.5374 31.6551 39.8011 31.6551V31.2568C39.8011 30.8079 39.4275 30.0585 38.1382 30.0585C37.5116 30.0627 36.8941 30.2052 36.3321 30.4752C36.3228 30.4404 35.596 29.139 35.596 29.139C36.5461 28.6789 37.5973 28.4523 38.658 28.4789C40.2803 28.4789 42.0569 29.3425 42.0569 31.2568L42.056 37.4273ZM39.8028 32.7853C38.0435 32.7853 37.2122 33.381 37.2122 34.561C37.2073 34.7907 37.2516 35.0188 37.3422 35.2309C37.4329 35.443 37.5679 35.6343 37.7388 35.7927C37.9096 35.9511 38.1124 36.073 38.3343 36.1507C38.5562 36.2284 38.7923 36.2602 39.0275 36.2439C39.29 36.2433 39.5511 36.2061 39.8028 36.1336V32.7853Z" fill="#FFC709"/>
<path d="M33.793 36.363C33.0733 37.1223 31.7874 37.6 29.8651 37.6C28.3925 37.6 26.7661 37.4283 26.7661 37.4283V27.861C26.7661 27.861 28.24 27.697 29.3012 27.697C31.8332 27.697 32.4337 28.1288 32.8909 28.4027C33.2345 28.5748 33.5252 28.8326 33.7333 29.1498C33.9414 29.467 34.0596 29.8323 34.0759 30.2084C34.0759 31.7369 32.6098 32.136 32.1927 32.3051V32.3322C32.5945 32.4184 32.9738 32.5841 33.3072 32.8189C33.6406 33.0538 33.9209 33.3528 34.1309 33.6975C34.3015 34.135 34.3597 34.6064 34.3005 35.0709C34.2413 35.5353 34.0665 35.9786 33.7913 36.3621L33.793 36.363ZM31.8328 30.2453C31.8328 29.4384 31.2302 29.034 30.1007 29.034C29.7347 29.0319 29.3695 29.0701 29.0122 29.1478V31.8364H29.3206C31.4033 31.8364 31.835 31.0346 31.835 30.2453H31.8328ZM32.1218 34.7182C32.1218 33.9641 31.8068 32.943 29.3206 32.943H29.0122V36.1437C29.7783 36.3298 30.5859 36.2639 31.3095 35.9561C31.5506 35.8452 31.7546 35.6701 31.898 35.4511C32.0413 35.2321 32.1181 34.978 32.1196 34.7182" fill="#FFC709"/>
<path d="M48.199 37.427V32.0145C48.199 30.8797 48.0228 30.3187 47.0718 30.1109C46.5859 30.0471 46.0915 30.0911 45.6256 30.2397V37.427H43.3979V28.9061C44.2593 28.7058 45.1358 28.5734 46.019 28.5099C47.6863 28.4267 48.5166 28.622 49.343 29.1538C49.6825 29.388 49.9588 29.6989 50.1481 30.0599C50.3375 30.4208 50.4342 30.8211 50.4302 31.2265V37.427H48.199Z" fill="#FFC709"/>
<path d="M41.6954 22.569C41.6954 19.7061 40.1457 18 37.4631 18C34.7804 18 33.1743 19.7061 33.1743 22.569C33.1743 25.4319 34.7826 27.1384 37.4631 27.1384C40.1435 27.1384 41.6954 25.434 41.6954 22.569ZM39.4418 22.569C39.4418 24.8936 38.3846 25.5559 37.4631 25.5559C36.5415 25.5559 35.4279 24.8936 35.4279 22.569C35.4279 20.2443 36.5446 19.583 37.4631 19.583C38.3815 19.583 39.4418 20.2469 39.4418 22.569Z" fill="#FFC709"/>
<path d="M57.0069 37.4278L54.0194 33.9941H53.9991L54.0282 37.4278H51.7852V27.8691H54.0282L53.9991 31.5445H54.0304L56.6475 28.6825H59.7059L55.533 32.7627L60.0023 37.4278H57.0069Z" fill="#FFC709"/>
<path d="M54.048 16.2243C53.4061 16.9291 54.9175 17.7481 55.8954 18.0953C57.4967 18.6398 59.1626 18.9837 60.8529 19.1186L60.8476 14.1589C57.6279 14.4791 55.0911 15.2513 54.048 16.2243" fill="url(#paint0_linear_108_11807)"/>
<path d="M15.5799 19.0191C15.5944 20.2431 15.1333 21.4273 14.2892 22.3339C13.3721 23.1696 12.4946 23.4598 10.2088 23.4211H9.79385V26.945H6.646V14.7513C6.646 14.7513 8.3556 14.5548 10.1533 14.5445C12.691 14.5308 13.6817 14.9879 14.4306 15.6819C14.9966 16.2077 15.5799 17.4979 15.5799 19.0191ZM12.4871 18.9607C12.4871 16.7468 11.3546 16.2184 10.5779 16.1785C10.2894 16.1644 9.79385 16.1923 9.79385 16.1923V21.7124H10.222C11.2792 21.7124 12.4871 20.8776 12.4871 18.9607Z" fill="#0072BC"/>
<path d="M22.9814 26.9438H20.3247L15.8633 14.7209H19.6516C19.6516 14.7209 21.729 21.9748 21.7533 22.1404H21.7731C21.7973 21.9743 23.9628 14.7209 23.9628 14.7209H27.4217L22.9814 26.9438Z" fill="#0072BC"/>
<path d="M67.4001 20.252C70.6193 19.9335 73.1562 19.1613 74.2006 18.1874C74.8406 17.4831 73.3293 16.6646 72.3505 16.3169C70.749 15.7723 69.0831 15.4283 67.3926 15.2932L67.4001 20.252Z" fill="url(#paint1_linear_108_11807)"/>
<path d="M64.128 20.4112C59.7049 20.4155 55.9157 19.5957 54.3299 18.4368C54.3162 18.4278 54.3087 18.4367 54.3057 18.4398C54.3058 18.4462 54.3079 18.4525 54.3118 18.4578L64.1391 28.0148L74.2165 18.1707C72.8566 19.4635 68.8573 20.4073 64.1289 20.4121" fill="url(#paint2_linear_108_11807)"/>
<path d="M54.3057 18.4595C54.3057 18.4663 54.3079 18.4729 54.3118 18.4784V18.4569L54.3092 18.4548L54.307 18.4578L54.3057 18.4595ZM64.1302 20.4112C59.7071 20.4155 55.9179 19.5957 54.3321 18.4368C54.3184 18.4278 54.311 18.4368 54.3079 18.4398C54.3077 18.4452 54.3089 18.4507 54.3114 18.4556C54.3158 18.4518 54.322 18.4505 54.3321 18.4578C55.9179 19.7188 59.7063 20.6039 64.1302 20.6005C68.8595 20.5953 72.8588 19.5703 74.2178 18.1707C72.858 19.4635 68.8586 20.4073 64.1302 20.4121" fill="url(#paint3_linear_108_11807)"/>
<path d="M67.394 15.4636C69.0734 15.5917 70.7311 15.9143 72.3321 16.4246C73.1554 16.6989 74.354 17.283 74.3527 17.8565C74.3884 17.2427 73.1779 16.6118 72.3519 16.3169C70.7505 15.7723 69.0845 15.4283 67.394 15.2932V15.4636Z" fill="url(#paint4_linear_108_11807)"/>
<path d="M54.0317 16.2436C55.3898 14.9516 59.3905 14.0065 64.1193 14.0013C68.5402 13.9975 72.3299 14.8143 73.9152 15.9757C73.9289 15.986 73.9364 15.9787 73.9386 15.9757C73.9398 15.9694 73.9386 15.9628 73.9351 15.9573L64.1074 6.3999L54.0317 16.2436Z" fill="url(#paint5_linear_108_11807)"/>
<path d="M73.9365 15.9574V15.9595L73.9396 15.9539C73.9407 15.9474 73.9394 15.9408 73.9361 15.9351L73.9365 15.9574ZM64.1208 13.8147C59.3902 13.819 55.3895 14.8448 54.0332 16.2441C55.3913 14.9521 59.3919 14.007 64.1208 14.0019C68.5417 13.998 72.3313 14.8148 73.9167 15.9762C73.9304 15.9865 73.9379 15.9793 73.9401 15.9762C73.9408 15.9735 73.9409 15.9706 73.9404 15.9678C73.9399 15.9649 73.9387 15.9623 73.937 15.96C73.9335 15.963 73.9264 15.9651 73.9167 15.9574C72.334 14.6998 68.5589 13.8156 64.1507 13.8152H64.1208" fill="url(#paint6_linear_108_11807)"/>
<path d="M64.1388 27.885L54.3314 18.4358C54.3177 18.4268 54.3102 18.4358 54.3071 18.4388C54.3072 18.4453 54.3094 18.4516 54.3133 18.4568L64.1405 28.0138L74.2179 18.1697L64.1388 27.885Z" fill="url(#paint7_linear_108_11807)"/>
<path d="M55.8953 18.0963C57.4965 18.6408 59.1624 18.9846 60.8527 19.1195V18.9478C59.1738 18.8194 57.5165 18.4965 55.916 17.986C55.0922 17.7117 53.8945 17.1275 53.8958 16.5532C53.8597 17.1679 55.0698 17.7979 55.8966 18.0941" fill="url(#paint8_linear_108_11807)"/>
<defs>
<linearGradient id="paint0_linear_108_11807" x1="59.8717" y1="19.6691" x2="58.2066" y2="14.134" gradientUnits="userSpaceOnUse">
<stop stop-color="#0071BB"/>
<stop offset="0.218" stop-color="#0274BD"/>
<stop offset="0.414" stop-color="#0B7FC4"/>
<stop offset="0.603" stop-color="#1A91D0"/>
<stop offset="0.785" stop-color="#2EABE1"/>
<stop offset="0.936" stop-color="#44C7F4"/>
</linearGradient>
<linearGradient id="paint1_linear_108_11807" x1="71.1307" y1="19.3941" x2="69.7453" y2="14.7864" gradientUnits="userSpaceOnUse">
<stop stop-color="#FFDD00"/>
<stop offset="0.097" stop-color="#FFDD00"/>
<stop offset="0.223" stop-color="#FDD403"/>
<stop offset="0.43" stop-color="#FBBB0B"/>
<stop offset="0.689" stop-color="#F69419"/>
<stop offset="0.801" stop-color="#F48120"/>
<stop offset="1" stop-color="#F48120"/>
</linearGradient>
<linearGradient id="paint2_linear_108_11807" x1="54.3057" y1="23.0927" x2="74.2165" y2="23.0927" gradientUnits="userSpaceOnUse">
<stop offset="0.038" stop-color="#FFDD00"/>
<stop offset="0.283" stop-color="#FBC109"/>
<stop offset="0.769" stop-color="#F48120"/>
</linearGradient>
<linearGradient id="paint3_linear_108_11807" x1="54.3057" y1="19.3856" x2="74.2178" y2="19.3856" gradientUnits="userSpaceOnUse">
<stop stop-color="#EAC900"/>
<stop offset="0.491" stop-color="#F48120"/>
</linearGradient>
<linearGradient id="paint4_linear_108_11807" x1="67.394" y1="16.5748" x2="74.3535" y2="16.5748" gradientUnits="userSpaceOnUse">
<stop stop-color="#F48120"/>
<stop offset="0.13" stop-color="#F48120"/>
<stop offset="0.509" stop-color="#F48120"/>
<stop offset="1" stop-color="#EAC900"/>
</linearGradient>
<linearGradient id="paint5_linear_108_11807" x1="54.0317" y1="11.3217" x2="73.9391" y2="11.3217" gradientUnits="userSpaceOnUse">
<stop offset="0.16" stop-color="#0071BB"/>
<stop offset="0.366" stop-color="#1186C9"/>
<stop offset="1" stop-color="#44C7F4"/>
</linearGradient>
<linearGradient id="paint6_linear_108_11807" x1="54.0332" y1="15.0294" x2="73.9407" y2="15.0294" gradientUnits="userSpaceOnUse">
<stop stop-color="#005CA6"/>
<stop offset="0.16" stop-color="#005CA6"/>
<stop offset="0.406" stop-color="#0077BC"/>
<stop offset="1" stop-color="#00B8F1"/>
</linearGradient>
<linearGradient id="paint7_linear_108_11807" x1="54.3071" y1="23.0917" x2="74.2179" y2="23.0917" gradientUnits="userSpaceOnUse">
<stop stop-color="#E8C81C"/>
<stop offset="0.769" stop-color="#DC7727"/>
</linearGradient>
<linearGradient id="paint8_linear_108_11807" x1="53.895" y1="17.8364" x2="60.8527" y2="17.8364" gradientUnits="userSpaceOnUse">
<stop stop-color="#1B92D0"/>
<stop offset="0.84" stop-color="#015DA6"/>
<stop offset="1" stop-color="#015DA6"/>
</linearGradient>
</defs>
</svg>
