<svg width="147" height="59" viewBox="0 0 147 59" fill="none" xmlns="http://www.w3.org/2000/svg">
<path d="M0 34.7294V4.19318C0 2.86757 0.367409 1.8372 1.10223 1.10208C1.83705 0.366949 2.79571 -0.000409999 3.97822 3.43383e-07C4.61571 0.02514 5.23986 0.190369 5.80629 0.483948C6.43273 0.764978 6.98492 1.18835 7.41893 1.72036L24.4071 24.5148L24.5148 4.19334C24.5148 2.86773 24.8822 1.83736 25.617 1.10223C26.3519 0.367102 27.3465 -0.000307413 28.6009 3.43383e-07C29.7837 3.43383e-07 30.7424 0.36741 31.477 1.10223C32.2117 1.83705 32.5791 2.86742 32.5793 4.19334V34.7294C32.5793 36.0555 32.2119 37.0859 31.477 37.8205C30.7422 38.5551 29.7835 38.9225 28.6009 38.9228C28.0634 38.9228 27.454 38.7436 26.7728 38.3853C26.15 38.0743 25.6004 37.6346 25.1602 37.0953L8.17201 14.6231L8.0643 34.7297C8.0643 36.0558 7.69689 37.0862 6.96207 37.8208C6.22725 38.5554 5.23263 38.9227 3.97822 38.9226C2.7954 38.9226 1.83669 38.5552 1.10208 37.8204C0.367462 37.0855 0.000102586 36.0552 0 34.7294Z" fill="white"/>
<path d="M60.1832 26.88H43.7328C43.9828 28.673 44.7802 30.0528 46.125 31.0193C47.4698 31.9859 49.1095 32.4698 51.0442 32.4712C52.2982 32.4712 53.6062 32.1485 54.9681 31.5033C58.0149 30.0705 59.6101 29.3537 59.7537 29.353C60.6134 29.353 61.366 29.6933 62.0117 30.374C62.6282 30.9858 62.9763 31.8175 62.9796 32.686C62.9796 34.2986 61.6086 35.7949 58.8665 37.1748C56.2122 38.5339 53.2731 39.2434 50.2911 39.2449C45.9911 39.2449 42.4969 37.847 39.8085 35.0511C37.12 32.2552 35.7761 28.6714 35.7769 24.2995C35.7769 20.2495 37.0848 16.7462 39.7008 13.7896C42.3167 10.833 45.6321 9.35459 49.647 9.35449C53.6254 9.35449 56.9943 10.8955 59.7539 13.9776C62.3344 16.8458 63.6245 19.9998 63.6241 23.4397C63.6237 25.7341 62.4767 26.8808 60.1832 26.88ZM43.5174 21.7194H55.8821C55.6667 19.9278 55.0218 18.4942 53.9473 17.4185C52.8728 16.3428 51.4394 15.8052 49.647 15.8057C47.9617 15.8057 46.5728 16.3523 45.4803 17.4454C44.3877 18.5386 43.7334 19.9632 43.5174 21.7194Z" fill="white"/>
<path d="M67.7762 32.4716L75.6252 23.5476L69.0663 16.2356C68.7289 15.8176 68.4486 15.3567 68.2326 14.8649C68.0175 14.4198 67.8986 13.9343 67.8839 13.4401C67.8839 12.4371 68.2959 11.5591 69.1198 10.8059C69.9438 10.0527 70.8578 9.67647 71.8618 9.67719C72.3941 9.65921 72.9219 9.77951 73.3938 10.0263C73.9052 10.3421 74.3672 10.7316 74.765 11.1821L80.1411 17.956L85.6248 11.1821C86.4124 10.1791 87.3441 9.67749 88.4199 9.67719C89.4503 9.67366 90.4422 10.0681 91.1888 10.7783C91.7624 11.2692 92.1596 11.9344 92.3197 12.6722C92.4798 13.41 92.3941 14.1799 92.0756 14.8644C91.8537 15.3589 91.5643 15.8202 91.2158 16.2352L84.6569 23.547L92.506 32.471C92.859 32.822 93.1366 33.2415 93.3215 33.7037C93.5064 34.166 93.5947 34.6612 93.5811 35.1588C93.5811 36.306 93.2406 37.22 92.5597 37.9008C91.8787 38.5815 90.9648 38.9222 89.818 38.9227C89.0289 38.9227 88.4107 38.7882 87.9633 38.5194C87.4283 38.1695 86.9633 37.7228 86.5921 37.2023L80.1409 29.3533L73.7965 37.2023C73.1518 37.9548 72.6052 38.4297 72.1568 38.6271C71.6544 38.8343 71.1145 38.9349 70.5712 38.9227C69.424 38.9227 68.4923 38.5822 67.7762 37.9012C67.06 37.2203 66.7015 36.3063 66.7006 35.1593C66.7188 34.6856 66.8285 34.22 67.0237 33.7881C67.2115 33.3161 67.4648 32.873 67.7762 32.4716V32.4716Z" fill="white"/>
<path d="M101.8 34.6215V16.7729H100.08C99.0759 16.7729 98.2515 16.4683 97.6065 15.8591C96.9616 15.25 96.6391 14.4077 96.6391 13.3321C96.6258 12.8857 96.7077 12.4415 96.8791 12.0291C97.0506 11.6167 97.3078 11.2454 97.6336 10.94C98.2923 10.3146 99.1723 9.97636 100.08 9.9996H101.801V5.37587C101.801 4.08534 102.159 3.04594 102.876 2.25768C103.593 1.46941 104.524 1.07512 105.671 1.07481C106.818 1.07481 107.749 1.4691 108.467 2.25768C109.184 3.04625 109.543 4.08565 109.542 5.37587V9.99945H111.8C112.875 9.99945 113.753 10.2591 114.435 10.7785C115.116 11.2979 115.456 12.1491 115.456 13.332C115.456 14.4797 115.115 15.3399 114.435 15.9125C113.754 16.4852 112.876 16.7719 111.8 16.7727H109.542V34.6215C109.542 35.9115 109.183 36.9509 108.466 37.7397C107.75 38.5285 106.818 38.9228 105.671 38.9226C104.524 38.9226 103.592 38.5283 102.875 37.7397C102.159 36.9511 101.801 35.9117 101.8 34.6215Z" fill="white"/>
<path d="M146.431 14.7305V33.8693C146.431 35.3742 146.287 36.4495 146 37.0952C145.426 38.3136 144.315 38.9228 142.667 38.9228C141.592 38.9228 140.785 38.6539 140.247 38.1161C139.71 37.5784 139.298 36.7361 139.012 35.5892C138.064 36.6994 136.914 37.6206 135.624 38.304C134.376 38.9384 132.993 39.2614 131.593 39.2455C127.973 39.2455 124.935 37.8387 122.48 35.0252C120.026 32.2117 118.798 28.6366 118.798 24.2999C118.798 20.0711 120.034 16.5228 122.507 13.6549C124.98 10.787 128.008 9.35352 131.592 9.35444C133.044 9.33632 134.484 9.62964 135.813 10.2146C137.103 10.8037 138.209 11.7328 139.012 12.9024C139.049 12.4522 139.176 12.0139 139.383 11.6126C139.591 11.2114 139.876 10.8549 140.221 10.5638C140.901 9.97918 141.771 9.66391 142.668 9.67759C144.315 9.67759 145.409 10.251 145.947 11.3979C146.269 12.0785 146.431 13.1893 146.431 14.7305ZM126.539 24.2999C126.539 26.4151 127.023 28.1891 127.99 29.6219C129.137 31.3072 130.696 32.1495 132.668 32.1489C134.567 32.1489 136.073 31.3246 137.184 29.6761C138.187 28.1706 138.689 26.3786 138.69 24.3C138.69 22.257 138.206 20.5009 137.238 19.0317C136.091 17.3108 134.568 16.4504 132.668 16.4505C130.733 16.4505 129.192 17.2929 128.045 18.9775C127.041 20.4829 126.539 22.257 126.539 24.2999Z" fill="white"/>
<path d="M0 43.7003H0.64075V54.8169H0V43.7003Z" fill="white"/>
<path d="M9.22493 49.7892V54.8166H8.5691V49.8513C8.5691 49.0191 8.39983 48.4105 8.0613 48.0256C7.72277 47.6407 7.18419 47.448 6.44558 47.4475C5.60294 47.4475 4.92911 47.7023 4.42408 48.212C3.91905 48.7216 3.66674 49.4086 3.66715 50.273V54.8164H3.0264V49.165C3.03227 48.4449 2.99079 47.7253 2.90222 47.0107H3.52635L3.63561 48.4936C3.83822 47.9715 4.21215 47.5338 4.69614 47.2521C5.20955 46.9604 5.79213 46.8126 6.38249 46.8243C8.27694 46.824 9.22441 47.8123 9.22493 49.7892Z" fill="white"/>
<path d="M17.6246 49.7892V54.8166H16.9688V49.8513C16.9688 49.0191 16.7995 48.4105 16.461 48.0256C16.1224 47.6407 15.5839 47.448 14.8452 47.4475C14.0026 47.4475 13.3288 47.7023 12.8237 48.212C12.3187 48.7216 12.0664 49.4086 12.0668 50.273V54.8164H11.4261V49.165C11.4319 48.4449 11.3904 47.7253 11.3019 47.0107H11.9271L12.0363 48.4936C12.2389 47.9715 12.6129 47.5338 13.0969 47.2521C13.6103 46.9604 14.1929 46.8126 14.7832 46.8243C16.6767 46.824 17.6239 47.8123 17.6246 49.7892Z" fill="white"/>
<path d="M21.4487 54.4268C20.9094 54.0841 20.483 53.5901 20.2227 53.0065C19.9249 52.3333 19.7786 51.6028 19.7943 50.8668C19.7779 50.1337 19.9242 49.406 20.2227 48.7361C20.4848 48.1556 20.9109 47.6645 21.4487 47.3233C21.9975 46.9856 22.6316 46.8125 23.2758 46.8243C23.9173 46.8118 24.5487 46.9851 25.0939 47.3233C25.6282 47.6664 26.0515 48.1572 26.3123 48.7361C26.6111 49.4059 26.7578 50.1336 26.7416 50.8668C26.7571 51.6029 26.6105 52.3334 26.3123 53.0065C26.0532 53.5885 25.6297 54.0822 25.0939 54.4268C24.5488 54.7654 23.9174 54.9389 23.2758 54.9263C22.6315 54.9382 21.9973 54.7649 21.4487 54.4268ZM25.3123 53.3958C25.7963 52.8027 26.0386 51.9595 26.0392 50.8664C26.0392 49.8057 25.7944 48.9731 25.3047 48.3685C24.8151 47.7638 24.1387 47.4619 23.2757 47.4627C22.4115 47.4627 21.7322 47.7622 21.2377 48.3611C20.7432 48.96 20.4964 49.7951 20.4972 50.8665C20.4972 51.9707 20.7365 52.8165 21.2151 53.404C21.6937 53.9915 22.375 54.2854 23.2591 54.2857C24.1449 54.2856 24.8293 53.989 25.3123 53.3958Z" fill="white"/>
<path d="M36.2823 47.0099L32.9573 54.8163H32.1929L28.8983 47.0099H29.6008L32.5982 54.2227L35.6116 47.0099H36.2823Z" fill="white"/>
<path d="M45.3092 47.0097V54.8161H44.6524V53.2549C44.4446 53.7717 44.0749 54.2073 43.5988 54.4964C43.0852 54.7934 42.4992 54.942 41.9061 54.9257C41.2602 54.9397 40.6237 54.7689 40.0716 54.4333C39.5365 54.0946 39.1128 53.6061 38.8532 53.0285C38.569 52.3523 38.4234 51.6259 38.4248 50.8924C38.4263 50.1589 38.5748 49.4332 38.8616 48.7581C39.1258 48.1752 39.5507 47.6797 40.0865 47.3298C40.6306 46.9869 41.2631 46.8108 41.9061 46.8232C42.4981 46.807 43.0832 46.9523 43.5988 47.2436C44.0754 47.5286 44.4455 47.9618 44.6524 48.4771V47.0097H45.3092ZM43.9344 53.3878C44.4134 52.7896 44.6527 51.949 44.6522 50.8659C44.6522 49.7733 44.413 48.9331 43.9344 48.3454C43.4558 47.7577 42.7795 47.4632 41.9054 47.4621C41.0311 47.4621 40.3493 47.764 39.8599 48.3678C39.3704 48.9717 39.126 49.815 39.1265 50.8978C39.1265 51.9699 39.3734 52.8024 39.8674 53.3952C40.3613 53.988 41.0457 54.2846 41.9204 54.2849C42.7846 54.2852 43.4559 53.9863 43.9344 53.3881V53.3878Z" fill="white"/>
<path d="M49.5247 47.5715V52.5516C49.5247 53.2184 49.647 53.6736 49.8918 53.9173C50.1366 54.1609 50.4983 54.2833 50.977 54.2844C51.2741 54.2866 51.5695 54.2394 51.8512 54.1447V54.7834C51.5458 54.8665 51.2308 54.9088 50.9143 54.9092C50.2896 54.9092 49.7925 54.7348 49.423 54.386C49.0534 54.0372 48.8688 53.4986 48.869 52.7702V47.5715H47.3077V47.0098H48.8688V44.8871L49.5247 44.6061V47.0098H51.8978V47.5715H49.5247Z" fill="white"/>
<path d="M54.9593 43.8874V44.8876H53.9437V43.8874H54.9593ZM54.1162 47.0101H54.7564V54.8165H54.1162V47.0101Z" fill="white"/>
<path d="M63.2167 49.7892V54.8166H62.5608V49.8513C62.5608 49.0191 62.3916 48.4105 62.053 48.0256C61.7145 47.6407 61.1759 47.448 60.4373 47.4475C59.5952 47.4475 58.9214 47.7023 58.4158 48.212C57.9103 48.7216 57.658 49.4086 57.6589 50.273V54.8164H57.0186V49.165C57.0243 48.4449 56.9826 47.7252 56.8938 47.0107H57.519L57.6283 48.4936C57.8309 47.9715 58.2048 47.5338 58.6888 47.2521C59.2022 46.9604 59.7848 46.8126 60.3751 46.8243C62.2695 46.824 63.2167 47.8123 63.2167 49.7892Z" fill="white"/>
<path d="M72.3351 47.0095V54.9252C72.3351 56.0379 72.0721 56.8786 71.546 57.4471C71.0199 58.0137 70.2419 58.2969 69.2118 58.2968C68.0465 58.2968 67.0474 58.0056 66.2144 57.4231L66.3541 56.7988C66.7955 57.0731 67.267 57.2957 67.7594 57.4622C68.2415 57.6008 68.7417 57.6663 69.2432 57.6565C70.0434 57.6565 70.6521 57.4304 71.0693 56.9782C71.4865 56.526 71.6947 55.8676 71.694 55.0029V52.864C71.49 53.3958 71.117 53.8459 70.6323 54.145C70.1063 54.4483 69.5064 54.5996 68.8994 54.5819C68.2567 54.5938 67.6237 54.4234 67.0738 54.0904C66.5388 53.7581 66.1085 53.2816 65.8323 52.7156C65.5393 52.082 65.3875 51.3923 65.3875 50.6941C65.3875 49.996 65.5393 49.3063 65.8323 48.6726C66.1072 48.1077 66.538 47.6333 67.0738 47.3054C67.6258 46.9782 68.2579 46.8112 68.8994 46.823C69.4972 46.8052 70.0884 46.9505 70.6098 47.2434C71.0882 47.5306 71.4628 47.9626 71.6794 48.4769V47.0095H72.3351ZM70.9374 53.0599C71.4314 52.4817 71.6787 51.6931 71.6794 50.6941C71.6794 49.6842 71.4321 48.8929 70.9374 48.3204C70.4427 47.7479 69.7634 47.4617 68.8994 47.4618C68.0252 47.4618 67.3383 47.748 66.8389 48.3204C66.3394 48.8928 66.0899 49.6841 66.0904 50.6941C66.0904 51.7041 66.3399 52.4951 66.8389 53.0673C67.3378 53.6394 68.0247 53.9256 68.8994 53.9259C69.7635 53.9263 70.4428 53.6378 70.9372 53.0603L70.9374 53.0599Z" fill="white"/>
<path d="M78.1241 43.7003H84.8058V44.3091H78.7794V48.8676H84.4932V49.4928H78.7794V54.2076H84.8057V54.8169H78.1241V43.7003Z" fill="white"/>
<path d="M93.9242 43.3257V54.8164H93.2674V53.2547C93.0596 53.7715 92.6899 54.2071 92.2138 54.4962C91.7002 54.7932 91.1142 54.9418 90.5212 54.9255C89.8781 54.938 89.2455 54.7617 88.7016 54.4185C88.1641 54.0667 87.7389 53.5681 87.4767 52.9817C87.1899 52.3082 87.0414 51.584 87.0398 50.8519C87.0382 50.1199 87.1837 49.3951 87.4676 48.7203C87.7272 48.1425 88.1511 47.6538 88.6865 47.3151C89.2388 46.9801 89.8752 46.8096 90.521 46.8236C91.1129 46.8074 91.6981 46.9527 92.2137 47.244C92.6902 47.529 93.0603 47.9623 93.2673 48.4775V43.3257H93.9242ZM92.5494 53.3879C93.0284 52.7898 93.2677 51.9491 93.2674 50.866C93.2671 49.7829 93.0278 48.9453 92.5494 48.353C92.0705 47.7599 91.3991 47.463 90.5355 47.4622C89.6612 47.4622 88.9769 47.7567 88.4824 48.3455C87.988 48.9343 87.741 49.7643 87.7415 50.8354C87.7415 51.918 87.9885 52.7633 88.4824 53.3713C88.9764 53.9815 89.6557 54.2861 90.5204 54.2852C91.3941 54.2852 92.0705 53.9861 92.5494 53.3879Z" fill="white"/>
<path d="M102.181 47.0099V54.8163H101.557V53.3334C101.322 53.8262 100.944 54.2366 100.472 54.5112C99.9856 54.7909 99.4324 54.9339 98.8712 54.925C97.977 54.925 97.2952 54.6724 96.8257 54.1674C96.3584 53.6634 96.1242 52.922 96.1233 51.9431V47.0099H96.7636V51.8809C96.7636 52.7031 96.9328 53.3092 97.2714 53.6995C97.6099 54.0897 98.1275 54.2849 98.824 54.2851C99.6461 54.2851 100.305 54.0276 100.8 53.5127C101.295 52.9977 101.542 52.3133 101.54 51.4596V47.0099H102.181Z" fill="white"/>
<path d="M106.092 54.4266C105.548 54.0857 105.115 53.5951 104.843 53.0138C104.535 52.3522 104.382 51.6285 104.398 50.8986C104.384 50.1634 104.536 49.4345 104.843 48.7665C105.114 48.1762 105.55 47.6773 106.1 47.3306C106.668 46.9854 107.324 46.8097 107.989 46.8241C108.496 46.8211 109 46.9162 109.471 47.1041C109.912 47.2727 110.311 47.5335 110.643 47.869L110.33 48.4307C109.97 48.1287 109.571 47.8765 109.144 47.6807C108.779 47.5255 108.386 47.4461 107.989 47.4473C107.094 47.4473 106.388 47.7569 105.874 48.3761C105.359 48.9953 105.102 49.8409 105.101 50.9131C105.101 51.9751 105.356 52.8026 105.866 53.3954C106.376 53.9883 107.079 54.2848 107.974 54.2852C108.373 54.2866 108.768 54.2097 109.137 54.0586C109.569 53.8698 109.971 53.6199 110.332 53.3166L110.644 53.8632C110.299 54.2043 109.887 54.4703 109.433 54.6443C108.969 54.8297 108.474 54.925 107.975 54.9253C107.312 54.9411 106.659 54.7681 106.092 54.4266V54.4266Z" fill="white"/>
<path d="M119.388 47.0097V54.8161H118.732V53.2549C118.524 53.7717 118.154 54.2072 117.678 54.4964C117.164 54.7934 116.579 54.942 115.985 54.9257C115.339 54.9396 114.703 54.7688 114.151 54.4333C113.616 54.0946 113.192 53.6061 112.932 53.0285C112.648 52.3523 112.502 51.6259 112.504 50.8924C112.506 50.1589 112.654 49.4331 112.941 48.7581C113.205 48.1751 113.63 47.6796 114.166 47.3298C114.71 46.9869 115.342 46.8108 115.985 46.8232C116.577 46.807 117.163 46.9523 117.678 47.2436C118.155 47.5286 118.525 47.9618 118.732 48.4771V47.0097H119.388ZM118.014 53.3878C118.493 52.7896 118.732 51.949 118.732 50.8659C118.732 49.7733 118.492 48.9331 118.014 48.3454C117.535 47.7577 116.859 47.4632 115.985 47.4621C115.11 47.4621 114.429 47.764 113.939 48.3678C113.45 48.9717 113.205 49.815 113.206 50.8978C113.206 51.9699 113.453 52.8024 113.947 53.3952C114.44 53.9881 115.125 54.2846 116 54.2849C116.864 54.2852 117.535 53.9863 118.014 53.3881V53.3878Z" fill="white"/>
<path d="M123.604 47.5715V52.5516C123.604 53.2184 123.726 53.6736 123.971 53.9173C124.216 54.1609 124.578 54.2833 125.056 54.2844C125.353 54.2866 125.649 54.2394 125.93 54.1447V54.7834C125.625 54.8665 125.31 54.9088 124.994 54.9092C124.369 54.9092 123.871 54.7348 123.501 54.386C123.132 54.0372 122.947 53.4986 122.947 52.7702V47.5715H121.387V47.0098H122.949V44.8871L123.604 44.6061V47.0098H125.978V47.5715H123.604Z" fill="white"/>
<path d="M129.039 43.8874V44.8876H128.023V43.8874H129.039ZM128.195 47.0101H128.835V54.8165H128.195V47.0101Z" fill="white"/>
<path d="M132.722 54.4268C132.183 54.0839 131.757 53.59 131.496 53.0065C131.199 52.3332 131.053 51.6028 131.068 50.8668C131.052 50.1337 131.198 49.4061 131.496 48.7361C131.758 48.1557 132.185 47.6647 132.722 47.3233C133.271 46.9856 133.905 46.8124 134.55 46.8243C135.191 46.8118 135.822 46.9851 136.368 47.3233C136.902 47.6664 137.325 48.1572 137.586 48.7361C137.885 49.4059 138.031 50.1336 138.015 50.8668C138.031 51.6029 137.884 52.3333 137.586 53.0065C137.327 53.5885 136.903 54.0822 136.368 54.4268C135.823 54.7654 135.191 54.9389 134.55 54.9263C133.905 54.9382 133.271 54.7649 132.722 54.4268V54.4268ZM136.586 53.3958C137.07 52.8027 137.312 51.9595 137.312 50.8664C137.312 49.8057 137.068 48.9731 136.578 48.3685C136.089 47.7638 135.413 47.4619 134.549 47.4627C133.685 47.4627 133.006 47.7622 132.511 48.3611C132.017 48.96 131.77 49.7951 131.771 50.8665C131.771 51.9707 132.01 52.8165 132.488 53.404C132.967 53.9915 133.648 54.2854 134.533 54.2857C135.418 54.2856 136.103 53.989 136.586 53.3958Z" fill="white"/>
<path d="M146.431 49.7892V54.8166H145.775V49.8513C145.775 49.0191 145.606 48.4105 145.267 48.0256C144.929 47.6407 144.39 47.448 143.651 47.4475C142.809 47.4475 142.135 47.7023 141.63 48.212C141.125 48.7216 140.872 49.4086 140.872 50.273V54.8164H140.232V49.165C140.238 48.4449 140.196 47.7253 140.108 47.0107H140.732L140.842 48.4936C141.045 47.9715 141.419 47.5338 141.903 47.2521C142.416 46.9604 142.998 46.8126 143.589 46.8243C145.483 46.824 146.431 47.8123 146.431 49.7892Z" fill="white"/>
</svg>
