<svg width="24" height="24" viewBox="0 0 24 24" fill="none" xmlns="http://www.w3.org/2000/svg">
<path fill-rule="evenodd" clip-rule="evenodd" d="M2.75009 7.59091C2.33587 7.59091 2.00009 7.25512 2.00009 6.84091V4.38636C2.00009 3.06806 3.06815 2 4.38645 2L6.841 2C7.25521 2 7.591 2.33578 7.591 2.75C7.591 3.16421 7.25521 3.5 6.841 3.5H4.38645C3.89657 3.5 3.50009 3.89649 3.50009 4.38636V6.84091C3.50009 7.25512 3.1643 7.59091 2.75009 7.59091ZM17.1602 2.00009C16.746 2.00009 16.4102 2.33587 16.4102 2.75009C16.4102 3.1643 16.746 3.50009 17.1602 3.50009H19.6148C20.1047 3.50009 20.5012 3.89657 20.5012 4.38645V6.841C20.5012 7.25521 20.8369 7.591 21.2512 7.591C21.6654 7.591 22.0012 7.25521 22.0012 6.841V4.38645C22.0012 3.06815 20.9331 2.00009 19.6148 2.00009H17.1602ZM6.84091 22.0001C7.25512 22.0001 7.59091 21.6643 7.59091 21.2501C7.59091 20.8359 7.25512 20.5001 6.84091 20.5001H4.38636C3.89649 20.5001 3.5 20.1036 3.5 19.6137L3.5 17.1592C3.5 16.745 3.16421 16.4092 2.75 16.4092C2.33578 16.4092 2 16.745 2 17.1592L2 19.6137C2 20.932 3.06806 22.0001 4.38636 22.0001H6.84091ZM22.0012 17.1601C22.0012 16.7459 21.6654 16.4101 21.2512 16.4101C20.8369 16.4101 20.5012 16.7459 20.5012 17.1601V19.6147C20.5012 20.1045 20.1047 20.501 19.6148 20.501H17.1602C16.746 20.501 16.4102 20.8368 16.4102 21.251C16.4102 21.6652 16.746 22.001 17.1602 22.001H19.6148C20.9331 22.001 22.0012 20.933 22.0012 19.6147V17.1601ZM6.50009 9.50009V6.50009H9.50009V9.50009H6.50009ZM5.00009 5.50009C5.00009 5.22395 5.22395 5.00009 5.50009 5.00009H10.5001C10.7762 5.00009 11.0001 5.22395 11.0001 5.50009V10.5001C11.0001 10.7762 10.7762 11.0001 10.5001 11.0001H5.50009C5.22395 11.0001 5.00009 10.7762 5.00009 10.5001V5.50009ZM14.5001 6.50009V9.50009H17.5001V6.50009H14.5001ZM13.5001 5.00009C13.2239 5.00009 13.0001 5.22395 13.0001 5.50009V10.5001C13.0001 10.7762 13.2239 11.0001 13.5001 11.0001H18.5001C18.7762 11.0001 19.0001 10.7762 19.0001 10.5001V5.50009C19.0001 5.22395 18.7762 5.00009 18.5001 5.00009H13.5001ZM6.50009 17.5001V14.5001H9.50009V17.5001H6.50009ZM5.00009 13.5001C5.00009 13.2239 5.22395 13.0001 5.50009 13.0001H10.5001C10.7762 13.0001 11.0001 13.2239 11.0001 13.5001V18.5001C11.0001 18.7762 10.7762 19.0001 10.5001 19.0001H5.50009C5.22395 19.0001 5.00009 18.7762 5.00009 18.5001V13.5001ZM7.25009 7.50009C7.25009 7.36202 7.36202 7.25009 7.50009 7.25009H8.50009C8.63816 7.25009 8.75009 7.36202 8.75009 7.50009V8.50009C8.75009 8.63816 8.63816 8.75009 8.50009 8.75009H7.50009C7.36202 8.75009 7.25009 8.63816 7.25009 8.50009V7.50009ZM7.50009 15.2501C7.36202 15.2501 7.25009 15.362 7.25009 15.5001V16.5001C7.25009 16.6382 7.36202 16.7501 7.50009 16.7501H8.50009C8.63816 16.7501 8.75009 16.6382 8.75009 16.5001V15.5001C8.75009 15.362 8.63816 15.2501 8.50009 15.2501H7.50009ZM13.0001 13.5001C13.0001 13.2239 13.2239 13.0001 13.5001 13.0001H15.0001V15.0001H13.0001V13.5001ZM18.5001 13.0001H17.0001V15.0001H19.0001V13.5001C19.0001 13.2239 18.7762 13.0001 18.5001 13.0001ZM17.0001 17.0001H19.0001V18.5001C19.0001 18.7762 18.7762 19.0001 18.5001 19.0001H17.0001V17.0001ZM15.0001 17.0001H13.0001V18.5001C13.0001 18.7762 13.2239 19.0001 13.5001 19.0001H15.0001V17.0001ZM15.0001 15.2501C15.0001 15.112 15.112 15.0001 15.2501 15.0001H16.7501C16.8882 15.0001 17.0001 15.112 17.0001 15.2501V16.7501C17.0001 16.8882 16.8882 17.0001 16.7501 17.0001H15.2501C15.112 17.0001 15.0001 16.8882 15.0001 16.7501V15.2501ZM15.5001 7.25009C15.362 7.25009 15.2501 7.36202 15.2501 7.50009V8.50009C15.2501 8.63816 15.362 8.75009 15.5001 8.75009H16.5001C16.6382 8.75009 16.7501 8.63816 16.7501 8.50009V7.50009C16.7501 7.36202 16.6382 7.25009 16.5001 7.25009H15.5001Z" fill="#1B1D29"/>
</svg>
