<svg width="20" height="20" viewBox="0 0 20 20" fill="none" xmlns="http://www.w3.org/2000/svg">
<path d="M10.515 1.82034C10.7753 1.59371 11.1701 1.62104 11.3968 1.8814L13.8051 4.64807C14.0317 4.90842 14.0044 5.3032 13.744 5.52984C13.7257 5.5458 13.7067 5.5605 13.6871 5.57394L10.8935 7.61323C10.6147 7.81675 10.2237 7.75572 10.0202 7.47692C9.81666 7.19812 9.87769 6.80712 10.1565 6.60361L11.967 5.28199C11.3689 5.10998 10.7163 5.00008 10 5.00008C6.66168 5.00008 3.95837 7.70235 3.95837 11.0379C3.95837 14.3816 6.66215 17.0834 10 17.0834C13.3384 17.0834 16.0417 14.3811 16.0417 11.0456C16.0417 9.80578 15.6657 8.65005 15.0241 7.68829C14.8326 7.40113 14.9101 7.01307 15.1972 6.82152C15.4844 6.62997 15.8725 6.70748 16.064 6.99463C16.8373 8.15391 17.2917 9.54957 17.2917 11.0456C17.2917 15.0722 14.0281 18.3334 10 18.3334C5.97153 18.3334 2.70837 15.0717 2.70837 11.0379C2.70837 7.01131 5.972 3.75008 10 3.75008C10.5242 3.75008 11.0184 3.8 11.484 3.88547L10.4539 2.70211C10.2273 2.44176 10.2546 2.04698 10.515 1.82034Z" fill="#3A9EFC"/>
</svg>
