<svg width="16" height="16" viewBox="0 0 16 16" fill="none" xmlns="http://www.w3.org/2000/svg">
<path fill-rule="evenodd" clip-rule="evenodd" d="M7.33333 11.6667C9.72657 11.6667 11.6667 9.72657 11.6667 7.33333C11.6667 4.9401 9.72657 3 7.33333 3C4.9401 3 3 4.9401 3 7.33333C3 9.72657 4.9401 11.6667 7.33333 11.6667ZM7.33333 12.6667C10.2789 12.6667 12.6667 10.2789 12.6667 7.33333C12.6667 4.38781 10.2789 2 7.33333 2C4.38781 2 2 4.38781 2 7.33333C2 10.2789 4.38781 12.6667 7.33333 12.6667Z" fill="#1B1D29"/>
<path fill-rule="evenodd" clip-rule="evenodd" d="M14.0435 14.0439C13.8482 14.2392 13.5317 14.2392 13.3364 14.0439L11.6865 12.394C11.4912 12.1987 11.4912 11.8821 11.6865 11.6869C11.8817 11.4916 12.1983 11.4916 12.3936 11.6869L14.0435 13.3368C14.2388 13.5321 14.2388 13.8486 14.0435 14.0439Z" fill="#1B1D29"/>
</svg>
