<svg width="171" height="144" viewBox="0 0 171 144" fill="none" xmlns="http://www.w3.org/2000/svg">
<circle cx="132.008" cy="10.1782" r="4.72755" fill="url(#paint0_linear_14_11922)"/>
<circle cx="76.7321" cy="2.90498" r="2.5456" fill="url(#paint1_linear_14_11922)"/>
<circle cx="132.371" cy="130.549" r="13.0917" fill="url(#paint2_linear_14_11922)"/>
<circle cx="5.81852" cy="43.2712" r="5.81852" fill="url(#paint3_linear_14_11922)"/>
<circle cx="10.1823" cy="120.003" r="7.63681" fill="url(#paint4_linear_14_11922)"/>
<circle cx="165.181" cy="60.7355" r="5.81852" fill="url(#paint5_linear_14_11922)"/>
<circle cx="74.5942" cy="72.7449" r="62.6438" fill="url(#paint6_linear_14_11922)"/>
<g clip-path="url(#clip0_14_11922)">
<path d="M74.8257 57.1265V75.596" stroke="white" stroke-width="5.27701" stroke-linecap="round" stroke-linejoin="round"/>
<path d="M106.77 60.0461V84.1091C106.77 88.0493 104.659 91.7082 101.247 93.7134L80.3496 105.78C76.9371 107.75 72.7154 107.75 69.2678 105.78L48.3708 93.7134C44.9583 91.7434 42.8475 88.0845 42.8475 84.1091V60.0461C42.8475 56.1059 44.9583 52.447 48.3708 50.4418L69.2678 38.375C72.6802 36.4049 76.9019 36.4049 80.3496 38.375L101.247 50.4418C104.659 52.447 106.77 56.0707 106.77 60.0461Z" stroke="white" stroke-width="5.27701" stroke-linecap="round" stroke-linejoin="round"/>
<path d="M74.8257 86.853V87.2048" stroke="white" stroke-width="7.03602" stroke-linecap="round" stroke-linejoin="round"/>
</g>
<defs>
<linearGradient id="paint0_linear_14_11922" x1="125.59" y1="2.3966" x2="136.502" y2="13.2986" gradientUnits="userSpaceOnUse">
<stop stop-color="#12DD63"/>
<stop offset="0.547093" stop-color="#30BEEC"/>
<stop offset="1" stop-color="#0083E1"/>
</linearGradient>
<linearGradient id="paint1_linear_14_11922" x1="73.2764" y1="-1.28513" x2="79.152" y2="4.58518" gradientUnits="userSpaceOnUse">
<stop stop-color="#12DD63"/>
<stop offset="0.547093" stop-color="#30BEEC"/>
<stop offset="1" stop-color="#0083E1"/>
</linearGradient>
<linearGradient id="paint2_linear_14_11922" x1="114.599" y1="109" x2="144.817" y2="139.19" gradientUnits="userSpaceOnUse">
<stop stop-color="#12DD63"/>
<stop offset="0.547093" stop-color="#30BEEC"/>
<stop offset="1" stop-color="#0083E1"/>
</linearGradient>
<linearGradient id="paint3_linear_14_11922" x1="-2.08012" y1="33.6938" x2="11.3497" y2="47.1116" gradientUnits="userSpaceOnUse">
<stop stop-color="#12DD63"/>
<stop offset="0.547093" stop-color="#30BEEC"/>
<stop offset="1" stop-color="#0083E1"/>
</linearGradient>
<linearGradient id="paint4_linear_14_11922" x1="-0.184627" y1="107.433" x2="17.4421" y2="125.044" gradientUnits="userSpaceOnUse">
<stop stop-color="#12DD63"/>
<stop offset="0.547093" stop-color="#30BEEC"/>
<stop offset="1" stop-color="#0083E1"/>
</linearGradient>
<linearGradient id="paint5_linear_14_11922" x1="157.283" y1="51.1581" x2="170.713" y2="64.576" gradientUnits="userSpaceOnUse">
<stop stop-color="#12DD63"/>
<stop offset="0.547093" stop-color="#30BEEC"/>
<stop offset="1" stop-color="#0083E1"/>
</linearGradient>
<linearGradient id="paint6_linear_14_11922" x1="-10.4447" y1="-30.3679" x2="134.145" y2="114.092" gradientUnits="userSpaceOnUse">
<stop stop-color="#12DD63"/>
<stop offset="0.547093" stop-color="#30BEEC"/>
<stop offset="1" stop-color="#0083E1"/>
</linearGradient>
<clipPath id="clip0_14_11922">
<rect width="84.4322" height="84.4322" fill="white" transform="translate(32.6095 29.8618)"/>
</clipPath>
</defs>
</svg>
