<svg width="24" height="24" viewBox="0 0 24 24" fill="none" xmlns="http://www.w3.org/2000/svg">
<path fill-rule="evenodd" clip-rule="evenodd" d="M11.9997 0.333496C12.552 0.333496 12.9997 0.781211 12.9997 1.3335V4.00016C12.9997 4.55245 12.552 5.00016 11.9997 5.00016C11.4474 5.00016 10.9997 4.55245 10.9997 4.00016V1.3335C10.9997 0.781211 11.4474 0.333496 11.9997 0.333496ZM17.333 12.0002C17.333 14.9457 14.9452 17.3335 11.9997 17.3335C9.05416 17.3335 6.66634 14.9457 6.66634 12.0002C6.66634 9.05464 9.05416 6.66683 11.9997 6.66683C14.9452 6.66683 17.333 9.05464 17.333 12.0002ZM12.9997 20.0002C12.9997 19.4479 12.552 19.0002 11.9997 19.0002C11.4474 19.0002 10.9997 19.4479 10.9997 20.0002V22.6668C10.9997 23.2191 11.4474 23.6668 11.9997 23.6668C12.552 23.6668 12.9997 23.2191 12.9997 22.6668V20.0002ZM23.6663 12.0002C23.6663 12.5524 23.2186 13.0002 22.6663 13.0002H19.9997C19.4474 13.0002 18.9997 12.5524 18.9997 12.0002C18.9997 11.4479 19.4474 11.0002 19.9997 11.0002H22.6663C23.2186 11.0002 23.6663 11.4479 23.6663 12.0002ZM3.99967 13.0002C4.55196 13.0002 4.99967 12.5524 4.99967 12.0002C4.99967 11.4479 4.55196 11.0002 3.99967 11.0002H1.33301C0.780723 11.0002 0.333008 11.4479 0.333008 12.0002C0.333008 12.5524 0.780723 13.0002 1.33301 13.0002H3.99967ZM20.2493 3.75059C20.6398 4.14111 20.6398 4.77427 20.2493 5.1648L18.3636 7.05042C17.9731 7.44094 17.34 7.44094 16.9494 7.05042C16.5589 6.65989 16.5589 6.02673 16.9494 5.6362L18.835 3.75059C19.2256 3.36006 19.8587 3.36006 20.2493 3.75059ZM7.04992 18.3641C7.44045 17.9736 7.44045 17.3404 7.04992 16.9499C6.6594 16.5594 6.02623 16.5594 5.63571 16.9499L3.75009 18.8355C3.35957 19.2261 3.35957 19.8592 3.75009 20.2497C4.14061 20.6403 4.77378 20.6403 5.1643 20.2497L7.04992 18.3641ZM20.2493 20.2498C19.8587 20.6403 19.2256 20.6403 18.835 20.2498L16.9494 18.3641C16.5589 17.9736 16.5589 17.3404 16.9494 16.9499C17.34 16.5594 17.9731 16.5594 18.3636 16.9499L20.2493 18.8355C20.6398 19.2261 20.6398 19.8592 20.2493 20.2498ZM5.63571 7.05041C6.02623 7.44093 6.6594 7.44093 7.04992 7.05041C7.44045 6.65988 7.44045 6.02672 7.04992 5.6362L5.1643 3.75058C4.77378 3.36005 4.14061 3.36005 3.75009 3.75058C3.35957 4.1411 3.35957 4.77427 3.75009 5.16479L5.63571 7.05041Z" fill="#FBB631"/>
</svg>
