<svg width="40" height="40" viewBox="0 0 40 40" fill="none" xmlns="http://www.w3.org/2000/svg">
<path d="M0.5 8C0.5 3.85786 3.85786 0.5 8 0.5H32C36.1421 0.5 39.5 3.85786 39.5 8V32C39.5 36.1421 36.1421 39.5 32 39.5H8C3.85786 39.5 0.5 36.1421 0.5 32V8Z" stroke="#2D55A5"/>
<path d="M24 12H26C26.5304 12 27.0391 12.2107 27.4142 12.5858C27.7893 12.9609 28 13.4696 28 14V28C28 28.5304 27.7893 29.0391 27.4142 29.4142C27.0391 29.7893 26.5304 30 26 30H20.5M12 21.5V14C12 13.4696 12.2107 12.9609 12.5858 12.5858C12.9609 12.2107 13.4696 12 14 12H16M17 10H23C23.5523 10 24 10.4477 24 11V13C24 13.5523 23.5523 14 23 14H17C16.4477 14 16 13.5523 16 13V11C16 10.4477 16.4477 10 17 10ZM18.42 20.61C18.615 20.415 18.8465 20.2603 19.1013 20.1548C19.3561 20.0492 19.6292 19.9949 19.905 19.9949C20.1808 19.9949 20.4539 20.0492 20.7087 20.1548C20.9635 20.2603 21.195 20.415 21.39 20.61C21.585 20.805 21.7397 21.0365 21.8452 21.2913C21.9508 21.5461 22.0051 21.8192 22.0051 22.095C22.0051 22.3708 21.9508 22.6439 21.8452 22.8987C21.7397 23.1535 21.585 23.385 21.39 23.58L15.95 29L12 30L12.99 26.05L18.42 20.61Z" stroke="#2D55A5" stroke-linecap="round" stroke-linejoin="round"/>
</svg>
