<svg width="24" height="25" viewBox="0 0 24 25" fill="none" xmlns="http://www.w3.org/2000/svg">
<g clip-path="url(#clip0_548_173412)">
<path d="M19.27 7.64425L20.707 6.20725L19.293 4.79275L17.7558 6.33C16.3514 5.33479 14.7127 4.72143 13 4.55V2.5H15V0.5H9.00001V2.5H11V4.55C9.28735 4.72143 7.64859 5.33479 6.24426 6.33L4.70701 4.79275L3.29301 6.20725L4.73001 7.64425C3.38865 9.06445 2.49265 10.8464 2.15264 12.7701C1.81263 14.6938 2.04351 16.675 2.81677 18.4689C3.59002 20.2629 4.87179 21.7911 6.50378 22.8648C8.13577 23.9384 10.0465 24.5106 12 24.5106C13.9535 24.5106 15.8643 23.9384 17.4962 22.8648C19.1282 21.7911 20.41 20.2629 21.1833 18.4689C21.9565 16.675 22.1874 14.6938 21.8474 12.7701C21.5074 10.8464 20.6114 9.06445 19.27 7.64425ZM12 22.5C10.4178 22.5 8.87104 22.0308 7.55545 21.1518C6.23985 20.2727 5.21447 19.0233 4.60897 17.5615C4.00347 16.0997 3.84504 14.4911 4.15372 12.9393C4.46241 11.3874 5.22433 9.96197 6.34315 8.84315C7.46197 7.72433 8.88744 6.9624 10.4393 6.65372C11.9911 6.34504 13.5997 6.50346 15.0615 7.10896C16.5233 7.71447 17.7727 8.73985 18.6518 10.0554C19.5308 11.371 20 12.9177 20 14.5C19.9976 16.621 19.154 18.6544 17.6542 20.1542C16.1545 21.654 14.121 22.4976 12 22.5Z" fill="#3ABA86"/>
<path fill-rule="evenodd" clip-rule="evenodd" d="M12.1427 8.75166V14.4922H17.9946C17.9982 14.5777 18 14.6636 18 14.75C18 18.0637 15.3137 20.75 12 20.75C8.68629 20.75 6 18.0637 6 14.75C6 11.4363 8.68629 8.75 12 8.75C12.0477 8.75 12.0953 8.75056 12.1427 8.75166Z" fill="#3ABA86"/>
</g>
<defs>
<clipPath id="clip0_548_173412">
<rect width="24" height="24" fill="white" transform="translate(0 0.5)"/>
</clipPath>
</defs>
</svg>
