<svg width="35" height="72" viewBox="0 0 35 72" fill="none" xmlns="http://www.w3.org/2000/svg">
<path d="M9.82 18.568V16.648H16.924V18.568H9.82ZM22.1817 25V10.936L18.8937 13.432L17.9097 11.92L22.5177 8.512H24.1977V25H22.1817Z" fill="black"/>
<line y1="35.5" x2="35" y2="35.5" stroke="black"/>
<path d="M17.264 65.144C14.456 65.144 12.44 63.776 11.624 61.88L13.376 61.088C13.952 62.408 15.2 63.272 17.12 63.272C19.04 63.272 20.528 62.096 20.528 60.296C20.528 58.712 19.352 57.32 16.904 57.32H15.536V55.592H17.144C19.256 55.592 20.12 54.272 20.12 52.952C20.12 51.32 18.776 50.24 17.048 50.24C15.416 50.24 14.456 50.936 13.808 51.896L12.176 50.984C13.04 49.472 14.72 48.368 17.096 48.368C19.904 48.368 22.16 49.952 22.16 52.688C22.16 54.224 21.296 55.712 19.736 56.384V56.456C21.488 57.128 22.592 58.616 22.592 60.584C22.592 63.32 20.312 65.144 17.264 65.144Z" fill="black"/>
</svg>
